<svg width="13" height="20" viewBox="0 0 13 20" fill="none" xmlns="http://www.w3.org/2000/svg">
<g clip-path="url(#clip0)">
<path d="M11.85 17.4602C9.06738 16.2891 6.41605 14.8277 3.94002 13.1002C3.09598 12.5549 2.19373 12.1055 1.25002 11.7602C-0.0899775 11.2402 -0.429978 10.2202 0.700022 9.33023C2.62002 7.83023 4.70002 6.51023 6.70002 5.14023C7.94002 4.29023 9.24002 3.53023 10.52 2.72023C11.35 2.19023 11.78 2.43023 11.82 3.42023C11.8817 3.75814 11.8358 4.1069 11.6887 4.4173C11.5415 4.7277 11.3007 4.98406 11 5.15023C10 5.69023 9.00002 6.24023 8.00002 6.86023C6.79002 7.65023 5.61002 8.50023 4.45002 9.36023C3.96002 9.72023 4.04002 10.0602 4.45002 10.5202C6.45002 12.7002 9.10002 14.0102 11.58 15.5202C11.91 15.6836 12.1616 15.9712 12.2797 16.3199C12.3978 16.6686 12.3728 17.05 12.21 17.3802C12.21 17.3802 12.21 17.4302 12.21 17.4602H11.85Z" fill="#E56B54"/>
</g>
<defs>
<clipPath id="clip0">
<rect width="12.35" height="20" fill="white"/>
</clipPath>
</defs>
</svg>
