<svg width="42" height="42" viewBox="0 0 42 42" fill="none" xmlns="http://www.w3.org/2000/svg">
<path d="M41.3438 21C41.3438 32.2356 32.2356 41.3438 21 41.3438C9.76443 41.3438 0.65625 32.2356 0.65625 21C0.65625 9.76443 9.76443 0.65625 21 0.65625C32.2356 0.65625 41.3438 9.76443 41.3438 21ZM18.6469 31.7719L33.7406 16.6781C34.2531 16.1656 34.2531 15.3345 33.7406 14.822L31.8845 12.9659C31.372 12.4532 30.5409 12.4532 30.0283 12.9659L17.7188 25.2753L11.9717 19.5283C11.4592 19.0157 10.6281 19.0157 10.1155 19.5283L8.2594 21.3844C7.74687 21.8969 7.74687 22.728 8.2594 23.2405L16.7906 31.7718C17.3033 32.2844 18.1342 32.2844 18.6469 31.7719Z" fill="#5EC68B"/>
</svg>
