<svg width="16" height="13" viewBox="0 0 16 13" fill="none" xmlns="http://www.w3.org/2000/svg">
<g clip-path="url(#clip0)">
<path fill-rule="evenodd" clip-rule="evenodd" d="M15.8 0.499994C14.6 3.49999 13.1 6.29999 11.2 8.89999C10.6 9.69999 10.2 10.7 9.79998 11.7C9.29998 13.1 8.19998 13.5 7.29998 12.3C5.69998 10.3 4.29998 8.09999 2.79998 5.99999L0.299979 1.99999C-0.300021 0.999994 -2.12193e-05 0.499994 0.999979 0.499994C1.79998 0.499994 2.49998 0.599994 2.89998 1.39999C4.15544 3.79655 5.62829 6.07277 7.29998 8.19999C7.69998 8.79999 7.99998 8.69999 8.49998 8.19999C10.8 6.09999 12.2 3.29999 13.8 0.699994C14.3 -0.100006 15 -0.300006 15.8 0.0999939V0.399994V0.499994Z" fill="#1D6C93"/>
</g>
<defs>
<clipPath id="clip0">
<rect width="16" height="13" fill="white"/>
</clipPath>
</defs>
</svg>
