<svg width="80" height="42" viewBox="0 0 80 42" fill="none" xmlns="http://www.w3.org/2000/svg">
<path fill-rule="evenodd" clip-rule="evenodd" d="M3 0C1.34315 0 0 1.34315 0 3V39C0 40.6569 1.34315 42 3 42H77C78.6569 42 80 40.6569 80 39V3C80 1.34315 78.6569 0 77 0H3ZM23.4941 26L24.832 22.2891H30.7891L32.1465 26H34.0703L28.6309 11.7812H26.9902L21.5605 26H23.4941ZM30.2324 20.7461H25.3984L27.8105 14.0957L30.2324 20.7461ZM36.5898 16.8301V26H38.3965V16.8301H40.6523V15.4336H38.3965V14.3203C38.3965 13.6823 38.556 13.194 38.875 12.8555C39.194 12.5104 39.6465 12.3379 40.2324 12.3379C40.5775 12.3379 40.903 12.3672 41.209 12.4258L41.3066 10.9609C40.8965 10.8503 40.4831 10.7949 40.0664 10.7949C38.9596 10.7949 38.1035 11.1042 37.498 11.7227C36.8926 12.3411 36.5898 13.2168 36.5898 14.3496V15.4336H34.9199V16.8301H36.5898ZM43.543 16.8301V26H45.3496V16.8301H47.6055V15.4336H45.3496V14.3203C45.3496 13.6823 45.5091 13.194 45.8281 12.8555C46.1471 12.5104 46.5996 12.3379 47.1855 12.3379C47.5306 12.3379 47.8561 12.3672 48.1621 12.4258L48.2598 10.9609C47.8496 10.8503 47.4362 10.7949 47.0195 10.7949C45.9128 10.7949 45.0566 11.1042 44.4512 11.7227C43.8457 12.3411 43.543 13.2168 43.543 14.3496V15.4336H41.873V16.8301H43.543ZM55.5254 15.4336L53.0645 23.3535L50.4277 15.4336H48.4551L52.2246 25.8828L51.8242 26.957C51.6029 27.6146 51.3197 28.0671 50.9746 28.3145C50.6361 28.5618 50.1608 28.6855 49.5488 28.6855L49.0605 28.6465V30.1113L49.7344 30.2383L50.0762 30.2676C51.5085 30.2676 52.5534 29.3887 53.2109 27.6309L57.459 15.4336H55.5254Z" fill="#E66C55"/>
</svg>
