<svg width="60" height="60" viewBox="0 0 60 60" fill="none" xmlns="http://www.w3.org/2000/svg">
<path d="M43 31C43 30.8 43 30.5 42.8 30.3L42.6 29.9C42.4988 29.6497 42.3642 29.4142 42.2 29.2L41.8 28.8C41.7425 28.6942 41.6756 28.5938 41.6 28.5L40.7 27.8C40.4 27.5 40.1 27.2 40 26.8L39.8 26.6C38.6893 25.952 37.5168 25.416 36.3 25L33.7 24.5L33 24.4L32.1 24.3L31.1 24C31.023 23.5785 30.8127 23.1929 30.5 22.9C30.4 22.1 30.7 21.2 30.9 20.5V20L31.1 19.6L31.3 19.3L31.4 19L32.1 18C32.1 17.7 32.3 17.6 32.4 17.4L32.8 16.9L33.1 16.3L33.4 15.8L33.6 15.3L34.1 14.3L34.6 13L34.9 12.2L35 11.4V11.2V9.99998V9.59998L34.6 7.99998C34.5 7.59998 34.3 7.29998 34 6.99998L33.2 6.59998C32.7 6.59998 32.2 6.59998 31.9 6.89998V7.19998L32.1 7.49998C32.3 7.69998 32.3 7.89998 32.3 8.09998V8.49998C32.3 8.69998 32.3 8.89998 32 9.09998L31.2 9.89998H31L30.9 10.1L30.7 10.2C30.4857 10.5431 30.3176 10.9129 30.2 11.3L30 12.1V12.8C30 12.9 30 13 29.8 13.1L29.3 13.4L29.1 13.7L28.9 14.1L28.5 14.8L28.2 15.3V15.6C28.1 15.9 27.9 16.2 27.6 16.4L26.6 17.3L25.3 18.2L24.4 18.7L23.7 19.7L23.4 20.1L22.9 20.6L22.3 21.6L22.1 21.8C22.1 22.1 21.9 22.3 21.8 22.5L21.6 22.7L20.8 23.7L19.8 24.5L19.6 24.6L18.9 25.2L18.6 25.5L18.2 26.1L17.6 26.7L17.2 27.2L16.8 27.5L16 28.5V28.7H15.8L15.6 29L15.5 29.3L15.3 29.7L15.1 29.9C15.0627 29.9052 15.0247 29.8999 14.9903 29.8844C14.9559 29.869 14.9266 29.8442 14.9057 29.8129C14.8848 29.7815 14.8731 29.7449 14.8721 29.7072C14.8711 29.6696 14.8808 29.6324 14.9 29.6V29.5C15.1 29.1 15.9 27.9 15.3 28L14.3 28.2H9.90002L8.70002 28.3H8.40002L7.30002 28.4L5.60002 28.6L4.60002 28.7C4.30002 29.7 4.30002 30.6 4.40002 31.5C4.50002 32.7 4.90002 33.9 4.70002 35.1V35.2H4.40002V36.7L4.90002 39C5.30002 40.1 5.40002 41.3 5.70002 42.5L7.10002 41.9C7.60002 41.6 8.20002 41.4 8.80002 41.3C9.30002 41.3 9.80002 41.1 10.2 41H12.6L14 41.2L15.3 41.5L15.9 41.8L17.4 42.1C17.7 42.1 18.1 42.1 18.4 42.4H18.6L19.5 43L20 43.2L21.1 43.7L22.7 44.2C23 44.2 23.3 44.4 23.5 44.5L24.8 44.9H25.8L26 45L26.3 45.2L28.7 45.7H28.8L29 45.8L29.6 46.2C30.4145 46.4975 31.2153 46.8312 32 47.2L33.4 47.1C33.9 47 34.4 46.8 34.9 46.4L35.3 46L35.5 45.6V44.9L35.4 44.8H35.3C35.4228 44.4094 35.4228 43.9905 35.3 43.6L36.3 43.8H37.2C37.7 43.8 38.2 43.6 38.8 43.4L39.4 43C39.5 43 39.7 42.8 39.7 42.6V40.7L39.6 40.2V40L39.3 39.4H39.7L40.5 39.2H40.6L41.3 38.6L41.6 38.3L42.3 37.3V37.2C42.4 36.8 42.3 36.4 42.1 36.1L41.9 35.8L41.7 35.3L41.5 35.1H41.3C40.9913 34.8333 40.6563 34.5987 40.3 34.4L39.9 34.3L39.8 33.9H40.2L42.4 33.2L42.7 33.1C42.9 33.1 43.1 32.8 43.2 32.6L43 31Z" fill="#F8DA69"/>
<path d="M40.8 31.7C41.2502 31.5811 41.6861 31.4135 42.1 31.2L42.5 31L42.8 30.8C42.9281 29.9659 42.7506 29.1135 42.3 28.4C42.3 28.1 42.1 27.8 41.9 27.6L41.4 26.9L41.1 26.7L40.8 26.4L40.1 25.8C39.8341 25.5496 39.6289 25.2417 39.5 24.9L39.4 24.8L39 24.5L38.3 24.2L37.5 23.8L36.7 23.5L35 23L33.3 22.6H32.5L31.6 22.4C31.0901 22.3069 30.5885 22.1732 30.1 22L29.9 22.4L29.7 23V23.6C29.7 23.8 29.9 24 30 24.1C30.2 24.3 30.3 24.5 30.2 24.8C30.2 24.8 30 25 29.9 24.9H29.7V24.7L29.3 23.5V22.5V22.2L29.8 21V20.4L29.9 20.1L30.3 19.1V18.5C30.3975 18.248 30.5324 18.012 30.7 17.8L30.9 17.6L31.2 17L31.9 15.8L32.2 15.4L32.4 15.2L32.5 15.1V14.8L32.3 14.6V14.5L32.2 14.4L32 14.2L31.6 13.9L31.1 13.7C30.9 13.7 30.8 13.5 30.6 13.4L30.4 13.2V12.9H30.5L30.6 13L30.7 13.1C30.8583 13.2435 31.0253 13.3771 31.2 13.5L31.4 13.6L31.3 13.4V13.2L31.2 13.1V13H31.4V13.1L31.6 13.2V13.4L32 13.8L32.4 14.1L32.9 14.3L33.1 14C32.9817 13.8155 32.806 13.6749 32.6 13.6L32.2 13.5V13.3H33.3L33.4 13.2L33.6 12.9L34.2 11.6L34.5 11L34.6 10.3L34.7 9.59999V8.19999V7.59999L34.3 6.19999C34.2 5.79999 33.9 5.39999 33.6 5.19999C33.2 4.89999 32.6 4.79999 32.2 4.89999L31.9 5.09999C31.8 5.09999 31.7 5.09999 31.6 5.29999L31.8 5.49999L32 5.79999L32.1 6.19999V6.89999L32 7.19999L31.5 7.69999L30.9 8.19999H30.8L30.7 8.29999L30.5 8.59999C30.3524 8.7901 30.2187 8.99062 30.1 9.19999L30 9.59999L29.9 9.89999V10.9L29.7 11.3L29.4 11.5L29.1 11.7L28.9 11.9L28.7 12.2L28.4 12.8L28.2 13.1L28 13.5C28 13.7 28 13.9 27.8 14.1C27.8 14.3 27.6 14.5 27.5 14.6L27 15.1C27 15.4 26.7 15.6 26.5 15.8L25.9 16.1L25.2 16.3C24.846 16.4633 24.5107 16.6645 24.2 16.9L23.6 17.6L23.4 17.9L23.2 18.2V18.3C23 18.5 23 18.6 23 18.8V18.7V18.8C23 19.1 22.8 19.3 22.6 19.4L22.2 19.9L22 20.2L21.8 20.5L21.6 20.8L21.4 21.1L20.8 21.5L20.4 22L20.1 22.3L19.8 22.5L19.5 22.7L19.3 23H19L18.6 23.3C18.2984 23.6038 18.0302 23.9391 17.8 24.3L17.7 24.4C17.5492 24.6127 17.3821 24.8133 17.2 25L16.7 25.5C16.5863 25.6516 16.4516 25.7863 16.3 25.9L16.1 26C15.8798 26.2292 15.7096 26.5016 15.6 26.8V26.9L15.4 27H15.2L15.1 27.3L15 27.6V27.8L14.9 27.9H14.6V27.8V27.7V27.5V27.3L14.9 27L15 26.7L14.9 27L15 26.7V26.6V26.5L14.9 26.4H8.7L8.1 26.6C7.3 26.6 6.5 26.6 5.7 26.8H5.1C4.99455 27.395 4.92775 27.9963 4.9 28.6V33.9L5 34.7L5.1 36.4L5.2 37.3H9.2C9.2 37.5 9.2 37.6 9 37.6L8.4 37.7C7.8 37.7 7.2 38 6.7 38L5.4 38.2L5.5 39.3L5.7 40C6 40 6.1 40 6.4 39.8C6.7 39.6 7.2 39.7 7.6 39.6L8.1 39.4H8.7L9.8 39.1H13.6C13.8 39.1 14.6 39.1 14.6 39.3L15.3 39.4L16 39.6L16.8 39.9H17.4L18.2 40.1L18.9 40.4L19.7 40.7C19.9 40.8 20.1 41.1 20.3 41.1L21.3 41.5L22.3 42.2L22.9 42.4L23.4 42.6L23.9 42.8L24.5 43H25.6L26.1 43.1L26.9 43.3L26.7 43L26.5 42.6V42.3H26.3L26.2 42.1V41.6V41.1V40.7L26.4 40.4V40.1L26.5 39.9L26.8 39.7V39.4V38.9V38.8V38.6V37.9L26.9 37.5L27 37.1V36.8V36.5V36.1V35.3L26 35.6L25.1 35.9L24.1 36H23.7L23.3 36.2L23.1 36.3H23C22.8 36.4 22.6 36.5 22.4 36.4C22.2 36.4 22 36.4 22.1 36.2L22.3 36C22.7198 35.6395 23.2474 35.4285 23.8 35.4H24.2L24.7 35.3L25.1 35.1L26.1 34.8L26.4 34.5L26.8 34.2L27.6 33.7L27.7 33.5L27.8 33.3L28 33L28.2 32.3L25.9 33.3C25.2 33.5 25 33.7 24.4 34L23.9 34.2L23.8 34.3L23.6 34.4H23.2C23.1587 34.3726 23.1249 34.3355 23.1015 34.2919C23.0781 34.2482 23.0658 34.1995 23.0658 34.15C23.0658 34.1005 23.0781 34.0517 23.1015 34.0081C23.1249 33.9645 23.1587 33.9274 23.2 33.9L23.3 33.8L23.5 33.7L24.8 33.2L25.5 32.9L26 32.6L26.5 32.5L27 32.4L27.4 32.2L27.7 31.9L27.9 31.7L28.1 31.5L28.3 31.4L28.4 31.2L28.7 30.7L29.7 29.3H29.8V28.9V28.4V27.9V27.3C29.8719 26.9453 30.0074 26.6065 30.2 26.3L30.3 26.1L30.5 25.9L30.7 25.7L30.9 25.5L31 25.3V25.1V24.6L30.9 24.2L30.8 23.9V23.6C30.8 23.4 31 23.3 31.1 23.3C31.3 23.3 31.4 23.5 31.4 23.6V23.9L31.6 24.1L31.8 24.6V24.9L31.6 25.2L31.5 25.5H33.5L33.9 25.7H34.1L34.2 25.9L35.2 25.6V25.4L35.4 25.1L35.7 24.7L35.9 24.5L36.1 24.3L36.5 24.4V24.8L36.2 25.2L36 25.5H38.6L38.9 25.6H39.1L39.5 25.7V26.1L39.2 26.3H38.9L37.8 26.1H36.7L35.7 26.2L35.1 26.4H34.5C34.2577 26.4775 34.0233 26.578 33.8 26.7L33.6 26.9H33.3C33.2593 26.8889 33.2214 26.8693 33.1887 26.8426C33.1561 26.8158 33.1294 26.7825 33.1106 26.7447C33.0917 26.707 33.081 26.6656 33.0792 26.6235C33.0773 26.5813 33.0844 26.5392 33.1 26.5L33.3 26.3H33.4L33.2 26.2H32.3C32.1 26.1 32 26.1 31.9 26.2H31.5L31.1 26.5C30.9 26.7 30.8 27 30.8 27.3V28.3L30.9 28.5C31.0664 28.9052 31.3034 29.2776 31.6 29.6L31.8 29.8V30.4L32.1 30.8C32.3 31.1 32.7 31.3 33.1 31.3H37.1L38 31.6L38.8 31.8C39.1 31.8 39.4 31.9 39.6 31.8C40.0023 31.8044 40.404 31.771 40.8 31.7ZM40.9 33.3C40.9 33.6 40.6 33.7 40.4 34H40V33.8L40.2 33.5L40.4 33L39.1 32.5H38.6H38.4H38.3L37.9 32.4L37.3 32.2C36.9722 32.108 36.6379 32.0412 36.3 32L35.9 32.1L35.8 32H33.2L32.5 31.8L31.9 31.5C31.7714 31.4334 31.6666 31.3286 31.6 31.2L31.4 30.9L31.3 30.6V30.2H31.2L31 30L30.9 29.9H30.8V30.1L30.6 30.3L30.5 30.4L30.3 30.7L30.2 30.8L30.1 31L29.9 31.3V31.5L29.7 31.6V31.8L29.6 31.9V34L29.7 34.6L30 34.8L30.2 34.9L30.5 35L30.6 35.2L31.2 35.5L31.7 35.8H31.9L32.8 36.2L33.8 36.6L36 37L37 37.4L38.2 37.6H39.3L39.8 37.5L40.3 37.2L40.7 36.9L41.1 36.5C41.4 36.2 41.6 35.9 41.7 35.5V34.5L41.3 34L41.1 33.5H40.9V33.3ZM54.9 30.7V31.8L54.7 33.8V34.3L54.5 34.7C54.5 35 54.5 35.2 54.3 35.5L54.1 36.3L53.7 37.4V37.2C53.7 37.4 53.7 37.6 53.5 37.8L53.1 38.8L52.8 39.5L52.3 40.4L50.7 42.8L50.3 43.4L50.1 43.7L49.8 44L49.3 44.6L48.3 45.6C47.6 46.4 46.9 47.1 46 47.7H46.1C45.3576 48.1753 44.6553 48.7104 44 49.3L43.6 49.5C43.0775 49.9592 42.5076 50.3615 41.9 50.7L41.6 50.9L39.2 52.4L38.2 53.1L38.5 52.9C37.9 53.2 37.8 53.2 38 53L37.2 53.5L37.4 53.3C36.7 53.7 36.4 54 37 53.7C36.6204 53.9119 36.2178 54.0796 35.8 54.2C35.449 54.3287 35.1136 54.4965 34.8 54.7L34.5 54.9C34.2393 54.9886 33.9717 55.0555 33.7 55.1H33.4L32.2 55.4H31.6C31.5 55.5 31.4 55.5 31.5 55.6H29L26.8 55.5C25.8 55.5 27.2 55.5 26.8 55.5C26.3687 55.5589 25.9313 55.5589 25.5 55.5L24.5 55.2L24.7 55.3L23.8 55.2L22.8 55H23.2L21.9 54.7L22.5 54.9L21.5 54.7L20.6 54.5H20.2L19.7 54.3L18.7 54H19.2C19.9 54.2 19.7 54.1 19.2 54L18.9 53.9L18.6 53.8L18.2 53.6L16.2 53L14.7 52.3L13.3 51.6L12.6 51.3L12 50.9L11.4 50.5C11.4 50.5 11.2 50.5 11.1 50.3L10.9 50.1L10.5 49.7L9.5 48.9L9 48.3L8.4 47.7L8.1 47.2C8.00673 47.0617 7.90661 46.9282 7.8 46.8L7.6 46.5L6.4 44.5L6.3 44.3L6.2 44L6 43.5L5.7 43L5.5 42.5L5.1 41L4.8 39.7V38.5L4.6 38L4.5 37.5L4.3 36.5L4.2 35.5L4.1 34.5V33.6V32.6L4 32.4V31.4V29.6L4.2 27.6L4.3 26.9L4.4 26.4L4.6 25.4C5.44871 22.6968 6.69575 20.1353 8.3 17.8C8.7 17.5 9 16.9 9.3 16.5C9.20399 16.6165 9.13562 16.7533 9.1 16.9C9.9 15.7 10.3 15.6 11.1 14.5L12.3 13.1L12.9 12.5L13.5 12L13.9 11.7C15.0482 10.4744 16.4019 9.45908 17.9 8.69999L19.9 7.69999C21.1 7.09999 22.3 6.69999 23.6 6.29999C25.9 5.59999 26.9 5.09999 27 5.99999L25.2 6.69999L23 7.39999L21.7 7.89999L19.9 8.59999L19.4 8.89999L17.1 10.3L15.4 11.6L14.9 12L14.7 12.1L13.1 13.6L12.4 14.4L12 14.8L11.6 15.2C11.6 15.4 11.4 15.5 11.3 15.7C9.83671 17.6549 8.436 19.6559 7.1 21.7C6.32458 23.0886 5.72019 24.566 5.3 26.1H6.3L7.5 25.8L8.8 25.7H11.1L13.5 25.8H14.9C15.3 25.8 15.4 25.8 15.7 25.5L16.1 25L16.6 24.4L17.4 23.8L17.8 23.4L18.1 23L18.6 22.5L19.2 22.1C19.6 21.9 19.6 21.6 19.9 21.3L20.6 20.5L20.9 20L21 19.6L21.7 18.7L22.3 18.1C22.6 17.8 22.5 17.6 22.7 17.3L23.5 16.3L24.5 15.8L25.5 15.2L26.5 14.5L27 14.1C27.2 13.9 27.2 13.8 27.2 13.6L27.6 12.6C27.9429 12.1402 28.2763 11.6734 28.6 11.2L28.9 10.7C28.9 10.6 29 9.69999 29.2 9.29999L29.6 8.29999C29.8 8.09999 29.8 7.89999 29.8 7.79999L30.2 6.79999C30.3 5.99999 30.8 5.79999 31 5.09999C31 4.89999 31.2 4.79999 31.4 4.69999C31.7494 4.44649 32.1684 4.30682 32.6 4.29999L33.2 4.39999C33.578 4.55465 33.9124 4.79959 34.1739 5.11338C34.4354 5.42717 34.616 5.80025 34.7 6.19999L35.1 7.29999L35.2 8.49999V9.69999L35.1 10.3L35 10.9L34.7 11.5L34.5 12L34 13.1C33.7728 13.6844 33.5055 14.2524 33.2 14.8V15L32.9 15.3L32.3 16.3L31.7 17.3L31.4 17.8L31.2 18.1L31.1 18.3L30.8 18.9V19.4L30.5 20V20.6C30.4439 20.9129 30.3428 21.216 30.2 21.5V21.6H30.5L30.9 21.8C31.4542 21.961 32.0242 22.0616 32.6 22.1H33.2L35.2 22.5C36.052 22.7044 36.8876 22.9718 37.7 23.3C38 23.3 38.3 23.5 38.5 23.7C38.9144 23.8699 39.3155 24.0704 39.7 24.3L40 24.7L40.2 25C40.2 25.2 40.4 25.3 40.5 25.4L41.1 25.9L41.8 26.5C42.1816 26.966 42.5166 27.4685 42.8 28L43.1 28.8C43.3484 29.5053 43.4172 30.2614 43.3 31L43.1 31.3C42.9384 31.4834 42.7315 31.6213 42.5 31.7H42.3L41.5 32.1H41.3V32.8L41.7 33.6L42.1 34.3C42.3 34.6 42.3 34.9 42.3 35.3C42.3 35.5 42.3 35.8 42.1 36.1L41.6 36.8L40.9 37.4L40.6 37.7H40.4C40.4 37.9 40.3 37.9 40.2 38L39.8 38.1H39.6L39.4 38.2C39.4 38.5 39.9 38.7 39.9 39.2L39.8 39.7L39.6 40.2L39.7 40.7V41.3C39.3 41.6 39.2 41.9 38.9 42.3C38.6 42.5 38.2 42.7 37.9 42.7H35.8V43.9L35.5 44.5L35.3 44.7L35.1 44.9L34.9 45L34.7 45.2L34.2 45.6L33.2 46C32.8004 46.0267 32.3996 46.0267 32 46H31.4C31.1907 45.9656 30.9881 45.8981 30.8 45.8L30.4 45.5C30.2044 45.4207 30.004 45.3539 29.8 45.3C29.3496 45.1392 28.9145 44.9384 28.5 44.7L28.3 44.5H28.1L27.9 44.3H27.7H27.6L27.3 44.2H27L26.7 44.1L25.7 43.9H24.7L24.4 43.8L23.4 43.3C23.0057 43.203 22.6045 43.1361 22.2 43.1C21.6372 42.9896 21.0966 42.7868 20.6 42.5L20.1 42.3L19.1 41.9L18.1 41.3L17.5 41.1L17.3 41H17H16.7L16.4 40.9C16.2277 40.8484 16.0603 40.7815 15.9 40.7L14.9 40.2C14.1356 40.1166 13.3644 40.1166 12.6 40.2L11.5 40.1C11.1352 40.0486 10.7681 40.0152 10.4 40C10.2001 39.99 9.99988 39.99 9.8 40H9.3C8.7173 40.0524 8.14496 40.1871 7.6 40.4L6.5 40.9C6.2 41 6 41.3 5.9 41.6C5.9 42.1 6.1 42 6.2 42.4L6.4 42.8V43L6.6 43.2L6.9 43.9L7.4 44.7L8.7 46.7L8.9 47L9.1 47.3C9.31398 47.521 9.51435 47.7547 9.7 48L9.9 48.2L10.5 48.6L10.7 48.8L11.2 49.2L11.6 49.5L11.8 49.6L12 49.8C13.2 50.7 14.5 51.4 15.8 52C18.6659 53.2374 21.6985 54.0461 24.8 54.4L26 54.5L27.1 54.6L28.3 54.7H31.7L32.2 54.6H32.7L33.2 54.4V54.3L33.8 54.1L34.4 54H34L35 53.6C35.3 53.6 35.6 53.4 36 53.2L35.6 53.4L36.1 53.1L36.5 52.9L36.9 52.6L37.7 52.3L39.9 50.8C39.9 50.8 40.3 50.5 40 50.8C40.9723 50.0613 41.9731 49.3608 43 48.7C44 48.1 44.8 47.3 45.6 46.5C46.3083 46.021 46.9772 45.4859 47.6 44.9L48.4 43.9L48.8 43.4L49.1 43.2L49.4 42.8H49.2L49.8 42.2L50.3 41.5L50.8 40.7L51.2 40V40.1L51.4 39.7L51.6 39.4L52.3 37.8C52.5192 37.3887 52.6871 36.9521 52.8 36.5L53 36L53.6 33.8V33.2L53.7 32.7V32V31.5L53.8 30.6V28L53.7 24.3C53.414 21.617 52.7403 18.9896 51.7 16.5L51.5 15.9L51.1 15.3C51.1 15.1 49.8 13.3 49.5 13.2L48.9 12.5C47.7429 11.4095 46.5062 10.4067 45.2 9.49999C43.6 8.49999 42.7 7.69999 40.5 6.89999L40.2 6.79999L39.3 6.49999L38.3 6.19999C37.7 6.19999 36.9 5.89999 37.7 5.49999H39L40.7 6.09999L42.7 7.09999L43.4 7.39999L44.1 7.89999L44.9 8.29999L45.9 8.89999L46.2 9.09999L46.8 9.59999L47.3 9.99999L47.8 10.4C48.3 10.6 47.4 9.79999 48.2 10.4L48.9 11.1L49.2 11.4L50.6 12.8C50.6 13 50.8 13.1 50.9 13.3L51 13.5C51.3 13.3 51.8 14.4 51.8 14.4C52.3578 15.1625 52.7962 16.0055 53.1 16.9V17.1L53.3 17.5L53.4 17.7V17.8L53.7 18.2C54.0039 19.4921 54.2707 20.7926 54.5 22.1L54.8 24.6C55.1 26.5 55 26.1 55 28.4L54.9 30.6C54.9 30.6 54.9 30.5 54.9 30.6V30.8V30.7ZM35 43.9V43.2V43L34.8 42.8L33.8 42.4L33 42L32 41.7C31.8 41.7 31.7 41.4 31.6 41.4L31.4 41.2V41L31.1 40.8L30.6 40.6L29.6 40.2L28.7 39.9H28.4C28.4 39.7 28.2 39.7 28.1 39.6L27.9 39.4C27.9 39.4 27.8 39.1 27.5 39.4C27.3 39.4 27.5 40.4 27.2 40.6L27 41.1V41.2L26.9 41.3V41.6L27.3 42.6L27.9 43.3V43.4H28L28.2 43.6L28.7 43.9L29 44.2L29.2 44.4H29.4L31.4 45.1C31.4893 45.1595 31.5929 45.1941 31.7 45.2H32.2C32.8712 45.1913 33.5404 45.1244 34.2 45L34.5 44.7L34.8 44.3L35.1 43.9H35ZM39.2 38.9V38.8L39 38.7H38.8H38.6H38.5L38 38.4L37 37.9H36.7L36.6 37.8H36.2H35.9L34.8 37.6L33.7 37.4C33.3 37.4 33 37.2 32.6 37.1L31.6 36.7L31 36.4V36.2L31.1 36L30.9 35.9L30.6 35.6L30.2 35.4H29.9L29.6 35.2H29.4L29.1 34.8L28.9 34.6V34.4L28.5 34.8L28.3 35.1C28.1462 35.3433 28.0441 35.6156 28 35.9V36.5L28.1 36.7V37L27.8 37.5V38.5V39L28.1 39.1L28.4 39.2L29.4 39.6C29.8456 39.6895 30.2811 39.8235 30.7 40H31L31.5 40.2L32.5 40.9L33.5 41.4L33.9 41.5L34.5 41.7L35.5 41.9H37.7L38.2 41.7L38.6 41.3H38.7L38.8 41.2L39 41V40L39.1 39.5V38.9H39.2ZM31 7.19999L31.4 6.79999V6.29999V5.79999C31.2 6.09999 31.1 6.39999 31.1 6.79999L31 7.19999Z" fill="#1F6E93"/>
</svg>
