<svg width="60" height="60" viewBox="0 0 60 60" fill="none" xmlns="http://www.w3.org/2000/svg">
<path fill-rule="evenodd" clip-rule="evenodd" d="M35.4 45.2001C33.3609 44.5827 31.219 44.3787 29.1 44.6001C27.9 44.6001 26.7 44.8001 25.4 45.0001C24.7 45.0001 23.4 45.0001 23.1 44.2001C22.6 43.6001 22.6 42.8001 23.1 42.2001C23.8 41.2001 25.1 41.0001 26.1 41.2001C27.6 41.4001 28.2 42.0001 29.8 42.2001C29.9 42.2001 31.7 42.4001 32.2 41.4001C32.7 40.4001 32.8 39.3001 32.2 38.4001C32 38.1001 31.8 38.0001 31.5 38.1001C31.7 38.8001 31.5 39.5001 31.3 40.1001C31.1663 40.3492 30.9813 40.5671 30.7572 40.7395C30.5331 40.9119 30.2751 41.0348 30 41.1001C29.5 41.1001 29.2 41.1001 28.9 40.9001L26 40.4001C24.2 40.4001 22.4 41.0001 21.6 42.8001C21.2 43.6001 21.2 44.4001 21.4 45.1001C22.1 45.8001 22.7 46.4001 23.7 46.5001C24.9 46.8001 26.2 46.5001 27.4 46.2001C29.1 45.9001 30.9 45.7001 32.6 45.9001C37.2 46.6001 37.7 49.8001 37.2 50.9001C37.2 51.4001 37 51.9001 36.7 52.4001C35.7 53.9001 33.7 54.2001 32.1 54.4001C30.1 54.5001 26.7 54.6001 24.8 54.2001C22.5724 53.6823 20.4444 52.804 18.5 51.6001C17.5 51.0001 17 50.4001 17 49.2001V44.9001C17.8 44.3001 18.3 43.6001 18.6 42.9001C19 41.9001 19.1 40.6001 18.6 39.6001C18 38.5001 16.9 37.8001 15.7 38.4001C15.2297 38.6911 14.8491 39.1064 14.6 39.6001C13.3 40.9001 12.6 43.2001 13.8 44.7001C14.2 45.2001 14.6 45.4001 15.1 45.5001C15.4 45.3001 15.6 45.4001 15.6 45.6001L15.7 47.2001C15.7 48.3001 15.8 49.5001 16.2 50.6001C16.6 51.8001 18.2 53.3001 19.9 54.1001C24.5256 55.5171 29.3947 55.9597 34.2 55.4001C35.4655 55.2566 36.6369 54.6621 37.5 53.7256C38.3631 52.7891 38.8601 51.5731 38.9 50.3001C38.9 48.2001 37.3 45.9001 35.4 45.2001ZM16.4 44.0001C16 44.3001 15.6 44.3001 15.3 44.0001C15 44.2001 14.8 44.1001 14.8 43.9001L14.5 43.7001C14.2 43.5001 14.4 43.2001 14.6 42.9001C14.6 42.3001 14.6 41.7001 14.9 41.2001C15.1265 40.7976 15.4429 40.4528 15.8245 40.1927C16.2061 39.9325 16.6426 39.7639 17.1 39.7001C18.5 39.7001 18 41.5001 17.7 42.3001C17.4 42.9001 17.1 43.7001 16.4 44.0001ZM29.2 10.4001C28.9 10.1001 28.4 9.90011 28 10.0001C27.5 8.40011 26.6 6.90011 25 6.50011C22.9 6.10011 20.6 7.30011 19.2 8.70011C17.7402 10.1278 16.8815 12.0598 16.8 14.1001C16.8 16.6001 17.5 19.3001 18.7 21.6001C20.1 24.4001 23.4 29.1001 25.4 31.1001C26.3 31.9001 27.3 30.7001 26.8 29.8001C25.4 27.3001 22.3 23.3001 21 20.8001C19.9 18.5001 18.3 15.8001 18.6 13.3001C18.7143 12.3681 19.0571 11.4788 19.5979 10.7112C20.1388 9.94355 20.8608 9.32143 21.7 8.90011C22.4047 8.41634 23.2458 8.17103 24.1 8.20011C25.6 8.20011 26.4 9.50011 27.1 10.8001V10.9001L26.6 11.6001C26.3 12.7001 26.5 14.1001 27.5 14.6001C28.9 15.4001 30 13.6001 30 12.4001C30 11.7001 29.8 10.9001 29.2 10.4001ZM48.6 11.7001C48.6 10.6001 48.3 9.40011 47.6 8.50011C45.9 6.80011 42.8 6.60011 40.6 6.80011C39.5479 6.88209 38.5244 7.18229 37.5947 7.68158C36.665 8.18087 35.8494 8.8683 35.2 9.70011C34.8 9.40011 34.2 9.20011 33.8 9.30011C33 9.30011 32.3 9.90011 32.4 10.7001C32.4 11.0001 32.6 11.4001 32.8 11.7001C33.3 12.8001 34.5 13.7001 35.7 13.4001C37.8 12.9001 36.1 10.0001 36.1 9.90011C36.1 9.90011 36.1 9.70011 36.3 9.70011L37.4 8.90011C38 8.50011 38.5 8.30011 39.1 8.20011C40.4 7.70011 42.1 7.70011 43.3 8.20011C44.5 8.60011 45.7 9.00011 46.3 10.1001C46.5 10.4001 46.7 10.7001 46.7 11.1001C47 11.8001 46.9 12.7001 46.8 13.5001C46.8 14.5001 46.4 15.5001 45.9 16.4001C44.9 18.1001 43.7 19.4001 42.9 21.2001C42.5 22.2001 43.9 22.7001 44.3 21.7001C45.4 19.7001 47.2 17.9001 48 15.7001C48.5 14.4001 48.6 13.0001 48.6 11.7001Z" fill="#F8DA69"/>
<path fill-rule="evenodd" clip-rule="evenodd" d="M14.7 49.5C14.3272 49.1735 13.9605 48.8401 13.6 48.5C12.5 47.7 11.7 46.9 11 46C10.2348 45.0238 9.50107 44.0233 8.80001 43C9.00001 43.3 8.80001 42.9 8.80001 43C7.53942 41.0699 6.53122 38.9863 5.80001 36.8L5.50001 35.4L5.30001 34.4V34C5.20001 33.2 4.70001 30.4 6.10001 21.5C6.40001 19.9 7.10001 18.4 7.90001 16.9C8.60001 15.5 9.50001 14.2 10.6 13.1L10.8 13L11.4 12.3L12.1 11.6L12.6 11.2C12.7 11.1 13.1 10.8 12.8 11.1L13.7 10.4L14.3 10C15.1 9.6 15.9 9.1 16.8 8.8C16.8 8.5 18.5 7.8 18.9 7.5H19V7.2H18.8L18 7.4L16.9 7.8L15.9 8.2L15.1 8.6L13.8 9.3C13.5 9.4 13.2 9.5 12.6 10.1L11.9 10.5L10.9 11.5C10.9 11.4 10.1 12.2 10.4 11.8L8.40001 14.2C7.78439 15.1715 7.21704 16.1727 6.70001 17.2L5.90001 19.3L5.80001 19.7L5.50001 20.4L5.40001 20.8V20.4L5.60001 20.1V19.9C5.00001 21.3 4.90001 22.5 4.60001 23.9C4.70001 23.5 4.80001 22.9 4.80001 23.3L4.70001 23.9L4.50001 24.6V24.3L4.40001 25.3L4.20001 26.3L4.30001 26C4.22224 26.799 4.15557 27.5991 4.10001 28.4C4.10001 28.9 4.20001 27.5 4.10001 28.6V33.2C3.90001 33.2 4.30001 35.2 4.30001 35.4L4.80001 37.4L5.80001 39.4C5.90001 39.9 6.10001 40.4 6.50001 40.9V41.1L6.30001 40.7L7.00001 41.8L7.40001 42.6L7.60001 43L7.80001 43.4C8.15717 43.8492 8.49095 44.3165 8.80001 44.8C9.27954 45.4168 9.77983 46.0171 10.3 46.6C9.90001 46.3 10.7 47.2 10.3 47L10.8 47.4L11.4 48L12.5 49L13.1 49.6L13.8 50.1L14.1 50.4C14.2664 50.5004 14.4331 50.6004 14.6 50.7C14.8 50.9 15.1 50.7 15.1 50.5V50C15.1 49.8 14.9 49.6 14.7 49.4V49.5ZM55.7 27.7C55.2 24.3 53.9 22.7 54.1 22.7L54 22.5L53.6 21.8L53.2 21.2C52.7 20.3 51.2 18.3 51.1 18.2C50.9 17.9 49.6 16.8 49.3 17.2C49 17.7 49.4 17.9 49.8 18.3L51.2 19.8L51.3 20L51.7 20.5L52.3 21.4L52.9 22.4L53 22.7C53 22.5 54.3 25.2 54.7 27.1C55.1 29.1 54.9 31.9 54.9 32.1V32.6L54.7 33.6L54.6 33.9V34.4L54.4 34.8L54.2 35.6L54 36.4L53.7 37.2V37.5L53.5 37.9L53.2 38.6L52.9 39.3L52.6 39.9L51.9 41.3C50.8038 43.2035 49.4586 44.9522 47.9 46.5L47.3 47L47 47.3L46.7 47.6C46.165 47.9978 45.6317 48.3978 45.1 48.8L44.1 49.5L42.9 50.2L42.3 50.5V50.6C42 50.9 41.6 51 41.3 51.2C41 51.2 40.8 51.4 40.6 51.5H40.4L40.2 51.7C39.8 51.9 39.3 52.3 39.2 52.7L39.3 52.9L40.7 52.6L42.4 51.7L43.6 51L44.8 50.2L46.6 48.9L47.2 48.4L47.8 47.9L48.5 47.2L49 46.6L49.8 45.9L50.8 44.6L51.1 44.3L51.4 43.9L52 43L53.5 40.1L53.2 40.4L53.7 39.4L54.1 38.4L54.7 36.7C55.1 35.1 55.8 33 55.7 27.7ZM48.8 12.2C48.8 11.5 48.6 10.7 48.1 10L46.8 8.5C46.6325 8.30069 46.4658 8.10069 46.3 7.9L46.2 7.8L45.9 7.6L45.5 7.4L44 6.8L42.8 6.5H42.7L41.9 6.4H41.5C40.419 6.36613 39.3394 6.50109 38.3 6.8L37.2 7.5H37L36.5 7.9L35 9.1L34.8 8.9V8.8C34.4 8.4 34.1 8.1 33.6 7.9C33.2 7.8 31.6 8.1 32.4 9.7L32.7 10.5L33 11.1C33.2 11.5 34 12.7 34.3 12.9C35.4 13.5 35.6 13.2 35.8 13.1L36 12.7C36 12.3 36.2 11.7 36.1 11.2C35.9 10.2 35.5 9.8 35.4 9.5L37.3 8.3L37.8 8.1C39.0452 7.48089 40.41 7.13969 41.8 7.1C42.4 7.2 43.1 7.2 43.6 7.4C46.6 8.6 47.3 10.2 47.5 10.4L47.8 11.4L47.9 11.7C47.9743 12.3646 47.9743 13.0354 47.9 13.7L47.4 14.7L46.9 15.7C46.7 16.3 43.1 21.8 42.3 23L42.1 23.1L42.3 23.2L43 23.6H43.1C44.1144 22.1432 45.1145 20.6765 46.1 19.2L46.5 18.8C47.2075 17.8297 47.7483 16.7482 48.1 15.6C48.6 14.4 48.9 13.3 48.8 12.2ZM35.2 12.2C34.6 12.8 33.8 11.2 33.7 11C33.4 10.5 32.8 9.2 33.1 8.7C33.8 7.7 34.7 9.7 35 10.2C35.2 10.6 35.8 11.7 35.2 12.2Z" fill="#1D6C93"/>
<path fill-rule="evenodd" clip-rule="evenodd" d="M42.6 24.2001L41.7 23.7001H41.5C41.3142 23.8464 41.1463 24.0143 41 24.2001L40.5 24.7001L38.4 26.7001L36.8 28.5001L36.7 28.6001L35.7 29.8001L35.3 30.4001L34.7 31.2001L33.7 32.2001L33 33.2001L31.9 34.7001L31.6 34.9001C31.6 34.9001 31.4 34.9001 31.3 34.7001C30.1906 33.6385 29.1549 32.5025 28.2 31.3001C28.2 31.3001 27.9 31.0001 27.5 31.3001C26.9 31.8001 27.2 32.2001 27.4 32.4001V32.5001L27.9 33.2001L28.2 33.5001C28.4263 33.7095 28.6276 33.9444 28.8 34.2001L29.1 34.5001L30.3 35.8001L30.6 36.1001C30.9149 36.5446 31.2845 36.9477 31.7 37.3001H32.2L34.5 34.3001L34.8 33.8001L35.8 32.5001L36.4 31.9001V31.7001H36.5C38.3416 29.0532 40.4165 26.5767 42.7 24.3001V24.2001H42.6Z" fill="#E66C55"/>
<path fill-rule="evenodd" clip-rule="evenodd" d="M39.4 48.8001C39.2 48.2001 38.8 47.6001 38.5 47.1001C38.5 47.0001 38.2 46.6001 37.8 46.5001L37 46.0001C36.26 45.6085 35.4911 45.2742 34.7 45.0001L34 44.8001L32.4 44.3001H32L30.4 43.9001C29.6 43.9001 28.7 43.9001 27.8 44.2001L26 44.6001L25.3 44.7001L24.4 44.8001C24.3 44.8001 24.2 44.9001 24 44.8001H23.4C22.8 44.7001 22.4 44.4001 22.1 43.9001C21.9 43.5001 22 42.9001 22.3 42.3001C22.7 41.7001 23.3 41.3001 23.8 41.0001L25.1 40.6001H25.5C26.1 40.6001 27.9 40.7001 28.1 40.9001H28.2L28.7 41.2001L28.9 41.4001L29.5 41.7001H29.7C30 41.9001 31 42.0001 31 42.0001H31.3C31.4 42.0001 31.6 41.9001 31.7 42.0001C31.7 42.0001 32.9 42.1001 33.1 38.4001C33.1 38.1001 32.8 37.9001 32.5 38.0001C32.3 38.2001 32.2 38.2001 32.1 38.1001C31.8 38.1001 32.1 39.6001 32.1 39.7001C31.9 40.6001 31.7 41.1001 31.6 41.1001C30.6 41.4001 29.6 41.2001 28.9 40.5001C28.4 40.0001 27.9 39.9001 27.2 39.8001H24.4L23.6 40.2001L22.9 40.6001L22.7 40.8001C22 41.4001 21.3 41.9001 21.2 43.0001C21.2 43.4001 21.2 44.0001 21.5 44.5001C21.8 45.0001 22.3 45.2001 22.7 45.5001L23.8 45.6001L26 45.4001L27 45.2001C27.5 45.0001 28 44.9001 28.6 44.9001H28.9C28.9 44.9001 30.2 44.6001 30.9 44.8001L33.1 45.4001C34.2245 45.8247 35.3581 46.2248 36.5 46.6001L36.7 46.8001L37 47.0001C37.7 47.3001 38 47.7001 38.2 48.2001L38.4 48.6001C38.8 49.1001 38.9 49.6001 38.9 50.1001C38.8 50.7001 38.5 51.2001 37.9 51.8001L37.4 52.3001C37.5 52.3001 36 53.4001 35.2 53.6001C32.1612 54.3648 29.0032 54.5346 25.9 54.1001C23.2 53.7001 21.5 53.0001 21.5 53.0001L20.8 52.7001L19.8 52.4001L19.1 52.0001L17.8 50.9001C17.5 50.6001 17.4 50.1001 17.4 49.7001V49.4001C17.2 48.6001 17.1 47.6001 17.3 46.7001C17.3 46.5001 17.3 46.4001 17.5 46.4001C18.149 46.1242 18.6801 45.6285 19 45.0001L19.5 44.0001L19.8 43.4001C20.1 42.8001 20.2 42.1001 20.2 41.2001C20.2 40.3001 19.8 39.6001 19.2 39.2001C18.1 38.4001 17 38.8001 16.1 39.2001C15.1 39.5001 14.6 40.3001 14.4 41.4001V42.7001C14.2 43.4001 14.6 44.5001 14.6 44.6001L15 45.3001L15.2 45.7001C15.4 46.2001 15.8 46.4001 16.4 46.5001L16.6 46.7001V48.4001L16.7 49.6001L16.9 50.3001L17 50.9001L17.5 51.6001L17.9 51.9001C18.2 52.1001 20.5 53.9001 21.6 54.0001C22.7345 54.4136 23.9068 54.715 25.1 54.9001H24.9L26.1 55.0001H26.6L27.1 55.1001C27.6999 55.089 28.3 55.089 28.9 55.1001H30L30.8 55.0001H31.4H32.4L34 54.6001H34.5L36 54.0001L36.4 53.8001H36.6L38 52.8001L38.2 52.6001C38.7 52.1001 39.2 51.6001 39.4 51.0001C39.7 50.2001 39.7 49.4001 39.4 48.7001V48.8001ZM16.6 45.4001C16.6 45.4001 16.1 45.3001 16.1 45.1001C15.7 44.7001 15.4 44.4001 15.3 43.9001C15.3 43.9001 15.3 42.8001 15.5 41.9001C15.9 40.5001 17.7 39.0001 18.7 40.1001C20 41.5001 19.2 44.2001 17.7 45.1001L16.6 45.4001ZM19.7 21.0001C20.4516 22.4794 21.2862 23.915 22.2 25.3001L23 26.5001L23.4 27.0001L23.6 27.4001L24.2 28.2001C24.5457 28.6828 24.9127 29.1499 25.3 29.6001L25.5 29.9001L26 30.5001L26.6 31.2001L26.7 31.3001H26.8L27.2 31.0001H27.3V30.8001L26.8 30.1001L26.2 29.4001C25.8 29.0001 25.4 28.6001 25.2 28.2001L22.2 24.0001L21 21.8001L20.8 21.3001L20.7 21.1001L19.5 18.7001C19.3 18.1001 19.1 17.6001 19.1 17.0001C18.9705 15.4271 19.0716 13.8437 19.4 12.3001C20.4 8.30005 23.8 7.10005 23.9 7.10005C24.4 7.00005 24.9 7.20005 25.2 7.50005C26.0566 7.93529 26.7815 8.59117 27.3 9.40005C27.5 9.60005 27.6 9.80005 27.5 10.1001C27.5 10.1001 26.4 12.9001 27.5 14.1001H27.7C27.8 14.3001 28 14.4001 28.3 14.5001C29.3 14.6001 29.8 12.6001 30.1 11.4001V11.1001C30.2119 10.4381 30.2119 9.76202 30.1 9.10005V8.80005C30.1 8.40005 30 8.10005 29.8 8.00005C29.6 7.90005 29.3 7.90005 29 8.00005L28.3 8.60005L28.1 8.80005L28 8.90005C27.6568 8.47441 27.3234 8.04097 27 7.60005C26.6 7.20005 25 4.90005 21.8 6.60005C21.2 6.90005 19.5 9.00005 19.4 9.30005L19 10.1001L18.8 10.6001C18.5 11.1001 17.9 13.3001 17.9 13.8001C17.9 18.3001 18.9 19.8001 19.4 20.6001L19.6 21.0001H19.7ZM29.2 9.00005L29.4 9.40005C29.4 10.4001 29.1 13.3001 28.4 13.4001C28.2 13.1001 27.8 12.9001 27.9 11.8001C27.9 11.6001 28.3 9.20005 29.2 9.10005" fill="#1D6C93"/>
<path fill-rule="evenodd" clip-rule="evenodd" d="M35.9 21.1001L35.5 20.9001H34.1L32.8 21.0001C32.7 19.9001 32.4 18.8001 32 18.0001C32 17.8001 31.8 17.7001 31.6 17.7001C31.3 17.8001 31.1 18.1001 31.2 18.3001L31.7 21.1001H30L28.5 21.2001C28.2 21.2001 28 21.5001 28 21.8001C28 22.0001 28.2 22.2001 28.4 22.2001C29.5669 22.1756 30.7336 22.1423 31.9 22.1001V23.0001C31.9 24.0001 31.9 24.2001 32.2 25.3001L32.5 25.5001H32.6C32.9 25.5001 33.2 25.0001 33.1 24.7001C32.8 23.7001 32.8 23.4001 32.9 22.7001V22.1001C33.9038 21.997 34.9043 21.8636 35.9 21.7001C36.1 21.5001 36.1 21.3001 35.9 21.1001Z" fill="#1D6C93"/>
</svg>
