<svg width="115" height="72" viewBox="0 0 115 72" fill="none" xmlns="http://www.w3.org/2000/svg">
<g clip-path="url(#clip0)">
<path fill-rule="evenodd" clip-rule="evenodd" d="M92 63.072V64.224L90.7455 65.664L88.9333 66.672L84.0545 69.12L81.7545 71.28L80.5697 71.496C78.7576 70.632 76.6667 69.984 74.7849 70.344L72.1364 69.624L70.1848 69.192C69.7859 69.1142 69.3906 69.0181 69 68.904C69.2788 68.616 69.5576 68.184 69.697 67.824L69.6273 67.68L69.8364 67.248C41.1212 70.488 30.3879 65.376 28.2273 64.512C27.1248 64.0933 26.1501 63.3791 25.4029 62.4429C24.6558 61.5066 24.1633 60.3818 23.9758 59.184C11.1515 62.784 4.18182 60.696 2.09091 58.32C1.23491 57.3371 0.61277 56.1615 0.273981 54.8865C-0.0648071 53.6116 -0.110892 52.2726 0.139392 50.976C1.11515 46.368 5.01818 42.48 8.92121 40.032C15.7515 35.712 23.7667 34.272 31.7121 33.768V31.752V31.032C31.5727 30.168 31.5727 29.592 31.7121 29.088C31.8515 28.656 32.0606 28.368 32.2697 28.368L36.6606 27.072C40.9121 26.712 45.0242 25.2 49.0667 23.976C49.2758 23.904 49.3455 23.832 49.3455 23.688L50.7394 23.328C52.9 22.752 55.0606 21.888 57.2909 21.6L57.7788 21.672C58.6152 22.176 59.5909 22.32 60.5667 22.248L63.6333 22.824V23.04C65.3061 23.688 67.1182 23.688 68.9303 23.544L73.6697 23.76L77.5727 24.48C77.9212 25.2 78.6182 25.56 78.6182 26.496L79.1061 29.808L78.6879 32.4C83.9848 32.256 89.2818 32.328 94.5091 32.904C96.8091 33.192 99.1091 33.552 101.409 34.056C103.779 34.56 106.218 35.136 108.379 36.36C113.048 38.952 116.464 44.424 114.094 49.896C112.7 52.92 106.776 58.824 92.0697 63.072H92Z" fill="#F2C4C4"/>
<path fill-rule="evenodd" clip-rule="evenodd" d="M77.0848 40.7521L76.6666 37.1521L76.806 34.1281C76.806 34.1281 76.6666 31.3201 76.806 30.8161L76.597 30.4561L75.4121 30.8881C74.4237 31.3814 73.3981 31.7908 72.3454 32.1121L71.3697 32.6881C70.1151 33.1921 69.1394 33.9121 68.0242 34.5601C67.1879 35.0641 66.1424 35.7841 65.0969 36.0001C64.8879 36.5761 64.8182 37.7281 64.8182 37.7281C64.8879 37.8721 64.9576 39.3841 64.8182 39.8881C65.1666 40.3201 65.0273 40.8241 65.0273 41.3281C65.097 41.5441 65.4454 43.2721 65.3757 43.9201C65.5848 44.4961 65.5848 44.7841 65.4454 45.3601C65.7939 45.8641 65.0273 47.0161 65.5848 47.0881L66.7697 46.8001C67.3273 46.7281 67.5363 46.5841 68.5818 46.0801L70.6727 44.9281C70.4636 44.9281 71.4394 44.3521 71.7879 44.2081L72.8333 43.7761L73.5303 43.4881L74.7848 42.9841C75.6212 42.6241 76.5969 42.4081 77.4333 41.9041C77.503 41.5441 77.0848 40.7521 77.0848 40.7521ZM40.703 55.944C40.9818 56.5201 41.2606 57.0961 41.4 57.6721C41.5394 57.8881 41.5394 58.1041 41.5394 58.392L41.2606 59.7601C41.2606 60.0481 41.1212 60.3361 40.8424 60.552L40.5636 60.984L40.2848 61.4161C39.7969 62.1361 39.1697 62.7121 38.3333 62.8561H38.1939C37.6363 63.1441 37.1485 63.0721 36.6606 63C36.103 63 35.6848 62.6401 35.2666 62.2801C34.9954 62.0792 34.7683 61.8215 34.6001 61.5237C34.4319 61.2259 34.3266 60.8948 34.2909 60.552L34.2212 59.6881C34.1515 59.4721 34.2212 59.2561 34.2909 58.9681L34.5697 58.3201L34.8485 57.4561C34.9879 57.0241 35.2666 56.7361 35.5454 56.5201C36.0595 56.1124 36.6216 55.7737 37.2182 55.5121C36.7303 55.3681 36.5212 55.1521 36.3121 54.504C35.5454 52.92 35.5454 51.264 35.6151 49.4641L36.103 43.6321L36.4515 37.7281C36.5212 35.7841 36.103 33.9121 35.6848 31.9681C35.406 30.7441 36.9394 30.0241 37.706 30.7441C44.8151 31.9681 51.8545 33.4801 59.0333 34.5601C59.4515 34.6321 59.7303 34.8481 59.8697 35.1361C60.4273 35.4241 60.706 36.0721 60.8454 36.7201L61.3333 40.3201C61.5424 42.7681 61.5424 45.2881 61.403 47.8081C61.1939 52.8481 60.6363 58.032 61.0545 63.1441C61.1242 64.296 59.9394 64.656 59.103 64.224C58.9417 64.2537 58.7765 64.2537 58.6151 64.224C54.4333 63.504 46.4182 60.4801 42.306 59.3281C41.8879 59.1841 42.8636 58.3201 41.8879 57.312C41.4 56.6641 41.1909 56.232 40.703 55.944ZM68.8606 65.16L68.5818 66.6001C68.5818 66.9601 68.4424 67.176 68.1636 67.392L67.8848 67.824L67.606 68.2561C67.1182 68.9761 66.4909 69.5521 65.6545 69.6961L65.5151 69.7681C64.9576 69.9841 64.4697 69.9121 63.9818 69.84C63.4242 69.84 63.006 69.48 62.5879 69.1921C62.3082 68.9835 62.076 68.7143 61.9075 68.4034C61.7389 68.0925 61.6381 67.7474 61.6121 67.392L61.5424 66.6001C61.4727 66.312 61.5424 66.0961 61.6121 65.8801L61.8909 65.16L62.1697 64.2961C62.3091 63.8641 62.5879 63.576 62.8666 63.3601L64.0515 62.6401C64.7485 62.2081 65.4454 62.1361 66.1424 61.9201C66.6303 61.9201 67.1879 62.0641 67.5363 62.3521L67.9545 62.7121L68.7909 64.5121L68.8606 65.232" fill="white"/>
<path fill-rule="evenodd" clip-rule="evenodd" d="M37.1485 50.688C37.497 50.688 37.8454 50.544 38.1242 50.472H38.4727C38.9606 50.328 39.5182 50.184 40.006 50.256C39.8667 51.912 39.8667 53.856 41.1909 53.208C42.0273 52.848 42.5848 51.48 42.9333 50.76L43.7 49.32L44.7454 48.168L45.0242 47.952C45.4915 47.7668 45.9562 47.5748 46.4182 47.376L46.3485 47.592L45.5818 48.96V49.176L44.7454 50.544C44.4666 50.976 45.1636 52.992 45.7212 52.632C46.5576 51.912 47.1151 49.896 47.6727 49.032C47.8121 48.96 47.9515 49.032 48.0212 49.104C48.1939 49.6606 48.3798 50.2128 48.5788 50.76V51.84C48.6485 52.272 48.2303 52.848 48.1606 53.28L47.3939 56.736C47.3939 57.168 48.0909 58.176 48.3697 57.888C49.0667 57.312 50.4606 54.144 50.8091 53.352C50.8091 53.28 50.8788 53.208 51.0182 53.208C52.4121 53.424 53.9454 53.352 55.4091 53.208C55.897 53.208 56.2454 52.344 55.7576 52.128L55.4788 52.056C55.4788 51.84 55.4788 51.696 55.2697 51.624L51.0879 49.824L51.0182 49.752C50.8788 49.176 50.6 48.672 50.3212 48.024L50.2515 47.736L53.2485 47.952C53.597 47.952 53.806 47.736 53.806 47.448C54.1545 47.304 54.2939 46.8 53.9454 46.584C53.5394 46.3437 53.1206 46.1274 52.6909 45.936C52.0636 45.648 52.9 45.216 53.806 44.856H53.8757C55.7576 45.144 57.6394 45.72 59.6606 45.504C60.0788 45.504 60.3576 44.928 60.1485 44.568C59.9394 44.064 59.5909 43.704 59.0333 43.416C58.7545 43.272 57.9879 43.2 57.3606 43.056L58.2667 42.768C58.6151 42.552 58.8242 42.336 58.9636 42.048C59.103 41.472 58.9636 40.968 58.4757 40.752C57.6394 40.464 56.3151 41.688 55.6879 41.256C55.4788 41.112 55.897 39.096 55.8273 38.664C55.8273 38.376 55.5485 38.304 55.3394 38.304C55.2697 38.16 55.1303 38.16 55.0606 38.304C53.7628 39.8813 52.5304 41.5148 51.3667 43.2C51.3667 43.128 51.1576 43.056 51.0879 43.2L50.8788 43.272H50.7394L50.8091 43.2C51.0835 42.4151 51.1319 41.5648 50.9485 40.752C50.8788 40.248 50.2515 40.248 50.0424 40.608L49.6242 41.184H49.4848C49.0667 41.544 49.2757 39.24 49.4848 38.736C49.7636 38.376 49.9727 38.52 50.2515 37.296C50.5303 36 49.206 36 48.997 36.072C48.4045 36.2977 47.8601 36.64 47.3939 37.08H47.1848L46.4879 37.8C46 36.576 45.2333 35.136 44.1879 35.28C44.0585 35.3014 43.9375 35.36 43.8389 35.4491C43.7403 35.5383 43.668 35.6544 43.6303 35.784C43.4212 36.36 43.6303 37.224 44.0485 37.944C44.0485 38.088 43.9788 38.232 43.8394 38.16H40.3545C40.0757 38.16 39.797 38.52 39.797 38.808C39.797 40.104 41.8879 40.248 42.8636 40.608L44.9545 41.256L45.0242 41.472C45.3727 41.904 45.7212 42.336 45.8606 42.84L45.7909 43.056C45.6515 43.272 45.3727 43.344 45.0939 43.416C44.1182 43.2 43.2121 43.2 42.306 43.2C41.9576 43.2 41.8182 43.704 42.1667 43.776C41.9576 44.064 41.8879 44.64 42.2363 44.784L42.8636 45C43.003 45.072 43.003 45.288 42.8636 45.36C42.5366 45.4231 42.2112 45.4951 41.8879 45.576L38.6818 44.856C38.3333 44.784 38.0545 44.928 37.9848 45.216C37.8454 45.216 37.7757 45.432 37.8454 45.576C37.9848 45.936 38.3333 46.224 38.5424 46.512L39.2394 47.088C38.3333 47.448 37.2879 47.88 37.0788 48.6L36.3818 49.32C36.1727 49.536 36.2424 49.824 36.3818 49.824L36.103 50.112C35.9636 50.112 35.8939 50.472 36.0333 50.616C36.3121 50.832 36.7303 50.76 37.1485 50.688Z" fill="#F2C4C4"/>
<path fill-rule="evenodd" clip-rule="evenodd" d="M41.6091 53.712C41.8182 53.712 42.0272 53.856 42.1666 54.072C42.1666 54.072 42.1666 54.216 42.306 54.288C42.6545 54.576 42.7939 54.936 42.8636 55.368L43.003 55.872L43.0727 56.16L43.3515 57.456V58.32C43.2121 58.896 43.2121 59.544 43.003 60.12H43.1424L44.1182 60.48C44.606 60.696 45.1636 60.768 45.6515 60.912L45.7909 60.984C47.0247 61.2118 48.2373 61.5491 49.4151 61.992H49.7636L50.1818 62.064L50.4606 62.136L50.8788 62.208L52.7606 62.64L54.3636 63.072C55.0606 63.288 55.7575 63.504 56.5242 63.576C57.5 63.72 58.4757 63.936 59.7303 64.296H59.9394L60.2879 63.72L60.4969 63.288C60.5666 62.928 60.7757 62.568 60.9848 62.28L61.1242 62.064L61.9606 61.344C62.3091 61.056 62.6575 60.768 63.006 60.624C63.5991 60.2424 64.2646 59.9969 64.9575 59.904C65.3757 59.904 65.7939 59.76 66.0727 59.832H66.3515C66.9091 59.76 67.4666 59.832 67.9545 60.12L68.8606 60.48C69.1394 60.48 69.3485 60.696 69.4182 60.912L69.5575 61.056C69.906 61.344 70.1151 61.776 70.1848 62.208L70.2545 62.64L70.3939 62.928L70.603 64.224V65.232L70.3939 66.672H70.7424C70.7424 66.816 70.7424 66.888 70.8818 66.888L71.2303 67.032L71.7182 67.248H71.9272L72.206 67.392C72.6242 67.392 73.0424 67.392 73.5303 67.536L75.0636 67.752L78.2697 68.544L79.3848 68.832L79.8727 69.12L80.6394 69.48H81.5454C81.6151 69.552 82.0333 66.528 82.0333 66.528C82.2424 65.376 82.2424 64.224 81.8939 63V62.856C81.8242 62.424 81.7545 62.136 81.406 61.776V61.56L81.1969 61.272L81.1272 59.976L80.9182 59.256C80.9182 58.392 80.5697 57.384 80.0121 56.736C79.4643 56.0446 78.9524 55.3236 78.4788 54.576L77.9909 53.712C77.5727 53.496 78.1303 53.568 74.5757 52.056L73.0424 51.552C72.6939 51.336 72.4151 51.12 71.9969 51.12C71.1935 50.5933 70.2906 50.2496 69.3485 50.112L67.2575 49.248C66.4212 48.888 66.4212 48.744 65.5848 48.456C65.5848 48.456 65.4454 48.456 65.3757 48.312L64.6788 47.952H64.4C64.1212 47.736 64.0515 47.736 63.8424 47.736H63.703V47.52L63.6333 47.232L63.5636 46.512L63.3545 44.352L63.2151 43.344L63.006 41.4V40.248L62.8666 39.168C62.8666 38.592 62.8666 38.016 62.7272 37.512V36.36V33.624C62.5879 33.768 62.7272 33.264 62.3788 33.12C62.4485 32.976 61.9606 33.12 61.9606 32.832L61.5424 32.76L60.1485 32.328C59.8697 32.328 59.5909 32.184 59.4515 32.328C59.1727 32.328 58.8939 32.328 58.6151 32.184L57.8485 32.04C57.1515 31.968 56.4545 31.896 55.8969 31.68H55.2C54.8515 31.68 54.503 31.536 54.0848 31.68C53.3878 31.752 52.6212 31.68 51.9939 31.536H51.7848L51.0879 31.392L50.3909 31.248C50.1818 31.248 49.903 31.248 49.6939 31.104C49.5545 31.104 49.4151 31.104 49.2757 30.96C48.7182 30.744 48.0909 30.672 47.3242 30.528H47.1848L46.7666 30.384H46.4182C45.7909 30.168 45.1636 30.024 44.4666 29.952C44.1182 29.952 43.7 29.952 43.2818 29.808H42.306C42.0969 29.808 41.8182 29.808 41.6091 29.664L39.5878 29.088C38.8909 28.872 37.9151 28.584 36.9394 28.512C36.4515 28.512 36.0333 28.368 35.5454 28.152C34.9878 27.864 34.4303 27.72 33.8727 27.576L33.5242 27.504C33.1757 27.432 33.0363 27.432 32.8272 27.792L32.6878 28.152C32.8483 30.1395 32.9181 32.1337 32.8969 34.128L32.6878 36.288C32.6878 37.152 32.9666 37.152 32.9666 38.016C32.9666 38.232 32.9666 39.24 32.8272 39.312V41.616L32.9666 42.12V42.696C33.106 43.416 33.106 44.064 32.9666 44.64V46.08L32.8272 47.304L32.7575 48.024L32.6878 49.68V53.928L32.8272 55.152V56.376L32.8969 57.096L33.0363 56.952L33.1757 56.52L33.6636 55.44L33.8727 55.296C34.0818 55.008 34.3606 54.792 34.7091 54.576L35.6848 53.784C36.2987 53.3926 36.989 53.1467 37.706 53.064C38.1242 53.064 38.4727 52.992 38.8212 53.064L39.0303 52.992L40.2151 53.064L40.2848 52.632C40.2848 52.56 40.2848 53.352 40.2848 52.632L40.8424 50.616V50.76C40.9037 50.4937 40.9735 50.2296 41.0515 49.968L41.1212 49.752V49.68L39.9363 50.112H40.0757L38.8909 50.472L38.6121 50.616C39.2682 50.3927 39.9189 50.1526 40.5636 49.896H40.8424L38.6121 50.616C37.9151 50.904 37.2182 49.968 37.5666 49.392L37.4272 49.752V49.68L37.5666 49.32C37.6439 49.2286 37.7388 49.155 37.8454 49.104C38.8906 48.6951 39.936 48.2871 40.9818 47.88C40.7996 47.9834 40.6136 48.0795 40.4242 48.168L40.7727 48.024L41.0515 47.88H41.1212L40.9818 47.808L40.6333 47.592L40.7727 47.664L40.4242 47.52L40.0757 47.304L39.2394 46.872H39.1697L38.6121 46.44L38.3333 46.152C38.3004 46.0344 38.3004 45.9096 38.3333 45.792V45.576H38.403V45.36L38.5424 45.288C38.7515 45.144 38.8909 45.072 39.1 45.072H38.8909C38.7217 45.1109 38.5726 45.2136 38.4727 45.36C38.4008 45.4485 38.3507 45.5536 38.3264 45.6664C38.3021 45.7792 38.3045 45.8964 38.3333 46.008C38.403 46.224 38.6121 46.296 38.6818 46.368C38.5424 46.224 38.5424 46.296 38.6818 46.368L39.0303 46.656L38.4727 46.224C38.3991 46.1359 38.353 46.0268 38.3406 45.9112C38.3281 45.7955 38.3499 45.6786 38.403 45.576L38.5424 45.288L38.9606 45.144H39.3091L39.6575 45.288H39.5878L40.1454 45.576L40.2848 45.648L41.3303 46.368C41.2606 46.224 42.4454 47.016 42.306 46.872L42.7242 47.088H42.8636H42.7242H42.5848L41.8878 46.656L42.1666 46.8L42.4454 47.016H42.5848L42.7939 47.16L44.0485 46.656L43.4909 46.872C43.2304 46.9535 42.9745 47.0496 42.7242 47.16L42.5151 47.088L42.306 46.944L42.5151 47.088L42.7242 47.16H42.9333L43.0727 47.088L43.4909 46.872H43.3515C43.5825 46.7727 43.8149 46.6767 44.0485 46.584C44.3272 46.584 44.3969 46.512 44.5363 46.44L45.2333 46.152H45.0939L45.8606 45.936H45.7909L45.6515 45.864H45.3727L44.9545 45.72H45.3727H45.0939H44.9545L44.7454 45.648L44.0485 45.432H44.2575H43.8394L43.5606 45.288L44.1879 45.504L43.4909 45.36C43.2121 45.288 43.003 45.216 42.8636 45.072C42.6545 44.712 42.8636 44.136 43.2818 44.136H43.2121L43.1424 44.208L43.4212 44.136H43.9091L44.1879 44.208L44.606 44.28L44.8848 44.352L46 44.64C46.0926 44.665 46.1856 44.689 46.2788 44.712C45.5818 44.568 46.9757 44.928 46 44.712C46.2757 44.7961 46.5547 44.8681 46.8363 44.928V44.784L46.6969 44.496L46.5575 44.064L46.6969 44.424L46.8363 44.784L46.6969 44.352L46.906 44.856V45H46.6969L46.4878 44.928L46.0697 44.784C45.8847 44.7322 45.6989 44.6842 45.5121 44.64L45.8606 44.712L46.2788 44.856L46.6272 45H46.7666C46.8363 45 46.7666 45 46.7666 45L46.6272 44.424L46.3485 43.704L45.7909 42.192L45.6515 41.76L45.5818 41.616V41.472H45.3727L45.0242 41.328L44.6757 41.184L43.2818 40.824H43.3515H43.2121L42.8636 40.752L41.2606 40.32L41.6091 40.464L40.9121 40.32C40.9121 40.32 41.2606 40.32 40.9121 40.32C40.9818 40.32 40.9818 40.32 40.9121 40.32L40.703 40.176C40.5744 40.0908 40.4764 39.9643 40.4242 39.816C40.3819 39.726 40.3581 39.628 40.3545 39.528V39.816H40.4242C40.4242 39.888 40.4242 39.816 40.4242 39.816V39.672C40.4242 39.6 40.4242 39.528 40.4242 39.672V39.888C40.4242 39.96 40.4939 40.032 40.4242 39.888C40.4939 39.96 40.4242 39.888 40.4242 39.744V39.6V39.24V39.096V39.384C40.4242 39.168 40.5636 39.024 40.703 38.952C40.8424 38.808 40.9818 38.808 41.1909 38.88L42.306 38.952L43.2818 39.168L43.7697 39.312L44.1879 39.456L44.7454 39.6V39.384L44.606 39.096L44.4666 38.736L43.9788 37.296L43.9091 36.936V36.792V36.648C44.0485 36.432 44.2575 36.216 44.4666 36.144L44.8151 36.072L45.0939 36.144L45.2333 36.288V36.432L45.4424 36.792L45.6515 37.296L45.8606 37.8L46.5575 39.456V39.672L46.6272 39.528L46.8363 39.24C47.0448 38.9036 47.2539 38.5676 47.4636 38.232C47.6727 37.8 47.9515 37.368 48.3 37.008L48.5788 36.792H48.8575C49.1363 36.792 49.2757 37.008 49.3454 37.224V37.584L49.2757 37.656L49.1363 37.872L48.3 39.312C47.9798 39.7957 47.6546 40.2757 47.3242 40.752L47.1848 40.824V40.896C47.1848 40.896 47.0454 40.968 47.1151 41.04L47.1848 41.328V41.04C47.3209 41.4731 47.4603 41.9051 47.603 42.336L48.3697 44.28C48.3697 44.352 48.3697 44.28 48.4394 44.28L48.5788 44.064L48.7182 43.776L48.9272 43.344L49.2757 42.624C49.8333 41.616 49.2757 42.696 49.3454 42.552L49.0666 43.2L48.9272 43.488L49.0666 43.2C49.2714 42.7063 49.5041 42.2254 49.7636 41.76L49.9727 41.544C50.0424 41.472 50.2515 41.4 50.4606 41.544C50.3768 41.4916 50.2796 41.4665 50.1818 41.472C50.3212 41.472 50.4606 41.472 50.5303 41.616C50.6697 41.76 50.6697 41.904 50.6 42.12C50.6 42.408 50.3909 42.696 50.3909 42.624L49.7636 43.704L49.2757 44.568V44.712C49.206 44.712 49.2757 44.712 49.2757 44.712L49.5545 44.568L50.1121 44.352L52.6212 43.416H52.6909V43.344L54.1545 39.96C54.3636 39.456 54.0151 40.32 54.1545 39.96L54.503 38.88V39.168C54.503 38.952 54.5727 38.736 54.7121 38.592C54.8515 38.52 55.0606 38.448 55.2697 38.52C55.4788 38.52 55.6182 38.664 55.6879 38.808C55.8272 39.024 55.8272 39.168 55.7575 39.384C55.7575 39.24 55.6182 40.104 55.7575 39.384L55.4091 40.536L55.6182 40.104L55.4788 40.68L55.1303 41.616L55.4091 40.896L55.1303 41.472L55.0606 41.76L54.9212 42.12L54.7121 42.624L54.9909 41.904L54.8515 42.408C54.7818 42.552 54.5727 42.768 54.8515 42.624L55.4091 42.48L55.8272 42.336L56.5242 42.048L56.8727 41.976L57.0121 41.904H57.2212C57.4303 41.904 57.5 41.904 57.6394 42.048L57.8485 42.336L57.5 41.976C57.6394 42.048 57.7788 42.192 57.7788 42.336V42.408C57.8485 42.408 57.8485 42.408 57.7788 42.264C57.9182 42.48 57.9182 42.696 57.7788 42.84C57.3143 43.0564 56.8496 43.2724 56.3848 43.488L55.8272 43.776L56.3151 43.848L56.7333 43.992C57.0818 43.992 57.3606 44.064 57.7091 44.208L58.6848 44.424C58.8242 44.424 58.8939 44.424 59.0333 44.568L59.2424 45C59.2424 45.1118 59.2172 45.222 59.1688 45.322C59.1204 45.422 59.0502 45.5089 58.9636 45.576L58.7545 45.72L59.0333 45.432C58.8939 45.648 58.6848 45.72 58.6848 45.72H58.1272L56.803 45.288L56.9424 45.36L55.1303 44.856L55.2697 44.928L54.8515 44.784L55.1303 44.856L54.4333 44.712H54.1545L54.0848 44.64H54.0151L53.806 44.712C53.3878 44.856 53.4575 44.856 53.5969 44.712H53.7363L54.0151 44.568H54.1545L54.2939 44.64L54.5727 44.712L57.5697 45.432L56.3151 45.144H56.3848L56.5939 45.216H56.4545L56.3848 45.144L57.5 45.432L56.1757 45.072L54.7818 44.712L54.2939 44.568H54.1545H54.0848H54.0151H53.8757L53.3182 44.856L53.7363 44.64L52.3424 45.288L52.6212 45.144L51.0182 45.864C50.8788 45.864 51.0182 45.864 51.0182 45.864L52.4121 45.288H52.2727L51.3666 45.72L52.7606 45.144L52.3424 45.288L52.7606 45.072C53.3182 44.856 53.3878 44.856 53.0394 45.072L53.4575 44.856L52.6212 45.216L52.9697 45.072C53.1788 45.072 52.0636 45.432 51.5757 45.648L50.8091 45.936L50.3909 46.08L51.2272 45.792L50.8788 45.864L50.4606 46.08L50.2515 46.152L50.4606 46.224L50.8788 46.368H50.9485L51.2969 46.512C51.506 46.584 51.2969 46.512 51.0182 46.512H50.9485H51.2969L51.7151 46.656L51.2969 46.512H51.1575L52.5515 46.872H52.4121L51.8545 46.656L53.0394 47.016L51.7848 46.656L53.4575 47.232L52.2727 46.872L53.8757 47.376L53.1788 47.16L53.5969 47.304C52.4818 46.944 53.7363 47.376 52.9 47.16L54.0151 47.52C53.8757 47.448 53.4575 47.304 54.0151 47.448H54.1545L54.2939 47.52L54.4333 47.736C54.4333 47.88 54.4333 47.736 54.2939 47.664C54.2939 47.592 54.1545 47.52 54.2939 47.664L54.3636 47.808V48.096L54.4333 47.952C54.4333 48.168 54.3636 48.24 54.2242 48.384C54.2242 48.456 54.0151 48.528 53.806 48.456C52.3792 48.115 50.9809 47.6576 49.6242 47.088L49.9727 47.232L50.1818 47.304L50.3909 47.376L49.8333 47.16C49.6939 47.16 49.6939 47.16 49.8333 47.16L49.5545 47.088V47.232L49.6939 47.52L49.7636 47.736L49.903 48.024C49.9727 48.456 49.7636 47.88 49.8333 48.024L50.1818 48.96C50.1818 48.96 50.1818 48.816 50.1818 48.96L50.5303 49.824L50.7394 50.544V50.616H50.8091L51.2272 50.832C52.203 51.192 51.0879 50.76 51.2272 50.832L52.6212 51.336L51.9242 51.12L52.1333 51.192L54.2242 51.912L53.6666 51.768L54.2242 51.912L55.3394 52.272C55.4788 52.272 55.6182 52.416 55.6879 52.56V52.992C55.6502 53.1217 55.5779 53.2377 55.4793 53.3269C55.3806 53.416 55.2597 53.4746 55.1303 53.496H54.5727L52.4818 52.992L52.2727 52.92L51.9939 52.776L51.6454 52.632H51.506C51.506 52.632 51.4363 52.632 51.506 52.632V52.776L51.9242 54V53.856L52.1333 54.576C52.0636 54.432 52.1333 54.576 52.1333 54.864C52.203 54.936 52.1333 55.08 52.1333 55.152L51.9939 55.44C51.7848 55.656 51.3666 55.728 51.2272 55.584C51.0986 55.4988 51.0007 55.3723 50.9485 55.224L50.8091 54.792L50.6 54.36L50.4606 54L50.3909 53.856L50.3212 53.784V53.712C50.2282 54.024 50.1353 54.336 50.0424 54.648L49.6242 56.088L49.4151 56.664C49.3576 56.7443 49.2845 56.8115 49.2005 56.861C49.1165 56.9106 49.0235 56.9416 48.9272 56.952C48.6485 57.024 48.3697 56.88 48.2303 56.592V56.16L48.4394 55.656L49.0666 53.496V53.784L48.9272 54L48.9969 53.784L49.4151 52.416L49.5545 52.128V52.056V51.912C49.4612 51.6722 49.3682 51.4322 49.2757 51.192L48.6485 49.536L48.7182 49.752L48.1606 48.312C48.0906 48.0961 48.0209 47.8801 47.9515 47.664V47.592H47.8818L47.5333 48.312L47.2545 48.888L46.5575 50.328L46.9757 49.536L47.1151 49.176C47.3242 48.816 46.9757 49.464 47.1151 49.176L47.3242 48.672L47.1848 48.96L46.9757 49.464L46.5575 50.4V50.184L46.2788 50.904C46.2789 50.928 46.2789 50.952 46.2788 50.976L46 51.264C45.9303 51.336 45.7909 51.408 45.5818 51.336C45.5446 51.3277 45.5094 51.3115 45.4785 51.2886C45.4475 51.2657 45.4214 51.2364 45.4019 51.2027C45.3823 51.169 45.3696 51.1315 45.3646 51.0925C45.3595 51.0535 45.3623 51.0138 45.3727 50.976L45.5121 50.688L45.5818 50.472L45.3727 50.976V51.048L45.4424 50.76L45.5818 50.472L45.7212 50.04L46.1394 49.248C46.5575 48.456 45.8606 49.896 45.9303 49.752C46 49.608 46.2091 49.248 46.0697 49.608L46.5575 48.6L46.7666 48.168L47.0454 47.448L47.1848 47.232C46.1859 47.6162 45.1869 48.0002 44.1879 48.384L44.606 48.24L43.7 48.6L43.2818 48.744H43.3515H43.2121L43.1424 48.888L43.003 49.248C42.6962 49.94 42.4625 50.6642 42.306 51.408C42.306 51.624 42.306 51.408 42.306 51.408L42.6545 50.184L42.3757 50.976L41.8878 53.064L41.7485 53.496L41.6091 53.568V53.712ZM41.5394 58.32L41.4697 57.6L40.6333 55.872C40.4939 55.728 40.4242 55.584 40.2151 55.512C39.8666 55.224 39.3091 55.08 38.8212 55.08C37.6252 55.2524 36.4949 55.7493 35.5454 56.52C35.2666 56.736 34.9878 57.024 34.8485 57.456L34.5697 58.32L34.2909 59.04C34.1515 59.256 34.1515 59.472 34.2212 59.76L34.2909 60.552C34.3606 61.272 34.7091 61.92 35.3363 62.352C35.6848 62.64 36.103 62.928 36.7303 63.072C37.1485 63.072 37.6363 63.144 38.1939 62.928H38.3333C39.1697 62.712 39.7969 62.136 40.2848 61.416L40.5636 60.984L40.8424 60.552C41.1212 60.336 41.1909 60.048 41.2606 59.76C41.2606 59.328 41.4 58.824 41.5394 58.32ZM93.3939 62.352L93.5333 62.208L93.3939 61.128L93.2545 61.2C93.2545 61.2 93.1848 61.272 93.2545 61.272H93.1151C92.906 61.272 92.6969 61.272 92.5576 61.416C92.1394 61.56 91.6515 61.632 91.1636 61.632C91.0417 61.6004 90.9245 61.552 90.8151 61.488L90.3273 59.328C90.2576 58.608 89.7 58.032 89.6303 57.312L89.7697 57.168L89.8394 57.096L89.9091 57.024H89.9788V56.88L90.4666 56.664C91.1636 56.376 91.8606 56.304 92.5576 55.872L92.6272 55.728H92.6969V55.656C92.525 54.8705 92.3854 54.0778 92.2788 53.28L92.2091 52.56L91.7212 51.336C91.7212 51.192 91.4424 49.896 89.3515 47.736L88.9333 47.448L88.8636 47.52C88.4026 47.8142 87.9379 48.1022 87.4697 48.384L86.2848 48.888L86.0757 49.032C85.6576 49.248 85.1697 49.464 84.8909 49.896L84.4727 50.184L84.3333 50.256C84.2276 50.3379 84.1338 50.4348 84.0545 50.544L83.7757 50.688L83.2182 51.192L82.7303 51.624L82.2424 51.984L81.2666 52.56L80.9879 52.704L80.2909 52.992C80.1515 53.064 78.6879 53.568 78.7575 53.712L79.2454 54.216C79.4545 54.576 79.6636 54.864 79.9424 55.08L80.0818 55.44C80.5754 56.4578 81.0402 57.4903 81.4757 58.536L81.5454 59.832C81.5454 59.976 81.6151 60.696 81.9636 61.056H82.103C82.3121 60.84 82.5909 60.768 82.8 60.696L83.1485 60.48L83.4969 60.336L83.9151 60.12C84.1442 60.0567 84.377 60.0086 84.6121 59.976H84.7515C85.0303 59.976 85.4485 59.976 85.7272 60.192L85.9363 60.264L86.4242 61.128C86.703 61.632 86.703 61.992 86.9121 62.568L87.4 63.504V63.936C87.4 64.08 87.2606 64.224 87.1212 64.368C87.0118 64.432 86.8946 64.4804 86.7727 64.512H86.703L86.2151 64.728L84.1939 65.448V65.52L83.9151 65.592L83.706 65.664L83.3575 65.808L83.2182 65.88H83.0788V66.6C83.0788 67.104 82.5212 68.76 82.3818 69.192C82.8697 68.904 83.7757 68.472 83.8454 68.328L85.2394 66.888H85.3091L85.6576 66.744L88.0969 65.664L88.9333 65.232L89.7 64.872L91.5818 63.864L91.8606 63.576C92.6969 63.216 92.906 63 92.906 62.928C93.0454 62.856 93.1848 62.424 93.3242 62.352H93.3939ZM82.4515 61.848C82.6606 62.136 82.8 62.496 82.8 62.784C82.8 63.288 82.8 63.504 83.0091 64.008L83.0788 64.512V65.088L83.3575 64.944H83.4272L83.5666 64.872H83.6363C84.3333 64.872 84.9606 64.656 85.5879 64.44C85.8666 64.368 86.5636 64.296 86.7727 64.008V63.576L86.0757 62.496C86.0338 62.3505 85.9873 62.2064 85.9363 62.064C85.7731 61.7523 85.6105 61.4403 85.4485 61.128L85.3091 60.984C85.3091 60.984 85.3091 60.912 85.3091 60.984V60.912H85.0303C84.8161 60.932 84.6053 60.9804 84.403 61.056L83.9848 61.2L82.8 61.704H82.6606L82.5909 61.776H82.5212L82.4515 61.848ZM68.7909 65.16V64.512L67.8848 62.712L67.5363 62.352C67.1182 62.064 66.5606 61.992 66.1424 61.992C64.9221 62.152 63.7662 62.6495 62.7969 63.432C62.5182 63.576 62.3091 63.936 62.1 64.296C62.1 64.584 61.8909 64.872 61.8212 65.16L61.6121 65.88C61.4727 66.168 61.403 66.384 61.4727 66.6L61.6121 67.392C61.6121 68.184 62.0303 68.832 62.5879 69.192C62.9363 69.552 63.4242 69.84 63.9818 69.912C64.4697 69.912 64.9575 69.984 65.5151 69.768H65.5848C66.4212 69.552 67.0485 69.048 67.606 68.328L67.8151 67.824L68.0939 67.392C68.3727 67.176 68.4424 66.96 68.5121 66.672L68.7909 65.232V65.16ZM34.3606 27L34.2909 27.072L34.9878 27.288L35.6151 27.432L36.8697 27.648L37.5666 27.72C38.403 27.864 39.3788 28.08 40.2151 28.44L41.8878 28.728C42.4454 28.728 42.8636 28.728 43.4212 28.872H44.3272L45.7212 29.16L46.0697 29.232L48.5091 29.808C48.5091 29.664 48.6485 29.592 48.7878 29.52H49.6939C50.0424 29.304 50.3212 29.304 50.6 29.16L51.2969 28.8C51.7848 28.656 52.4121 28.584 52.7606 28.368C53.3878 28.152 53.5969 27.936 54.1545 27.648L55.2 27.072L56.6636 26.352C57.2909 25.992 57.1515 25.92 57.8485 25.632C58.1969 25.632 58.6848 25.416 59.0333 25.272L60.2879 24.984C60.5666 24.84 60.9848 24.912 61.2636 24.768L61.9606 24.192L63.006 23.472L63.5636 22.752C63.9121 22.464 63.703 22.248 64.1212 22.104C63.4939 22.104 62.7969 22.104 61.9606 21.816L60.2879 21.384L59.5909 21.312L58.8939 21.24L58.5454 21.168L58.1969 21.096H57.5L57.0121 21.168L55.0606 21.888L53.8757 22.248L53.1788 22.392H52.8303L52.2727 22.608L51.506 22.752L48.4394 23.328L46.7666 23.832L45.8606 24.048L45.6515 24.12H45.5818C44.6002 24.5173 43.5665 24.76 42.5151 24.84L40.9121 25.2L40.1454 25.416L39.6575 25.56C39.4485 25.56 39.3091 25.704 39.1 25.776H38.8212C38.3333 26.064 37.9848 26.208 37.6363 26.208H37.5666L37.2182 26.352L36.2424 26.64L35.406 26.856H35.1272C34.8485 27.072 34.6394 27.072 34.3606 27.072V27ZM65.0272 22.176C65.2363 22.32 64.8879 22.464 64.4697 22.968L63.9818 23.616C63.7727 23.832 63.7727 24.12 63.5636 24.336L62.9363 24.84C62.6575 25.056 62.3091 24.984 61.9606 25.2L61.1939 25.56L60.0091 25.92L58.8939 26.424L57.8485 26.712C57.1808 26.9604 56.5479 27.2994 55.9666 27.72L55.0606 28.296C54.3999 28.7072 53.6991 29.0451 52.9697 29.304C52.2359 29.6623 51.4921 29.9985 50.7394 30.312L52.2727 30.672H53.3878C53.5969 30.816 53.8757 30.816 54.1545 30.816H54.4333C54.9909 30.816 55.6879 30.816 56.3151 30.96L56.6636 31.032H56.803L57.9182 31.104C58.406 31.32 58.8242 31.392 59.2424 31.248H59.7303L61.1242 31.464L61.403 31.536C61.6121 31.68 61.8212 31.752 62.2394 31.608L62.5182 31.68C62.6575 31.752 62.6575 31.68 62.7969 31.536C62.9695 31.2949 63.1887 31.0936 63.4407 30.9449C63.6927 30.7961 63.9719 30.7032 64.2606 30.672L64.6091 30.528H64.6788C64.8182 30.528 64.8879 30.528 65.0272 30.384C65.3523 30.2635 65.6776 30.1435 66.003 30.024L67.0485 29.664C67.2575 29.664 67.3969 29.52 67.606 29.448L68.1636 29.16C68.6515 29.016 68.9303 28.8 69.2788 28.584L70.8121 27.72L72.2757 27C72.9727 26.64 73.7394 26.424 74.506 26.136L76.1091 25.416L77.2939 24.768L77.9909 24.408L78.7575 23.904H78.8272V23.76H78.6879C78.4279 23.7418 78.1707 23.6934 77.9212 23.616L77.2242 23.472L76.2485 23.256C75.4854 23.1608 74.7157 23.1367 73.9485 23.184L72.9727 23.112H72.2757L71.2303 22.896C70.8121 22.752 70.3939 22.608 69.9757 22.608H69.8363L68.5818 22.536L67.2575 22.392C66.5606 22.32 66.0727 22.32 65.5151 22.176L65.0272 22.104V22.176ZM78.8272 24.984L78.4091 25.2L78.2 25.344L77.9909 25.488L77.0151 25.992L76.7363 26.136C75.9697 26.568 75.0636 27 74.1576 27.216L73.3909 27.576H73.3212L71.9272 28.224L71.7182 28.368L70.0454 29.232L69 29.736L68.7212 29.88L68.5121 29.952L68.0939 30.168L67.2575 30.528C66.9091 30.744 66.4909 30.888 66.0727 30.96L65.2363 31.32L64.2606 31.68L64.0515 31.824C64.0515 31.824 63.9818 31.824 64.0515 31.896C64.1909 32.04 63.8424 33.336 63.7727 33.264V36.504C63.9121 36.936 63.9121 37.296 63.9121 37.728V38.808C64.0515 39.024 64.0515 39.168 64.0515 39.384V39.96C64.1909 40.392 64.1909 40.752 64.1909 41.112V41.688L64.2606 42.408L64.3303 43.488L64.4 44.352L64.4697 44.928L64.5394 45.576V46.8L64.8182 47.16L65.0969 47.304L65.5848 47.52C65.8636 47.664 66.0727 47.88 66.4909 48.024L67.5363 48.528L68.0939 48.744L68.8606 49.104L69.2091 49.32H69.3485L70.0454 49.608L70.3242 49.752C70.5333 49.896 70.8121 49.896 71.1606 49.896C71.5788 49.896 71.9969 50.04 72.3454 50.112C73.1084 50.3153 73.8211 50.6834 74.4363 51.192C74.9879 51.5016 75.5727 51.7433 76.1788 51.912L77.0848 52.344L77.3636 52.488C77.6436 52.6539 77.9224 52.8219 78.2 52.992C78.4091 52.992 78.5485 52.92 78.7575 52.776H78.8272L80.0121 52.056C80.1515 52.056 80.2212 51.912 80.3606 51.768L81.3363 51.192L82.3121 50.616C82.5212 50.544 82.5909 50.4 82.6606 50.256L83.2182 49.752C83.6842 49.4663 84.1488 49.1783 84.6121 48.888L84.9606 48.672L85.6576 48.384C85.7969 48.384 85.8666 48.312 85.8666 48.24C86.1533 48.1703 86.4332 48.0739 86.703 47.952C86.8424 47.952 87.1212 47.736 87.2606 47.592L87.8182 47.16C87.9576 47.088 88.0272 46.872 87.8879 46.8L87.1212 46.296L86.1454 45.576C86.0314 45.5226 85.9151 45.4746 85.7969 45.432C85.4485 44.928 84.7515 44.712 84.1242 44.64L83.3575 44.28L83.0091 44.136L82.8697 43.992L82.1727 43.776L80.7788 43.056L80.2909 42.696L80.0818 42.336C80.2212 41.76 80.2909 41.112 80.2909 40.464L80.2212 40.392V38.664L80.1515 37.296L80.0121 36.576V36.288C80.0121 35.856 80.0121 35.424 79.803 34.992V34.848C79.6636 34.272 79.7333 33.048 79.6636 33.048V32.904V32.184L79.5242 31.536V31.464L79.4545 31.104V30.672V30.096V29.376C79.6013 28.9289 79.7178 28.4718 79.803 28.008V27.288V27.144C79.803 26.64 79.803 26.064 79.9424 25.56L79.7333 25.344V25.056C79.803 24.984 79.7333 24.912 79.5939 24.912H79.1757V24.768L78.8969 24.912L78.8272 24.984ZM92.906 56.592L92.4182 56.736L92.1394 56.88L91.8606 57.024L91.7212 57.168H91.5121C91.2401 57.3255 90.961 57.4697 90.6757 57.6L90.4666 57.816L90.3969 57.888V58.176L90.4666 58.536L90.5363 58.824L90.6757 59.04V59.328L91.0242 60.12L91.1636 60.624V60.768C91.1636 60.912 91.5818 60.912 91.7212 60.912C92.298 60.7516 92.8413 60.4831 93.3242 60.12V58.68C93.3242 58.248 93.1151 57.888 93.1151 57.456L92.906 56.592ZM94.0909 61.92V62.496C94.0909 63.288 93.1151 63.648 92.5576 63.936L92.4182 64.008C91.8606 64.224 91.303 64.44 90.8848 64.728L88.0969 66.456C87.9576 66.456 87.9576 66.528 87.8879 66.6C85.5762 67.8213 83.3415 69.192 81.1969 70.704L80.2909 70.488H80.2212C78.9666 69.984 77.7818 69.48 76.5272 69.192L73.3212 68.544C72.4848 68.4 71.7182 68.184 70.8818 68.184L69.9757 67.968L69.8363 68.256C69.6313 68.8119 69.296 69.3067 68.8606 69.696L68.6515 69.912C68.2333 70.416 67.7454 70.632 67.2575 70.92C66.7697 71.064 66.3515 71.28 65.8636 71.28L65.2363 71.352L64.2606 71.496H63.1454C62.7272 71.424 62.4485 71.208 62.1 71.064L61.5424 70.92L61.1242 70.776C60.788 70.4133 60.5061 70.0008 60.2879 69.552L59.8 68.328C59.5909 67.824 59.5212 67.248 59.5212 66.672V65.808L59.5909 65.232V65.16L59.103 65.016L57.7091 64.656L56.803 64.584L56.5242 64.512L55.7575 64.368H55.6182L55.2 64.296C55.0606 64.296 54.9212 64.296 54.7818 64.152C53.806 63.864 52.6909 63.432 51.7151 63.288L51.2272 63.216L50.8788 63.144L50.6697 63.072L49.6242 62.856H49.1363C48.9272 62.856 48.7182 62.856 48.4394 62.712L47.8121 62.568L47.3939 62.424C46.6272 62.136 46 61.992 45.303 61.848L43.9091 61.416L42.7242 60.984L42.5848 61.416C42.36 61.9797 42.0003 62.4752 41.5394 62.856L41.3303 63.072C40.9818 63.576 40.4242 63.792 39.9363 64.08C39.4485 64.224 39.1 64.44 38.6121 64.44H37.9151L37.0091 64.656L35.8242 64.584C35.4757 64.584 35.1272 64.368 34.7788 64.224L34.2909 64.08L33.803 63.864C33.4723 63.5233 33.1906 63.1354 32.9666 62.712L32.5485 61.488C32.3394 60.912 32.2 60.408 32.2 59.76L32.2697 58.896V58.536H32.0606L31.9212 58.248V57.96C31.8622 57.7239 31.8622 57.4761 31.9212 57.24V56.736C31.9212 56.016 31.9212 55.44 31.7818 54.792V54.504L31.7121 54.288L31.6424 52.128V50.4V48.96L31.7121 47.16L31.8515 45.72L31.9909 44.28V41.4V41.184C32.0606 40.608 32.2 40.32 32.2 39.744C31.9909 39.744 31.9212 38.232 31.9212 37.872C31.9212 36.936 31.8515 37.08 31.7818 36.072C31.7818 35.712 31.9212 33.696 31.8515 33.264L31.6424 30.816L31.7121 28.296C31.7121 27.936 31.7121 27.504 31.9909 27.504L32.2697 27L32.9666 26.64C33.2454 26.64 33.4545 26.496 33.7333 26.424H34.2212L34.6394 26.28L35.8939 25.92L36.3818 25.776L36.5212 25.632L36.5909 25.56L36.8697 25.416C37.2182 25.416 37.5666 25.272 37.9151 25.128L38.8212 24.912L39.0303 24.84H39.3091C39.5182 24.84 39.7969 24.696 40.0757 24.552L40.9121 24.336L42.4454 23.832L42.9333 23.76L44.8848 23.256C45.2333 23.256 45.5121 23.112 45.7212 23.04L46.4878 22.752L47.603 22.464L47.8121 22.392L48.2303 22.32L48.5788 22.248C48.7182 22.248 48.9272 22.248 49.1363 22.104L50.1121 21.96L50.8091 21.816L51.3666 21.672L52.0636 21.528H52.1333L52.7606 21.312L54.1545 20.952L54.8515 20.664C55.3819 20.4829 55.9164 20.3149 56.4545 20.16H56.5242C56.7333 20.016 56.9424 20.016 57.2212 20.016L58.1969 20.304L58.8939 20.448C59.2424 20.448 59.5212 20.592 59.8 20.664L61.403 20.952L63.1454 21.312L64.7485 21.6C65.1666 21.6 65.5848 21.744 65.8636 21.888H66.2818C66.9788 21.888 67.6757 21.888 68.3727 22.032L69.2788 22.104H69.4879L70.7424 22.32H72.0666C72.6939 22.32 73.2515 22.464 73.8091 22.32C74.7151 22.32 75.4818 22.32 76.2485 22.536H76.806L77.1545 22.608C78.2 22.968 79.2454 23.256 80.2909 23.328V23.4L80.4303 23.976C80.4303 23.976 80.7788 27.216 80.7091 28.728V29.664L80.5697 30.672C80.4303 31.392 80.1515 32.112 80.1515 32.832C80.1515 33.192 80.1515 33.552 80.2909 33.984C80.2909 34.272 80.2909 34.488 80.5 34.704L80.7091 35.568V36.432C80.7091 36.72 80.7091 37.152 80.8485 37.44C80.9879 38.304 80.9879 39.096 80.9879 39.888V39.96C80.9929 40.68 80.9929 41.4 80.9879 42.12H81.1272L81.2666 42.192C81.8242 42.408 82.7303 43.2 82.8 43.272C82.8 43.272 83.4969 43.776 84.3333 43.992L86.9818 45.072C87.1418 45.1726 87.3045 45.2687 87.4697 45.36H87.5394L87.6788 45.432L87.9575 45.576L88.306 45.792L88.3757 46.008L89.2818 46.512L89.6303 46.872L89.8394 47.016C89.9788 47.016 90.1878 47.16 90.1878 47.232C91.5818 48.6 92.2788 50.616 92.8363 52.776C93.3242 54.72 93.8121 56.808 94.0212 58.896C93.8818 59.4 93.8818 59.904 94.0212 60.336V61.92H94.0909ZM77.0848 40.608V40.32V39.6V38.88C77.0151 37.44 76.806 36.504 76.6666 35.424C76.7363 34.344 76.9454 33.336 76.9454 32.256V32.184V30.96H76.8757C76.8819 30.8641 76.8819 30.7679 76.8757 30.672V30.24C76.8757 30.168 76.806 30.096 76.6666 30.096V29.952L76.0394 30.168L74.9939 30.744L74.0182 31.248L73.6697 31.392C73.5777 31.3726 73.4829 31.3726 73.3909 31.392L73.2515 31.464H73.1818L71.5091 32.256C71.2806 32.3617 71.0481 32.4578 70.8121 32.544C70.6727 32.544 70.603 32.616 70.603 32.688L70.4636 32.832H70.2545L70.1151 32.976H69.7666L68.7909 33.696L67.3969 34.416V34.56L67.1879 34.632H67.0485L66.7 34.92C66.4909 34.92 66.7 34.92 66.3515 35.064L66.0727 35.208V35.496L66.003 35.784C65.8636 35.784 65.7939 35.928 65.8636 35.928L65.9333 36C65.7939 36.72 65.9333 37.512 65.9333 38.304C66.003 39.024 65.9333 39.888 66.2818 40.536L66.3515 41.688L66.4909 42.408V43.416V43.344L66.6303 44.28V45L66.7 45.216V45.288H66.9091L67.606 45C67.9545 44.784 69.8363 44.424 69.9757 44.28L70.8121 43.704L72.5545 42.624L72.9727 42.48L72.8333 42.336L72.6242 42.264L72.5545 42.12L72.2757 41.832V41.256L72.4151 40.824L72.4848 40.536C72.5539 40.4395 72.6236 40.3435 72.6939 40.248L73.2515 39.888L73.9485 39.744C74.3574 39.6318 74.7802 39.5832 75.203 39.6C75.4818 39.672 75.7606 39.744 75.9 39.888C76.0394 39.888 76.1788 40.104 76.3182 40.248L76.4575 40.68C76.4575 41.04 76.3182 41.112 76.3182 41.112L77.0848 40.752V40.608ZM75.8303 41.184C75.8303 41.112 75.9697 40.968 75.9 40.896V40.752V40.608H75.7606V40.536V40.464L75.4818 40.176C75.4211 40.1153 75.3503 40.0665 75.2727 40.032L75.1333 39.96H74.7848H74.6454L74.506 40.032H74.3666C74.3666 40.032 74.2969 40.104 74.3666 40.104C74.2272 40.104 74.2272 40.176 74.1576 40.248H74.0182L73.8091 40.392L73.5303 40.608L73.4606 40.68V40.752L73.3909 40.824L73.3212 40.896C73.3212 40.896 73.2515 41.04 73.3212 41.04L73.2515 41.112V41.4L73.3212 41.544H73.4606L73.6 41.688H73.6697L73.8091 41.76H74.0182L75.3424 41.4L75.8303 41.184ZM78.1303 40.536C78.13 40.608 78.13 40.68 78.1303 40.752L77.9909 40.896L77.4333 41.184H77.2939V41.256C77.0151 41.256 76.5969 41.544 76.4575 41.544L75.9697 41.832C76.1091 41.832 73.6697 42.552 72.7636 42.984H72.6939L71.9969 43.488L70.0454 44.712C70.0454 44.712 70.1848 44.64 70.0454 44.712L69.6969 44.856L69.4879 44.928L68.5121 45.432L67.8151 45.72L67.3969 45.936H67.3272V46.008L67.0485 46.08L66.6303 46.296H66.2121L66.0727 46.224L66.003 46.152L65.8636 45.936L65.7242 45.504V45.216V45.072L65.5848 44.568V44.136V43.92L65.5151 42.48C65.5151 42.48 65.5151 42.552 65.5151 42.48L65.2363 36.936V36.504V36V35.856L65.306 35.28C65.3244 35.2064 65.3477 35.1343 65.3757 35.064L65.4454 34.992V34.848H65.7242L65.8636 34.776L66.4212 34.488L66.9788 34.2L67.8151 33.552L69 32.832H69.2091L70.1848 32.112C70.3939 32.112 70.603 31.968 70.7424 31.896L71.4394 31.536L71.7879 31.392H71.5788L71.8575 31.248C71.8575 31.248 71.7182 31.32 71.8575 31.248L72.2757 31.032C72.2757 31.032 72.0666 31.176 72.3454 31.032L74.2272 30.096L75.9697 29.232L76.2485 29.16L76.6666 29.088L76.8757 29.232H77.1545C77.2939 29.952 77.5727 30.384 77.5727 30.672V30.456V30.888V30.672L77.8515 34.56V34.416V35.64V35.352V36.072V35.856L77.9212 37.008V36.72V37.872L77.9909 38.376C77.9909 38.52 77.9909 38.376 77.9909 38.376L78.1303 39.6V40.608V40.536ZM39.0303 57.888L39.1697 58.608C39.1697 59.112 39.1697 59.544 38.7515 60.048L38.403 60.48C37.9848 60.768 37.706 60.984 37.2182 60.912C36.8697 60.912 36.6606 60.768 36.3818 60.552C36.0333 60.336 35.6848 60.048 35.7545 59.544C35.7545 59.256 35.7545 59.04 35.8939 58.824L36.0333 58.464L36.103 58.248L36.6606 57.528C36.9394 57.312 37.1485 57.24 37.4969 57.24H37.8454C38.3333 57.24 38.8909 57.456 39.0303 57.96V57.888ZM66.2121 64.8C66.3515 65.016 66.3515 65.304 66.4212 65.52C66.4212 66.024 66.4212 66.456 66.003 66.888L65.5848 67.32C65.2363 67.68 64.8879 67.896 64.4 67.752C64.1212 67.752 63.8424 67.608 63.5636 67.392C63.2848 67.176 62.8666 66.96 62.9363 66.384C63.006 66.168 62.9363 65.88 63.1454 65.664C63.1454 65.664 63.1454 65.448 63.2848 65.304V65.088L63.9121 64.44C64.1909 64.152 64.3303 64.08 64.6788 64.08H65.0272C65.5848 64.08 66.0727 64.368 66.2121 64.8ZM37.6363 49.464C37.7757 49.176 38.1242 49.104 38.403 48.96C38.403 48.96 38.2636 48.96 38.1939 49.104L37.7757 49.248L37.5666 49.68L37.6363 50.112C37.5752 50.0025 37.543 49.8784 37.543 49.752C37.543 49.6256 37.5752 49.5014 37.6363 49.392V49.464ZM37.6363 49.464C37.6363 49.32 37.7757 49.176 37.9848 49.104L37.6363 49.392V49.464ZM38.7515 50.616C38.7515 50.616 38.8212 50.616 38.7515 50.616C38.6143 50.6526 38.4704 50.6526 38.3333 50.616H38.7515ZM39.7272 48.456L38.6121 48.888L39.9363 48.384L40.3545 48.168L39.7969 48.456C39.2394 48.6 40.1454 48.24 39.7969 48.456H39.7272ZM39.9363 47.16L40.3545 47.376L40.006 47.16H39.9363ZM43.003 47.16L43.7 46.944L43.003 47.232V47.16ZM45.8606 46.08L45.7212 46.152L46 46.008H46.0697L45.8606 45.936L45.1636 45.792L46 45.936C46 45.96 46 45.984 46 46.008L45.8606 46.08ZM43.8394 44.28L44.5363 44.424H44.3969L43.5606 44.208H43.2121L43.0727 44.424C43.1424 44.28 43.2818 44.208 43.4212 44.208L43.8394 44.28ZM43.2121 45.288C43.3515 45.288 43.4909 45.288 43.7 45.432C43.4909 45.36 43.1424 45.288 43.003 45.144L42.9333 44.928V44.64V44.928L43.003 45.288V45.144C42.9333 45.144 42.8636 45.144 42.8636 45L42.9333 45.144C43.003 45.288 43.1424 45.36 43.2121 45.36V45.288ZM49.9727 46.224H50.0424L50.1818 46.296H49.903V46.224L50.2515 46.08C50.4606 46.08 50.6697 45.936 50.8091 45.864C50.7401 45.8903 50.6704 45.9143 50.6 45.936L50.2515 46.08L49.903 46.224H49.9727ZM51.0182 45.864L51.506 45.648L50.8091 45.936L51.0182 45.864ZM50.3909 46.152L50.6697 46.08L50.3909 46.152C50.3212 46.152 50.1121 46.224 50.2515 46.296L50.9485 46.44L50.4606 46.296H50.1818L50.3212 46.152H50.3909ZM50.9485 46.584H50.8091L50.5303 46.44L50.8788 46.512L51.0182 46.584H51.1575L51.5757 46.728C51.7848 46.8 51.5757 46.728 51.6454 46.8C52.0381 46.9059 52.4331 47.0019 52.8303 47.088L51.2969 46.656L50.9485 46.584ZM54.0848 48.528H53.5969L53.1788 48.384H53.4575L53.7363 48.528H54.0848ZM52.5515 48.168H52.6909L53.1788 48.312L52.5515 48.168ZM50.8788 47.52L51.506 47.736C51.2969 47.736 50.8091 47.52 50.7394 47.448L50.8788 47.52ZM55.8969 45C55.4788 44.856 55.8969 45 55.8272 45H55.9666C55.2697 44.856 55.5485 44.856 55.9666 45H55.8969ZM56.2454 42.192L55.8272 42.408L56.2454 42.192ZM57.1515 43.2L56.803 43.416L57.2909 43.2C57.7788 42.984 56.7333 43.416 57.1515 43.2ZM57.0818 42.048H56.7333H57.0818ZM57.6394 42.984L57.5 43.056H57.6394V42.984ZM57.8485 42.84L57.7091 42.984L57.8485 42.912V42.84ZM57.1515 44.136L57.8485 44.28L57.1515 44.136ZM57.9182 44.352L57.2909 44.208L58.6848 44.568H58.8939L59.0333 44.712L59.103 44.784C59.1727 44.784 59.3121 45 59.2424 45.36C59.3121 45 59.2424 44.784 59.103 44.712L58.8939 44.568L57.9182 44.352ZM58.9636 45.648C59.103 45.504 59.1727 45.432 59.1727 45.288C59.1727 45.432 59.0333 45.576 58.9636 45.648ZM58.3363 45.72H58.0576C57.9879 45.648 57.9182 45.648 58.0576 45.72H58.3363ZM52.203 45.432L51.9242 45.576L51.0879 45.936C51.4596 45.7681 51.8313 45.6001 52.203 45.432ZM40.703 50.976V51.12C40.703 51.048 40.8424 50.544 40.703 50.976Z" fill="#1D6C97"/>
<path d="M21.8848 44.496C23.3453 43.5153 24.6007 42.2421 25.5768 40.7517C26.5529 39.2613 27.2299 37.5839 27.5678 35.8186C27.9056 34.0533 27.8975 32.2359 27.5439 30.4739C27.1903 28.7119 26.4984 27.041 25.5091 25.56C21.3272 19.296 14.4969 19.8 8.36361 24.12C2.23028 28.224 -0.83639 34.56 3.27573 40.752C7.45755 46.944 15.8212 48.672 21.8848 44.352V44.496Z" fill="#1D6C93"/>
<path d="M15.5424 37.584H18.5394V39.6H11.3606V38.16L15.5424 33.408C16.0303 32.832 16.2394 32.472 16.2394 31.896V31.68C16.2394 30.6 15.7515 30.096 14.9848 30.096H14.8454C14.1485 30.096 13.5909 30.6 13.5909 32.04H11.3606V31.752C11.3606 29.304 12.5454 28.152 14.9151 28.152C17.5636 28.152 18.5394 29.736 18.5394 31.248V31.464C18.5394 32.832 18.1212 33.48 17.2848 34.344L14.497 37.512H15.5424V37.584Z" fill="white"/>
<path fill-rule="evenodd" clip-rule="evenodd" d="M61.2636 8.78399C61.2636 8.49599 61.403 8.27999 61.5424 8.20799C61.6818 8.13599 61.8212 8.35199 61.8909 8.56799C62.0303 9.35999 60.706 16.272 60.5666 17.064C60.5666 17.352 60.1485 17.496 59.8697 17.352C59.7303 17.28 59.6606 17.136 59.7303 16.992C59.8697 16.632 59.8697 16.272 59.8697 15.912L61.2636 9.14399V8.78399ZM83.9151 11.88L83.9848 11.808H84.403C84.5424 11.808 84.6818 12.024 84.5424 12.24C84.5424 12.456 82.103 19.44 81.9636 19.584L81.7545 20.088L81.1969 21.024C81.1969 21.168 80.9879 21.312 80.9182 21.456H80.7788L80.6394 21.384V20.592C80.9182 20.232 83.4272 13.176 83.5666 12.816C83.5666 12.528 83.7757 12.24 83.9151 11.88ZM71.9272 18.216L71.6485 19.224C71.6485 19.368 71.5091 19.512 71.4394 19.584C71.1606 19.872 71.0212 19.872 70.8121 19.656C70.6727 19.656 70.6727 19.44 70.6727 19.296C70.8818 18.648 72.7636 9.07199 72.9727 8.49599C72.9727 8.27999 73.1121 8.13599 73.2515 7.99199C73.2515 7.91999 73.5303 7.91999 73.5303 7.99199C73.6 8.27999 71.9272 17.568 71.9272 17.784V18.216ZM94.5788 22.824L94.3697 23.112L94.0212 23.256L92.6969 23.688C90.2726 24.478 87.8563 25.294 85.4485 26.136L85.3091 26.064V25.848C85.3788 25.56 85.5878 25.344 85.8666 25.272L86.4939 24.984L93.7424 22.536H94.2303C94.4394 22.536 94.5788 22.68 94.5788 22.824ZM43.7 20.664H43.4909C43.3742 20.6309 43.2679 20.5671 43.1823 20.4787C43.0968 20.3904 43.035 20.2805 43.003 20.16C42.8636 19.512 39.3091 12.384 39.1 11.736C39.0489 11.6625 39.0215 11.5744 39.0215 11.484C39.0215 11.3936 39.0489 11.3054 39.1 11.232C39.3091 11.088 39.4485 11.088 39.5182 11.232L39.7272 11.52C40.006 11.952 43.6303 18.864 43.7 19.44L43.9091 20.16C44.0485 20.304 43.9788 20.448 43.7 20.664ZM52.2727 16.632C51.7151 17.064 51.5757 16.992 51.2969 16.344C50.759 14.0124 50.3172 11.6583 49.9727 9.28799C49.9727 9.07199 50.0424 8.92799 50.2515 8.85599L50.7394 9.35999C50.9485 9.93599 51.9939 15.768 52.2727 16.344V16.632ZM35.3363 22.968L34.9182 23.112C34.7091 23.184 34.5 23.112 34.3606 22.968C33.8727 22.464 28.4363 16.776 27.8091 16.344C27.6697 16.2 27.6 16.056 27.6 15.84C27.6 15.696 27.7394 15.624 27.8788 15.624L28.2969 15.696C28.7848 15.912 29.203 16.128 29.6212 16.56L35.1969 22.392C35.3363 22.536 35.4757 22.68 35.3363 22.968Z" fill="#E66C55"/>
</g>
<defs>
<clipPath id="clip0">
<rect width="115" height="72" fill="white"/>
</clipPath>
</defs>
</svg>
