<svg width="115" height="72" viewBox="0 0 115 72" fill="none" xmlns="http://www.w3.org/2000/svg">
<g clip-path="url(#clip0)">
<path fill-rule="evenodd" clip-rule="evenodd" d="M103.082 43.488C100.892 42.6397 98.6585 41.9186 96.3909 41.328C86.5637 38.88 76.2485 38.16 66.2121 37.368C57.4303 36.648 48.5788 36.288 39.7273 36.144C39.0303 34.704 37.6364 33.84 35.8243 33.624C27.337 32.347 18.6745 33.3386 10.6637 36.504C6.48184 38.376 2.02123 41.544 0.487899 46.08C-0.348464 48.528 -0.0696763 51.48 1.39396 53.64C3.13638 56.232 9.7576 59.4 22.9303 57.528C22.9303 59.976 24.1849 62.136 26.4152 63.432C28.5061 64.728 39.7273 72.072 73.4606 72.072C100.503 72.072 111.097 64.728 113.397 60.984C116.533 55.944 113.885 50.04 109.633 46.8C107.682 45.36 105.312 44.424 103.082 43.56V43.488Z" fill="#F2C4C4"/>
<path fill-rule="evenodd" clip-rule="evenodd" d="M99.1788 53.1359C98.9697 52.1999 98.0637 51.6959 97.297 51.1919C95.5229 50.1455 93.5908 49.4153 91.5819 49.0319C90.975 48.0284 90.4616 46.9676 90.0485 45.8639C89.5606 44.4239 89.3516 42.9839 88.9334 41.6159C88.0273 38.7359 85.1697 37.0799 82.4516 36.1439L80.4303 35.6399C80.2213 35.5679 79.9425 35.4959 79.8728 35.3519V35.0639C80.0122 34.3439 80.2213 33.6239 79.8728 32.9039C79.5243 32.3279 78.897 31.8239 78.1303 31.6799C77.5031 31.5359 77.3637 31.6799 77.0152 31.1759C76.6463 30.6453 76.1708 30.2032 75.6213 29.8799C74.7152 29.3759 73.2516 29.3759 72.4849 28.6559C72.0667 28.2959 72.0667 26.8559 71.7182 26.4959C71.1607 25.9199 70.3243 25.9199 69.4879 25.9199C67.7455 26.0639 66.7 26.9279 65.1667 27.6479C64.9576 27.6479 63.3546 28.5119 63.0061 28.6559C61.759 29.0111 60.5266 29.4195 59.3122 29.8799L58.197 30.5999C56.9473 31.3106 55.7582 32.1296 54.6425 33.0479L52.691 32.8319L51.994 32.4719C51.1576 31.7519 49.9728 31.9679 49.4849 32.9039C49.2061 33.4799 48.997 34.0559 48.997 34.7039C48.997 34.9919 48.997 35.4239 48.6485 35.8559L48.0213 36.2159C46.6273 36.9359 46.4879 37.1519 45.4425 37.5839C45.2334 37.5839 44.9546 37.4399 45.0243 37.2239C45.1637 36.7199 45.3728 36.2159 46.5576 35.9999C45.1637 35.5679 43.2122 35.9999 42.794 36.6479C42.5152 37.1519 42.7243 37.1519 42.4455 37.6559C41.6788 38.0159 41.0516 38.5199 40.494 39.4559L39.797 40.6799C38.1358 42.6638 36.6652 44.8099 35.4061 47.0879C35.2667 47.8079 34.9879 48.5279 34.291 48.9599C33.7334 49.3199 33.1061 49.3199 32.4788 49.3919C30.5273 49.7519 29.1334 50.8319 27.6 51.9119C27.0616 52.764 26.8161 53.7783 26.9031 54.7919C29.2031 56.8799 32.0607 57.5999 34.9879 58.3199L36.3819 58.6799C37.0788 58.7519 37.7758 59.2559 38.5425 59.3999C42.0273 59.9039 45.1637 60.6239 48.7182 60.9119C52.2728 61.1999 56.2455 60.6959 59.8 60.9119L63.0758 61.0559C63.4258 61.0914 63.7745 61.1394 64.1213 61.1999C72.0667 61.1279 76.3182 60.9839 84.1243 59.3279C85.797 58.9679 92.3485 57.6719 94.0213 57.1679C95.4152 56.6639 96.9485 56.1599 98.2031 55.3679C98.9 54.9359 99.4576 53.9999 99.2485 53.1359" fill="white"/>
<path d="M77.9909 34.6321C77.7121 34.6321 77.1545 34.6322 76.9454 34.4882L76.7364 34.3442C76.3879 34.1282 76.4576 33.6242 76.8061 33.4802C77.1545 33.3362 77.503 33.3362 77.7818 33.6242C77.9909 33.6242 78.2697 33.6242 78.4788 33.8401L78.5485 33.9842C78.8273 34.4162 78.3394 34.6322 77.9909 34.7042V34.6321ZM76.4576 35.7842V36.0001L76.3182 36.2161C75.9697 36.8641 74.9939 36.6481 74.5757 36.3601V36.2882C74.3594 36.2101 74.1496 36.1137 73.9485 36.0001C73.5303 35.7841 72.903 35.2801 72.6939 34.7761C72.4151 33.7681 73.9485 33.8402 74.3667 33.9842C74.9242 34.1282 75.4818 34.4162 75.9 34.8482C76.1788 35.0642 76.5273 35.3522 76.4576 35.7842ZM61.5424 32.4002C61.1939 32.2562 60.8454 31.9682 60.9848 31.5362C61.1939 31.1042 61.6818 31.1042 62.1 31.1762L62.2394 31.3202C62.5182 31.3202 62.797 31.4642 62.9364 31.5362C63.2848 31.8242 63.2848 32.2561 62.9364 32.4721C62.5182 32.6881 61.8909 32.5441 61.5424 32.4721V32.4002ZM69.4879 34.7042C69 34.7042 67.606 34.8481 67.397 34.2721C67.2576 33.4801 68.8606 33.5521 69.2788 33.5521C69.4182 33.5521 69.4879 33.5521 69.5576 33.6961H70.1151C70.3939 33.6961 70.8121 33.6242 70.9515 33.8401C71.3697 34.5602 69.8364 34.7042 69.4879 34.7042ZM67.5364 38.8801C66.8394 38.8801 66.1424 38.8081 65.4454 38.5921C65.0273 38.4481 64.5394 38.3041 64.4 37.8721V37.6561V37.4401C64.4 36.5761 65.5848 36.4321 66.1424 36.5761H66.2121L66.9788 36.6482C67.5364 36.7202 68.4424 36.8642 68.8606 37.3682C69.6273 38.2322 68.0242 38.8082 67.4667 38.8082L67.5364 38.8801ZM68.4424 30.9602H68.5818C68.9303 30.9602 69.2091 31.1042 69.2788 31.3202C69.4182 31.4642 69.3485 31.5362 69.2788 31.6802C69 31.9682 68.3727 31.9682 67.8848 32.0402C67.397 32.0402 66.7697 32.0402 66.2818 31.8242C66.2438 31.8019 66.2114 31.7708 66.1872 31.7333C66.163 31.6958 66.1477 31.6529 66.1424 31.6082C66.1424 30.6722 67.8151 30.8882 68.4424 30.8882V30.9602ZM68.0939 28.7282C68.303 28.0082 69.4879 28.0081 70.1848 28.1521C70.3242 28.1521 70.4636 28.2962 70.3939 28.4402L70.603 28.6562C70.8121 28.8722 70.7424 29.1602 70.5333 29.3762C70.2545 29.5202 69.8364 29.4482 69.5576 29.4482C69.0697 29.4482 67.8151 29.5202 68.0939 28.7282Z" fill="#F2C4C4"/>
<path d="M61.6122 36.0721C61.6122 36.6481 61.3334 37.2241 60.9152 37.6561C60.7758 37.8721 60.5667 37.9441 60.2879 37.7281C60.0091 37.5121 59.5909 37.3681 59.1728 37.6561L58.8243 37.5841C58.7546 37.4401 58.6152 37.2241 58.6849 37.1521C59.1728 36.2881 59.7303 35.4961 60.7758 35.2801C61.4031 35.2081 61.6819 35.4241 61.6122 36.0721ZM52.2728 39.1681C52.2728 39.3841 52.2728 39.4561 52.1334 39.6001L48.997 39.3121C49.1361 38.5635 49.3704 37.8372 49.694 37.1521C49.694 37.1521 50.2516 36.2881 50.1122 36.2161C49.9728 36.0721 50.1122 35.7121 50.3909 35.8561C51.0182 36.0721 51.297 36.8641 51.5758 37.4401C51.9243 37.9441 52.4122 38.5201 52.2728 39.1681Z" fill="white"/>
<path d="M27.3909 50.6161C28.5758 49.6801 29.9697 49.0321 31.4333 48.6721L32.3394 48.5281L31.9909 49.3921C31.8515 49.8241 31.5727 50.0401 31.2242 50.1841C30.7364 50.4001 30.1091 50.6161 29.6909 50.9761C29.2727 51.3361 28.9939 51.6961 28.8545 52.1281C28.3667 53.5681 31.3636 54.2881 32.3394 54.5761L34.4303 55.0801C36.3121 55.5121 38.1939 56.0161 40.1455 56.3761L46.7667 57.3121C48.3 57.6001 49.7636 58.0321 51.297 58.1761C55.897 58.7521 60.5667 58.5361 65.2364 58.3201L73.3212 57.8161L78.9667 57.1681C82.7303 56.5921 86.4242 55.5121 90.1182 54.8641C92.0697 54.5761 93.8121 53.9281 95.4849 53.1361C96.4606 52.6321 96.4606 51.7681 95.4849 51.2641L94.1606 50.6881C94.1606 50.6881 93.1849 50.2561 92.7667 50.3281C92.3498 49.6946 91.9546 49.0462 91.5818 48.3841C92.6405 48.5341 93.6595 48.9013 94.5788 49.4641L95.2758 49.9681C96.092 50.5636 96.9051 51.1636 97.7152 51.7681C97.9242 51.9841 97.9939 52.2721 97.9242 52.4881L97.8545 52.7041C97.8545 52.7761 96.9485 54.1441 96.6697 54.2881C94.3697 55.5841 93.4636 56.0881 91.7212 56.5921C87.6091 57.6721 82.5212 58.2481 81.8242 58.3201C78.2697 58.6801 70.5333 60.0481 64.7485 59.6881C62.1 59.5441 54.503 59.9041 48.2303 58.8241L40.703 57.3841C38.403 56.8801 36.1727 56.2321 33.8727 55.6561L31.2242 54.9361L28.2273 53.8561C27.6697 53.7121 27.2515 53.3521 26.8333 52.9921C26.7574 52.9477 26.6926 52.8854 26.6441 52.8104C26.5957 52.7353 26.565 52.6496 26.5545 52.5601C26.5545 51.8401 26.7636 51.1201 27.3909 50.6161ZM32.9667 48.4561L33.803 46.7281C35.4008 44.0831 36.7988 41.3149 37.9848 38.4481C38.4727 37.7281 39.0303 37.0801 39.797 36.7201C41.0515 36.0001 42.3758 35.4961 43.7697 35.2801L46.7667 34.9921L45.0939 35.7121C44.1879 36.0721 43.4212 36.7921 43.7 37.8001C43.7 38.1601 44.3273 38.0161 44.2576 37.6561C43.9091 36.0721 46.7667 35.9281 47.603 35.1361C48.7879 33.9841 47.0455 31.5361 49.3455 31.1761C50.8091 30.9601 52.4121 33.3361 53.9455 32.6161C54.6424 32.2561 54.2939 31.1761 54.8515 30.5281C55.8273 29.9521 56.6636 30.3841 57.6394 29.6641C58.3364 29.1601 58.6152 28.2241 59.5212 27.9361C60.2879 27.6481 61.2636 27.6481 62.0303 27.5041C62.6576 27.5041 63.2152 27.6481 63.8424 27.5041C64.4 27.2161 64.6788 26.7841 65.097 26.4961C66.3515 25.4161 68.5818 24.9121 70.1152 24.8401C71.3697 24.7681 72.4152 25.4161 72.6242 26.7121C72.6939 27.3601 72.4152 28.0081 72.5545 28.5841C72.6939 29.5921 73.6697 29.7361 74.6455 29.6641C75.3424 29.5201 76.4576 28.8001 76.9455 29.5201C77.2242 29.9521 77.1545 30.9601 77.2939 31.3921C77.5727 32.1121 78.0606 31.8961 78.6879 31.8961C79.1061 31.8961 79.7333 31.9681 80.0818 32.2561C80.7788 32.6881 80.5 33.5521 80.2212 34.1281C80.0121 34.5601 79.803 34.9201 80.0121 35.4241C80.1185 35.8755 80.3629 36.2795 80.7091 36.5761C80.9182 36.7201 81.6849 37.5841 81.4061 37.8721L80.8485 38.0161L74.9939 38.9521C74.4364 39.0241 71.0212 40.0321 68.5818 39.9601L62.4485 39.7441C57.0121 39.5281 51.5758 39.3121 46.1394 38.6641C44.735 38.4631 43.3397 38.1988 41.9576 37.8721C41.8935 37.8768 41.8292 37.8685 41.7682 37.8475C41.7073 37.8265 41.6509 37.7934 41.6024 37.7499C41.5538 37.7065 41.5141 37.6536 41.4853 37.5942C41.4566 37.5349 41.4394 37.4703 41.4349 37.4041C41.4303 37.3379 41.4384 37.2714 41.4587 37.2085C41.4789 37.1455 41.511 37.0873 41.5531 37.0372C41.5952 36.987 41.6464 36.9459 41.7038 36.9162C41.7613 36.8865 41.8238 36.8688 41.8879 36.8641L41.8182 36.7201C41.4697 36.7201 41.1212 36.7921 40.9121 37.2241C40.7727 37.5841 41.0515 37.8001 41.4 37.9441C41.8879 38.1601 42.4455 38.4481 43.003 38.5201C46.9061 39.2401 50.7394 39.6001 54.6424 39.8161L62.2394 40.1041C66.003 40.3201 69.9061 40.5361 73.6697 40.0321L83.9849 37.8721C84.3823 37.773 84.7598 37.6024 85.1 37.3681C85.3091 37.2961 85.4485 37.0801 85.4485 36.9361C85.797 37.0801 86.703 37.2241 86.8424 37.5121C87.2606 38.0881 87.5394 38.7361 87.8182 39.3121L89.1424 42.5521C89.4909 43.5601 89.9788 44.4961 90.1879 45.5041C90.4157 46.6644 90.8154 47.7816 91.3727 48.8161C92.0607 50.1858 92.9029 51.4666 93.8818 52.6321C93.9515 52.7761 94.1606 52.8481 94.3 52.9201L94.3697 52.7761C93.9515 51.9841 93.6727 51.7681 93.1849 50.9761L92.9758 50.6881L94.0909 51.0481L95.2061 51.5521C95.4849 51.6961 95.7636 51.9841 95.7636 52.2721C95.7636 52.4161 95.4849 52.7041 95.2061 52.7761C94.0212 53.2801 92.7667 53.8561 91.5121 54.1441C88.7242 54.7201 85.9364 55.0801 83.1485 55.7281C79.9424 56.4481 63.8424 57.9601 60.5667 58.1041C57.5697 58.1041 54.5727 58.1761 51.5061 57.8161L46.9758 56.8801L40.4242 56.0161C38.3333 55.6561 36.1727 55.1521 34.0818 54.5761C32.5485 54.2881 31.0849 54.0001 29.9 52.9201C29.5515 52.5601 29.4121 52.3441 29.6212 51.9121C29.9697 51.1921 30.597 50.9041 31.2939 50.4721C31.4333 50.4721 31.5727 50.5441 31.503 50.6881L31.3636 52.0561C31.3636 52.0561 31.4333 52.1281 31.503 52.0561C31.9909 50.9761 32.5485 49.3201 33.0364 48.4561H32.9667ZM98.0636 51.4801L97.9242 51.3361L97.7849 51.2641C97.0182 50.6881 96.1818 50.1841 95.4849 49.5361L94.6485 48.9601C93.8121 48.4561 92.8364 48.2401 91.8606 48.0241C91.5121 48.0241 91.303 47.8081 91.1636 47.4481C90.8849 46.3681 90.7455 45.2881 90.3273 44.2801C89.4212 42.2641 88.7242 40.1761 87.6788 38.2321L87.4697 37.7281C87.1909 37.0081 85.0303 35.7121 84.2636 35.7841C83.5667 35.4961 82.8697 35.2081 82.1727 35.0641L81.0576 34.9921L80.7788 35.1361L80.6394 35.2801L81.4758 35.4241C82.5212 35.5681 83.5667 35.9281 84.4727 36.2881C84.6818 36.3601 84.8212 36.6481 85.0303 36.7921L84.4727 37.2961L83.4273 37.5841C83.2879 37.5841 83.0788 37.5841 83.0091 37.3681C82.7303 36.8641 81.9636 36.4321 81.6152 36.2881C81.197 36.1441 80.9182 36.0721 80.7091 35.6401C80.3606 35.0641 80.7091 34.7041 80.8485 34.1281C81.0576 33.5521 81.197 32.9041 80.9879 32.4001C80.5697 31.4641 79.3152 31.2481 78.4091 31.3201C77.7121 31.3201 77.8515 30.9601 77.7121 30.4561C77.5727 30.0241 77.503 29.6641 77.2242 29.3761C76.8758 29.0881 76.3182 28.8721 75.9 28.8721L75.0636 28.9441L74.3667 29.0881C72.5545 29.8081 73.1121 28.1521 73.2515 27.8641C73.1121 26.6401 73.2515 25.4161 71.8576 24.7681C70.5333 24.1921 68.7909 24.6241 67.397 24.8401C66.7 25.0561 65.9333 25.2721 65.2364 25.6321C64.4697 26.1361 64.0515 26.8561 63.1455 27.0721C61.4727 27.2881 59.5909 27.2161 58.197 28.2961C57.7788 28.6561 57.5 29.2321 56.8727 29.3761C56.4545 29.5921 55.897 29.5201 55.4788 29.5201C54.7818 29.5201 54.1545 29.6641 53.6667 30.1681C53.5273 30.2401 53.5273 30.8161 53.6667 30.8881C53.8061 31.8241 53.5273 31.8241 52.4818 31.6081C52.203 31.6081 51.9242 31.4641 51.6455 31.3201L50.6697 30.8881C50.2369 30.6693 49.7567 30.57 49.2758 30.6001C48.2303 30.7441 47.3939 31.6801 47.3939 32.6881V33.3361C47.4636 33.9841 46.9758 34.5601 46.3485 34.5601H46.1394C43.8394 34.8481 41.9576 35.3521 39.797 36.1441C38.403 36.7201 38.1939 37.4401 38.1939 37.4401C38.1939 37.5121 37.6364 38.5201 37.497 38.5921L32.6182 47.8801C32.5183 48.0265 32.3692 48.1292 32.2 48.1681C30.1091 48.3841 28.3667 49.1761 26.9727 50.5441C26.6242 50.9041 26.3455 51.4081 26.2758 51.9121C26.1364 52.3441 26.2758 52.9201 26.2758 53.3521C26.2758 54.0721 26.5545 54.5041 26.9727 54.9361C27.6697 55.5841 28.3667 55.9441 29.2727 56.2321L31.5727 56.9521L37.1485 58.3201C38.8909 58.7521 40.5636 59.1841 42.3061 59.3281L49.4152 60.0481C52.6909 60.1921 56.0364 60.4801 59.3121 60.4801C64.0515 60.4801 68.8606 60.4081 73.6 60.2641C75.0636 60.2641 76.5273 60.1201 77.9909 59.9761C78.2697 59.9761 80.7788 59.4001 81.0576 59.2561L84.2636 58.7521L87.4 58.3201C90.2639 57.9619 93.0735 57.2364 95.7636 56.1601C96.5766 55.745 97.3277 55.2116 97.9939 54.5761C98.3424 54.2881 98.4818 53.7841 98.4818 53.1361C98.4818 52.5601 98.3424 51.8401 98.0636 51.4801Z" fill="#1D6C93"/>
<path fill-rule="evenodd" clip-rule="evenodd" d="M58.5455 30.888C58.5114 30.5452 58.4412 30.2072 58.3364 29.88L58.197 29.664L57.9182 29.232C57.3606 28.656 56.4546 28.656 55.7576 28.872L54.3636 29.664L54.1546 29.016C54.0152 28.728 53.7364 28.656 53.3879 28.656L52.9 28.8C52.7407 28.8201 52.593 28.8964 52.4818 29.016C52.3567 29.152 52.2403 29.2963 52.1333 29.448L51.9939 29.808L51.8546 30.528V31.248C51.9711 31.7434 52.1345 32.2257 52.3424 32.688L52.6212 32.976C52.6212 33.12 52.7606 33.264 52.8303 33.336L53.1788 33.912L53.5273 34.272L53.9455 34.92C54.0849 35.28 54.4333 35.496 54.9212 35.352C55.9334 34.9186 56.8213 34.2246 57.5 33.336C58.197 32.112 58.5455 31.464 58.5455 31.176V30.96V30.888ZM67.9546 24.696C67.8751 24.5432 67.7817 24.3985 67.6758 24.264L67.6061 24.192L67.397 23.976C66.9788 23.76 66.4909 23.904 66.1424 24.12C65.9479 24.2805 65.7827 24.4755 65.6546 24.696L65.3758 24.408H64.8879L64.6788 24.48L64.5394 24.624L64.4 24.984V25.56L64.5394 25.776V25.92L64.8182 26.352L65.097 26.568L65.2364 26.712L65.3758 26.856L65.7243 27.072L65.9333 27.216L66.2818 27.504C66.3515 27.648 66.5606 27.72 66.8394 27.576C67.397 27.216 67.8152 26.28 67.8152 26.136C68.0243 25.416 68.0939 25.056 68.0243 24.912V24.696H67.9546ZM74.3667 31.824C74.3871 31.6567 74.3871 31.4873 74.3667 31.32V31.248L74.297 31.032C74.0879 30.672 73.6697 30.6 73.3212 30.672C73.1121 30.672 72.8333 30.744 72.6243 30.888V30.528C72.5546 30.384 72.4152 30.312 72.2758 30.312H71.8576L71.6485 30.528L71.5091 30.672L71.3697 30.96V31.32V31.968L71.4394 32.184L71.5091 32.328L71.6485 32.616L71.7182 32.832L71.8576 33.12C71.8576 33.336 71.997 33.48 72.2758 33.408C72.8333 33.408 73.5303 32.832 73.6697 32.76L74.3667 31.968V31.824Z" fill="#E66C55"/>
<path d="M50.7394 38.0161H50.8091L51.3667 38.1601L51.8546 38.2321V38.0881L51.4364 37.2961C51.297 36.7921 51.1576 36.3601 50.7394 36.0721L50.5303 36.5761C50.5303 36.8641 50.391 37.0801 50.3213 37.2961L50.391 37.5841L50.8091 37.9441L50.7394 38.0161ZM52.3425 37.8721L52.4122 38.0881V38.3761C52.4122 38.5201 52.3425 38.7361 52.1334 38.8081L51.7152 38.8801L50.8091 38.6641C50.7394 38.6641 50.1819 38.3761 50.1122 38.1601L49.9728 38.0881L49.8334 37.9441C49.694 37.8721 49.4849 37.6561 49.694 37.3681L49.7637 37.0801L49.8334 36.8641C50.0084 36.4154 50.2182 35.982 50.4607 35.5681C50.4607 35.4241 50.6 35.3521 50.6697 35.3521L51.0879 35.4241C51.3667 35.6401 51.5061 35.9281 51.6455 36.1441L52.1334 37.3681L52.2728 37.7281V37.8721H52.3425ZM61.0546 35.5681V35.2801H60.6364C60.0091 35.4241 59.7303 35.8561 59.3819 36.2881L59.4516 36.4321L59.8697 36.2881C60.0788 36.2881 60.2182 36.3601 60.4273 36.5041H60.6364C60.8455 36.2161 60.9849 35.9281 60.9849 35.5681H61.0546ZM61.5425 34.9201C61.6819 35.1361 61.7516 35.4241 61.6819 35.6401L61.194 36.7921C61.194 36.9361 60.9152 37.2241 60.2879 37.1521L59.9394 37.2241H59.8C59.4516 37.2241 59.1728 37.0801 59.0334 36.8641C58.8243 36.5761 58.894 36.1441 59.0334 35.8561C59.3122 35.4241 59.6607 35.0641 60.0788 34.8481C60.3576 34.6321 60.7758 34.5601 61.0546 34.6321C61.2637 34.6321 61.4728 34.7761 61.5425 34.9201ZM67.8152 36.3601C68.2334 36.5761 68.7213 36.8641 68.791 37.2961C68.791 37.4401 68.791 37.6561 68.6516 37.8721C68.3031 38.3761 67.5364 38.5201 66.8394 38.5201L66.1425 38.4481C65.3061 38.3041 64.5394 37.7281 64.6091 37.0081C64.6788 36.2881 65.3758 35.8561 66.5607 35.8561C66.7001 35.8561 66.8394 35.9281 66.8394 36.0721C66.8394 36.2161 66.7001 36.3601 66.5607 36.3601L65.8637 36.4321C65.7243 36.4321 65.5849 36.4321 65.5152 36.5761L65.4455 36.9361V37.0081C65.3061 37.1521 65.2364 37.2961 65.3061 37.3681C65.3061 37.5121 65.3061 37.5841 65.5152 37.5841C65.7243 37.8001 66.0728 37.8721 66.491 37.9441C66.9788 37.9441 67.6758 37.9441 67.8849 37.8001C68.094 37.6561 68.2334 37.5121 68.2334 37.3681C68.2334 37.1521 67.8849 37.0081 67.6061 36.7921L67.397 36.6481V36.2881C67.4667 36.2161 67.6061 36.1441 67.7455 36.2881H67.8152V36.3601ZM74.994 35.0641C75.6213 35.4241 76.0394 36.1441 75.691 36.8641C75.4819 37.2241 75.1334 37.3681 74.7152 37.3681C74.38 37.3573 74.0495 37.2841 73.7394 37.1521C73.6001 37.1521 73.5304 37.0081 73.6 36.8641C73.6 36.7201 73.8091 36.6481 73.9485 36.7201L74.5061 36.8641C74.6455 36.8641 74.7152 36.9361 74.7849 36.8641L74.994 36.5761C75.2031 36.4321 75.2728 36.3601 75.2728 36.2161V36.0001L74.5758 35.3521C74.1576 35.2081 73.6 34.9921 73.3213 35.0641C73.1122 35.0641 73.0425 35.2081 72.9728 35.2801C72.9031 35.4961 73.1122 35.7841 73.2516 36.0001L73.3213 36.1441C73.391 36.2881 73.3213 36.4321 73.2516 36.5041H72.9031V36.3601C72.5546 35.9281 72.1364 35.2081 72.7637 34.7761C73.4607 34.2721 74.5061 34.7761 74.994 35.0641ZM68.7213 31.1761C68.6588 31.1448 68.6099 31.0905 68.5841 31.0239C68.5584 30.9574 68.5576 30.8832 68.5819 30.8161L68.3728 30.8881C67.6758 30.8881 66.9788 31.0321 66.2819 31.3201L66.7 31.3921C67.4723 31.4165 68.2447 31.3439 69 31.1761H68.7213ZM65.9334 31.7521C65.7243 31.6081 65.6546 31.4641 65.6546 31.3921C65.6546 31.2481 65.6546 31.0321 66.0031 30.8881C66.7477 30.5429 67.5567 30.3709 68.3728 30.3841C68.5819 30.3841 68.6516 30.4561 68.6516 30.6001V30.6721H69.2091C69.4879 30.6721 69.6273 30.8881 69.697 31.1041C69.697 31.3201 69.697 31.5361 69.4879 31.6081L69.0697 31.7521C68.2674 31.9212 67.4488 31.9937 66.6304 31.9681C66.3836 31.9611 66.1431 31.8866 65.9334 31.7521ZM70.1152 33.8401L70.0455 33.6961V33.6241H68.8607C68.6168 33.6872 68.3824 33.7841 68.1637 33.9121C68.7213 34.0561 69.4879 34.0561 70.1152 33.8401ZM70.6031 33.3361C70.8122 33.3361 70.9516 33.4801 71.0213 33.6241C71.0213 33.6241 71.1607 33.9841 70.6728 34.2001C69.8401 34.5839 68.905 34.6602 68.0243 34.4161C67.8976 34.4019 67.777 34.3521 67.6758 34.2721C67.6313 34.2315 67.5957 34.1817 67.5713 34.1258C67.5468 34.07 67.5342 34.0094 67.5342 33.9481C67.5342 33.8868 67.5468 33.8262 67.5713 33.7703C67.5957 33.7145 67.6313 33.6646 67.6758 33.6241C67.6758 33.5521 67.8152 33.4081 68.0243 33.3361L68.8607 33.1201H69.9061C70.0455 33.1201 70.1849 33.1201 70.1849 33.3361H70.6031ZM62.2394 32.5441C62.1012 32.5697 61.9595 32.5697 61.8213 32.5441C61.6122 32.5441 61.4031 32.3281 61.2637 32.1841L60.7758 31.6801V31.4641L60.8455 31.3201H61.2637L61.6122 31.8241L61.9607 32.0401H62.1C62.3091 32.0401 62.4485 31.8961 62.5182 31.8241C62.5879 31.7521 62.7273 31.6081 62.7273 31.4641C62.7273 31.4641 62.5879 31.2481 62.3091 31.1041C62.0304 30.9601 61.5425 30.8161 60.9152 31.2481H60.497V30.9601L60.5667 30.7441C61.4728 30.1681 62.1697 30.3121 62.5182 30.5281C63.0061 30.7441 63.2152 31.1761 63.2152 31.3921C63.2152 31.6801 63.1455 31.9681 62.9364 32.1121C62.7273 32.3281 62.5182 32.4001 62.2394 32.4721V32.5441ZM78.0607 33.9841L77.991 33.8401C77.8516 33.6241 77.6425 33.4801 77.294 33.4081C77.1758 33.4068 77.0612 33.4499 76.9715 33.5294C76.8818 33.6088 76.823 33.7192 76.8061 33.8401L77.0849 34.0561C77.4029 34.1563 77.7426 34.1563 78.0607 34.0561V33.9841ZM78.4788 33.6241C78.6879 33.8401 78.6879 34.1281 78.5485 34.3441C78.4557 34.4502 78.3344 34.5254 78.2 34.5601C77.7688 34.6986 77.307 34.6986 76.8758 34.5601C76.5273 34.4161 76.3182 34.2001 76.2485 33.9121V33.8401C76.2485 33.5521 76.4576 33.2641 76.6667 33.1201C76.8758 32.9041 77.1546 32.8321 77.3637 32.9041C77.991 32.9041 78.2001 33.2641 78.4091 33.5521L78.4788 33.6241ZM68.4425 28.9441C68.1637 28.8001 68.0243 28.5841 68.0243 28.2961C68.0243 28.0801 68.2334 27.8641 68.4425 27.7201L69 27.5761H69.2091L69.3485 27.7921C69.3485 27.9361 69.2091 28.0801 69.0697 28.1521H68.7213L68.5819 28.3681L68.7213 28.5121H69.0697C69.5387 28.5336 70.0082 28.4851 70.4637 28.3681L70.394 28.2241C70.2783 28.209 70.1612 28.209 70.0455 28.2241H69.7667C69.7295 28.2157 69.6943 28.1996 69.6634 28.1767C69.6325 28.1538 69.6064 28.1245 69.5868 28.0908C69.5672 28.0571 69.5545 28.0196 69.5495 27.9806C69.5445 27.9416 69.5472 27.9019 69.5576 27.8641L69.6273 27.6481H70.4637C70.8122 27.7201 71.1607 28.0081 71.091 28.3681C71.091 28.5841 70.9516 28.7281 70.7425 28.8721C70.6114 28.9427 70.4702 28.9913 70.3243 29.0161C69.8871 29.0937 69.4427 29.1179 69 29.0881C68.8065 29.0806 68.6166 29.0316 68.4425 28.9441ZM73.1122 32.9761H73.2516L73.4607 32.8321H73.5304C73.6289 32.7682 73.7222 32.696 73.8091 32.6161H73.9485L74.0182 32.5441L74.1576 32.4001L74.297 32.2561C74.3955 32.129 74.4667 31.9817 74.5061 31.8241C74.5234 31.6566 74.5234 31.4876 74.5061 31.3201V31.1761C74.5083 31.1281 74.5083 31.08 74.5061 31.0321L74.4364 30.9601H74.3667L74.297 30.8881H74.2273L74.0879 30.8161H73.7394C73.4829 30.8777 73.2441 31.0011 73.0425 31.1761H72.9728L72.694 31.3201V30.8881V30.7441C72.7637 30.6721 72.694 30.5281 72.694 30.4561L72.6243 30.3121H72.4849H72.4152H72.2758H72.2061L71.9273 30.4561L71.8576 30.6001L71.7182 30.8161V31.1041L71.6485 31.2481V31.6801C71.6394 31.8239 71.6394 31.9682 71.6485 32.1121L71.7182 32.2561C71.7426 32.3035 71.7659 32.3515 71.7879 32.4001V32.4721L71.8576 32.6881L71.9273 32.8321L71.997 33.0481C71.997 33.1201 71.997 33.1921 72.1364 33.2641H72.5546V33.1201H72.7637L73.1122 32.9041V32.9761ZM74.7152 30.9601C74.7752 31.074 74.8219 31.1949 74.8546 31.3201V31.8241L74.7849 32.0401C74.6756 32.274 74.507 32.4731 74.297 32.6161L74.2273 32.6881L74.0879 32.8321H73.9485C73.9485 32.9041 73.9485 32.9761 73.8091 32.9761L73.6697 33.0481H73.6L73.4607 33.1921C73.2559 33.2768 73.0464 33.349 72.8334 33.4081H72.7637H72.694H72.6243L72.4849 33.4801C72.3881 33.4838 72.2932 33.5083 72.2061 33.5521V33.6961H71.997V33.6241H71.9273C71.9231 33.5762 71.9231 33.528 71.9273 33.4801L71.7182 33.1201V32.9761C71.6341 32.84 71.564 32.6952 71.5091 32.5441V32.4001L71.4394 32.2561V32.0401L71.3697 31.7521V31.1761C71.3623 31.1043 71.3623 31.0319 71.3697 30.9601V30.8881L71.5091 30.7441L71.5788 30.5281L71.7879 30.3841L71.997 30.1681L72.3455 30.0241H72.5546C72.8334 30.0961 72.9728 30.2401 73.0425 30.4561C73.062 30.5752 73.062 30.6969 73.0425 30.8161C73.2402 30.6956 73.4507 30.5989 73.6697 30.5281L74.2273 30.6001L74.4364 30.6721L74.5758 30.7441L74.7152 30.8881V30.9601ZM66.9091 27.2161L67.0485 27.0001L67.1879 26.6401H67.2576L67.3273 26.4241V26.2801H67.397V26.2081C67.4542 26.0928 67.5009 25.9723 67.5364 25.8481V25.7761V25.5601C67.5572 25.4396 67.5805 25.3196 67.6061 25.2001C67.6126 24.9984 67.5644 24.7989 67.4667 24.6241C67.339 24.4903 67.199 24.3697 67.0485 24.2641L66.9788 24.1921C66.9106 24.1639 66.8407 24.1398 66.7697 24.1201H66.6304H66.491H66.4213L66.2819 24.1921C66.1425 24.1921 66.0031 24.3361 65.9334 24.4801L65.794 24.6961L65.6546 25.2001V25.4881L65.3758 25.4161L65.3061 25.2721L65.1667 25.1281L64.8879 24.9121H64.6788H64.6091L64.4697 25.0561H64.4001L64.3304 25.2001V25.9201L64.4001 26.0641L64.5394 26.2801L64.6788 26.3521C64.6788 26.4961 64.8182 26.6401 64.9576 26.7121C65.0921 26.8154 65.2317 26.9116 65.3758 27.0001C65.4426 27.0524 65.5125 27.1005 65.5849 27.1441H65.7243V27.2161L65.9334 27.2881L66.0728 27.3601H66.1425L66.3516 27.5041L66.6304 27.6481L66.9091 27.2161ZM67.6061 24.4801L67.7455 24.6961L67.8849 25.2001V25.6321L67.8152 25.7761V25.9201L67.7455 26.1361L67.6758 26.2801V26.3521H67.6061L67.5364 26.5681V26.7121L67.397 26.7841L67.2576 27.1441V27.2161L67.1182 27.2881L66.7697 28.0081C66.7247 28.0245 66.6754 28.0245 66.6304 28.0081L66.5607 27.9361L66.1425 27.7921L65.9334 27.7201L65.7243 27.5761L65.5152 27.5041L65.3758 27.3601C65.3073 27.3326 65.2375 27.3086 65.1667 27.2881L64.9576 27.1441L64.6788 26.9281C64.5394 26.8561 64.4001 26.7121 64.3304 26.4961H64.2607L64.1213 26.2801L64.0516 26.1361V26.0641L63.9122 25.7761V25.4881V25.1281L64.1213 24.8401C64.1918 24.7934 64.2615 24.7454 64.3304 24.6961C64.5394 24.5521 64.8182 24.5521 65.0273 24.6961C65.1295 24.7543 65.2234 24.827 65.3061 24.9121C65.3728 24.685 65.4665 24.4674 65.5849 24.2641C65.7243 24.0481 65.9334 23.9761 66.1425 23.9041L66.3516 23.8321H66.491C66.5607 23.7601 66.6304 23.7601 66.7697 23.8321H66.8394C66.9626 23.8914 67.0794 23.9637 67.1879 24.0481C67.3442 24.1735 67.4847 24.3186 67.6061 24.4801ZM56.1758 28.5841L55.897 28.6561C55.6879 28.6561 55.4091 28.7281 55.2 28.9441C55.0738 29.0532 54.9572 29.1737 54.8516 29.3041L54.294 30.1681L54.2243 30.3121L53.9455 30.7441L53.6667 30.3121C53.4928 29.9456 53.3068 29.5854 53.1091 29.2321C52.9697 29.0881 52.7607 29.0161 52.5516 29.0881L52.2728 29.2321H52.1334L51.9243 29.4481L51.6455 30.0241V30.9601L51.7849 31.3201V31.3921L51.8546 31.6081C51.9243 31.8961 52.0637 32.1121 52.2728 32.3281L52.6213 32.8321C52.6213 32.9761 52.7607 33.0481 52.8304 33.1201L52.9697 33.2641C53.114 33.3779 53.2535 33.498 53.3879 33.6241L53.6667 33.9121L53.8758 34.1281L54.0152 34.2001L54.294 34.4881L54.7122 34.8481L55.4091 34.2721L55.7576 33.9841L56.2455 33.4801L56.3849 33.3361L56.594 33.0481L56.7334 32.9041V32.8321L56.8728 32.6881L57.0819 32.4721L57.2213 32.1841L57.291 32.0401L57.3607 31.9681L57.5 31.7521L57.5697 31.4641L57.7091 31.1041C57.8008 30.7503 57.8008 30.3778 57.7091 30.0241C57.5981 29.7223 57.458 29.4329 57.291 29.1601L57.1516 28.9441L56.8728 28.7281L56.6637 28.5841H56.1758ZM58.0576 29.3041L58.3364 29.8801V31.3201L58.1273 31.7521L58.0576 32.0401L57.8485 32.3281V32.4001L57.7788 32.5441C57.6577 32.7495 57.5176 32.9424 57.3607 33.1201L57.291 33.2641H57.1516L57.0122 33.4801C56.8761 33.651 56.7367 33.819 56.594 33.9841L56.1061 34.4161C56.1061 34.4161 56.1061 34.5601 55.9667 34.5601L55.8273 34.7041L55.7576 34.7761L55.5485 34.9201C55.4091 34.9201 55.2697 35.1361 55.1303 35.2801L54.7122 35.5681H54.5728L54.4334 35.4961L53.7364 34.9921C53.7364 34.8481 53.597 34.7761 53.5273 34.7041H53.4576L53.1788 34.4161L52.9 34.1281L52.691 33.9121L52.5516 33.7681L52.3425 33.6241L52.0637 33.2641C51.9417 33.1004 51.8255 32.9323 51.7152 32.7601C51.5061 32.4721 51.297 32.1841 51.2273 31.8241V31.6801L51.1576 31.6081C51.0861 31.4168 51.0164 31.2248 50.9485 31.0321V30.7441V30.3121C50.9485 30.0961 50.9485 29.9521 51.0879 29.8081L51.3667 29.1601L51.7849 28.8001L51.9243 28.7281L52.2728 28.5841C52.7607 28.4401 53.1788 28.5841 53.4576 28.8721L53.8758 29.5201C54.114 29.1503 54.3948 28.8118 54.7122 28.5121C55.0607 28.2241 55.4091 28.0801 55.897 28.0801H56.6637C56.8031 28.0801 56.9425 28.0801 57.0819 28.2241H57.1516L57.291 28.3681C57.4661 28.5226 57.6293 28.6911 57.7788 28.8721L58.0576 29.3761V29.3041Z" fill="#1D6C93"/>
<path d="M57.4304 24.984L57.7788 25.56C57.9879 25.92 58.3364 26.352 58.197 26.568C57.9879 26.568 57.7091 26.064 57.5 25.704C57.5 25.56 57.3607 25.416 57.1516 25.128L56.9425 24.768V25.344C56.9425 25.488 57.0122 25.704 56.8728 25.776C56.6637 25.776 56.6637 25.56 56.6637 25.344V24.768V24.624L56.4546 24.768L56.1758 25.128C55.8273 25.416 55.4091 25.848 55.2697 25.848C55.2001 25.632 55.6182 25.272 55.9667 24.912L56.2455 24.624L56.5243 24.336H56.0364C55.5485 24.336 54.9213 24.408 54.9213 24.264C55.2697 24.12 55.5485 24.048 56.0364 24.048H56.4546L56.3152 23.832C56.0364 23.472 55.6182 22.968 55.8273 22.896C55.9667 22.752 56.3152 23.328 56.5243 23.616L56.594 23.76V23.112C56.594 22.968 56.7334 22.896 56.8031 22.752C56.8728 22.752 57.0122 22.752 56.9425 23.184C56.9425 23.184 56.8728 23.472 56.9425 23.76V23.976L57.3607 23.544L57.8485 23.04L58.6849 22.392C58.2199 22.9437 57.7553 23.4957 57.291 24.048H57.6394C58.1273 24.048 58.6152 23.976 58.7546 24.12C58.7546 24.336 58.0576 24.264 57.6394 24.336H56.9425C57.1047 24.5523 57.2674 24.7683 57.4304 24.984ZM45.094 29.808V29.664V29.592H45.3728C45.488 29.5704 45.606 29.5704 45.7213 29.592C45.7213 29.448 45.7213 29.448 45.8607 29.376L45.9304 29.16L46 29.088L46.0697 28.944H46.1394C46.2088 29.0403 46.2785 29.1363 46.3485 29.232V29.592H47.1152V29.736L46.9061 29.88L46.7667 29.952L46.697 30.024V30.168L46.7667 30.456V30.744C46.8364 30.744 46.7667 30.744 46.7667 30.816L46.6273 30.744L46.4879 30.672H46.4182H46.2788L46.2091 30.6H46L45.7213 30.744L45.5819 30.888H45.5122V30.816V30.672V30.6V30.456V30.24L45.3728 30.096L45.1637 29.952H45.094V29.88V29.808ZM60.4273 27C60.2879 27.144 60.0091 27 60.0091 26.856C60.1576 26.2249 60.3922 25.6188 60.7061 25.056C60.9727 24.4693 61.2998 23.9141 61.6819 23.4C61.8213 23.256 62.0303 23.4 62.0303 23.544C61.8828 24.1755 61.6481 24.7817 61.3334 25.344C61.0659 25.9302 60.7388 26.4853 60.3576 27H60.4273ZM52.8304 26.64C52.9 26.856 52.691 26.928 52.5516 26.784C52.0057 26.0715 51.5814 25.2679 51.297 24.408C50.9901 23.5766 50.8022 22.7034 50.7394 21.816C50.7394 21.672 51.0182 21.6 51.0879 21.816C51.4563 22.5884 51.7821 23.3816 52.0637 24.192C52.3407 25.0007 52.5964 25.817 52.8304 26.64ZM50.1819 29.088C50.3213 29.232 50.1819 29.376 49.9728 29.304C48.2559 28.0814 46.6255 26.734 45.094 25.272L43.9091 24.264C43.7697 24.12 43.9091 23.904 44.1182 23.976C45.2899 24.6155 46.3886 25.3883 47.394 26.28C48.405 27.1253 49.3383 28.0653 50.1819 29.088ZM45.8607 33.048C46.0697 33.048 46.0001 33.336 45.8607 33.336C44.8153 33.4136 43.7653 33.3895 42.7243 33.264C41.6904 33.1454 40.6657 32.953 39.6576 32.688C39.4485 32.688 39.5182 32.4 39.6576 32.4C40.7029 32.3212 41.7531 32.3453 42.794 32.472C43.8276 32.5922 44.8522 32.7846 45.8607 33.048ZM54.5031 44.064L54.991 44.784C55.2697 45.36 55.6879 45.936 55.5485 46.152C55.2697 46.224 54.9213 45.504 54.6425 45L54.1546 44.28L53.8758 43.848V44.568C53.9455 44.784 54.0152 45.072 53.8061 45.144C53.5273 45.144 53.5273 44.856 53.5273 44.64C53.5176 44.3041 53.5176 43.9679 53.5273 43.632L53.2485 43.848L52.8304 44.28C52.4122 44.712 51.8546 45.288 51.7152 45.144C51.5758 44.928 52.1334 44.424 52.5516 43.992L52.9697 43.56C53.0859 43.44 53.202 43.32 53.3182 43.2H52.6213C52.0637 43.2 51.2273 43.344 51.2273 43.128L52.6213 42.84H53.2485L53.0394 42.552C52.691 42.048 52.1334 41.472 52.3425 41.256C52.5516 41.184 53.0394 41.832 53.3879 42.336L53.4576 42.48V41.616C53.4576 41.4 53.597 41.328 53.7364 41.112C53.8061 41.112 53.9455 41.112 53.8758 41.688V42.696L54.4334 42.192L55.0607 41.472C55.4788 41.112 55.7576 40.896 56.2455 40.68C56.4546 40.68 55.7576 41.4 55.3394 41.832C54.9908 42.1678 54.6423 42.5038 54.294 42.84H54.8516C55.4091 42.84 56.1061 42.768 56.2455 42.984C56.3849 43.2 55.4788 43.2 54.8516 43.2H53.9455L54.1546 43.488L54.5031 44.064ZM60.9152 45.504C60.9152 45.72 60.6364 45.792 60.5667 45.576C60.2787 45.0086 60.0676 44.4029 59.9394 43.776C59.8209 43.1357 59.7742 42.4834 59.8 41.832C59.8 41.688 60.0788 41.616 60.1485 41.832C60.4374 42.3991 60.6485 43.0049 60.7758 43.632C60.888 44.2489 60.9347 44.8766 60.9152 45.504ZM47.6728 46.368C47.6728 46.512 47.394 46.512 47.394 46.368C47.2167 45.4915 47.1931 44.5892 47.3243 43.704C47.4306 42.809 47.6655 41.9354 48.0213 41.112C48.091 40.968 48.3697 41.04 48.3697 41.184C48.3258 42.0529 48.2327 42.9184 48.091 43.776C47.9983 44.6432 47.8821 45.5076 47.7425 46.368H47.6728ZM44.1182 40.32C44.2576 40.248 44.397 40.392 44.3273 40.536C43.0452 42.1988 41.6476 43.763 40.1455 45.216L39.0304 46.296C38.891 46.44 38.6819 46.296 38.7516 46.152C39.4134 45.0001 40.2092 43.9362 41.1213 42.984C42.0366 42.0002 43.04 41.1082 44.1182 40.32ZM43.6304 37.44C43.8394 37.44 43.8394 37.656 43.6304 37.656C41.5386 38.1129 39.4198 38.4256 37.2879 38.592L35.6849 38.736C35.4758 38.736 35.4061 38.52 35.6152 38.448C36.9023 37.9867 38.2345 37.6728 39.5879 37.512C40.929 37.3451 42.2814 37.2969 43.6304 37.368V37.44ZM74.297 26.28L74.7152 27C74.994 27.504 75.4122 28.08 75.2728 28.296C74.9243 28.368 74.6455 27.72 74.3667 27.216L73.8788 26.496C73.8788 26.352 73.7394 26.208 73.6 26.064L73.6697 26.784C73.6697 27 73.7394 27.216 73.5303 27.288C73.2516 27.36 73.3213 27 73.3213 26.784C73.2901 26.4727 73.2669 26.1606 73.2516 25.848L73.0425 26.064L72.6243 26.496C72.2061 26.856 71.6485 27.504 71.5091 27.36C71.3697 27.072 71.9273 26.64 72.3455 26.208L72.7637 25.776L73.1122 25.488H72.4152C71.8576 25.488 71.0213 25.56 71.0213 25.344C71.5091 25.2 71.8576 25.128 72.4152 25.128H72.9728L72.7637 24.768C72.4849 24.336 71.9273 23.688 72.1364 23.544C72.3455 23.472 72.8334 24.12 73.1122 24.624L73.1819 24.696V23.976L73.4607 23.4C73.6 23.4 73.7394 23.4 73.6697 23.904C73.6697 24.048 73.5303 24.336 73.6697 24.768V24.984L74.1576 24.408L74.7849 23.832C75.2031 23.4 75.4819 23.184 75.9 22.968C76.1091 22.968 75.4819 23.688 75.0637 24.048L74.4364 24.696L74.0182 25.056H74.5758C75.1334 25.056 75.8303 24.984 75.9697 25.2C76.0394 25.416 75.1334 25.416 74.5758 25.416H73.6697C73.8519 25.7066 74.0377 25.9946 74.2273 26.28H74.297ZM82.1031 30.024C82.8993 28.981 83.8116 28.0385 84.8213 27.216C85.8244 26.3972 86.8975 25.6743 88.0273 25.056C88.1667 24.984 88.3061 25.128 88.2364 25.272C86.755 26.7129 85.1707 28.0367 83.497 29.232L82.2425 30.24C82.1031 30.384 81.894 30.24 82.0334 30.096L82.1031 30.024ZM89.2122 42.264C88.0521 41.4693 86.9565 40.5784 85.9364 39.6L85.2394 38.88C85.1 38.808 85.2394 38.592 85.3788 38.664C86.2157 39.0127 86.9924 39.499 87.6788 40.104C88.3399 40.67 88.9258 41.3236 89.4213 42.048C89.491 42.192 89.3516 42.336 89.2122 42.264ZM87.8182 35.64C89.1205 35.548 90.4286 35.5963 91.7213 35.784C93.0422 35.9293 94.3483 36.1943 95.6243 36.576C95.7637 36.576 95.7637 36.864 95.6243 36.864C93.52 36.7715 91.4242 36.531 89.3516 36.144C88.794 36.144 88.3061 36 87.7485 35.928C87.6091 35.928 87.6091 35.712 87.7485 35.64H87.8182ZM84.8213 32.976C85.7543 32.0681 86.7829 31.2711 87.8879 30.6C88.9932 29.87 90.1595 29.2435 91.3728 28.728C91.5122 28.728 91.6516 28.872 91.5122 29.016C89.8778 30.2764 88.1537 31.4076 86.3546 32.4L84.9607 33.12C84.891 33.264 84.7516 33.12 84.8213 32.976ZM80.0122 27.936C79.9425 28.008 79.6637 27.936 79.7334 27.792C79.8321 27.1668 80.02 26.5602 80.291 25.992C80.578 25.4011 80.9287 24.8456 81.3364 24.336C81.4061 24.192 81.6849 24.336 81.6152 24.48C81.5155 25.1049 81.3276 25.7114 81.0576 26.28C80.7657 26.8455 80.4151 27.3766 80.0122 27.864V27.936ZM66.491 46.656C66.491 46.728 66.2122 46.8 66.1425 46.656C65.9217 45.8367 65.8508 44.9821 65.9334 44.136C65.9752 43.2992 66.1397 42.4738 66.4213 41.688C66.491 41.544 66.7697 41.616 66.7697 41.688C66.7985 42.5287 66.7753 43.3704 66.7 44.208C66.652 45.0019 66.5823 45.7942 66.491 46.584V46.656ZM83.2879 43.704C83.3576 43.848 83.1485 43.992 83.0091 43.92C82.5094 43.5011 82.0643 43.017 81.6849 42.48C81.3253 41.9638 81.0214 41.4085 80.7788 40.824C80.7091 40.68 80.9182 40.536 81.0576 40.608C81.5367 41.0274 81.9587 41.5118 82.3122 42.048C82.6951 42.5615 83.0223 43.1168 83.2879 43.704ZM75.1334 46.296C75.1334 46.512 74.9243 46.584 74.7849 46.44C74.294 45.74 73.9173 44.9617 73.6697 44.136C73.4074 43.298 73.2664 42.4246 73.2516 41.544C73.2516 41.4 73.5303 41.328 73.6 41.544C73.925 42.3178 74.2043 43.1113 74.4364 43.92L74.8546 45.36L75.1334 46.296Z" fill="#E66C55"/>
<path d="M10.803 44.4961C9.34252 43.5154 8.08712 42.2422 7.11103 40.7518C6.13493 39.2614 5.45795 37.584 5.12008 35.8187C4.78221 34.0534 4.79032 32.2361 5.14392 30.474C5.49752 28.712 6.18944 27.0411 7.17878 25.5601C11.3606 19.2961 18.1909 19.8001 24.3242 24.1201C30.4576 28.2961 33.5939 34.5601 29.4121 40.8241C25.2303 47.0161 16.9364 48.7441 10.803 44.4241V44.4961Z" fill="#1D6C93"/>
<path d="M16.797 36.0001C16.797 37.3681 17.4243 37.8001 18.191 37.8001H18.3303C19.0273 37.8001 19.6546 37.3681 19.6546 36.3601V36.2161C19.6546 35.2801 19.1667 34.8481 18.3303 34.8481H16.8667V32.8321H18.2607C19.097 32.8321 19.5849 32.4721 19.5849 31.6081V31.4641C19.5849 30.7441 19.0273 30.1681 18.3303 30.1681H18.1213C17.2849 30.1681 16.797 30.6721 16.797 32.1121H14.6364V31.8241C14.6364 29.3761 15.8213 28.2241 18.2607 28.2241C20.9091 28.2241 21.7455 29.8081 21.7455 31.1761V31.4641C21.7455 32.6161 21.2576 33.4081 20.5607 33.8401C21.2576 34.2721 21.8849 35.0641 21.8849 36.2881V36.5761C21.8849 38.0161 20.8394 39.8161 18.2607 39.8161C15.8213 39.8161 14.5667 38.5201 14.5667 36.2161V36.0001H16.797Z" fill="white"/>
</g>
<defs>
<clipPath id="clip0">
<rect width="115" height="72" fill="white"/>
</clipPath>
</defs>
</svg>
