<svg width="115" height="76" viewBox="0 0 115 76" fill="none" xmlns="http://www.w3.org/2000/svg">
<g clip-path="url(#clip0)">
<path fill-rule="evenodd" clip-rule="evenodd" d="M90.397 29.944C89.2818 28.956 88.097 28.044 87.0516 26.904L86.2152 26.068L85.6576 25.232C85.6576 25.08 85.5182 25.08 85.5182 25.004V24.776L85.3091 24.244V23.484V23.18C85.4129 22.7522 85.5059 22.3214 85.5879 21.888C86.0061 20.216 86.7031 18.62 87.1909 16.948C88.1667 13.3 88.3758 8.968 86.1455 5.776C81.9637 -0.303997 73.1122 -0.607997 66.4909 0.456003C62.5319 1.12403 58.7423 2.67734 55.36 5.01842C51.9777 7.3595 49.0758 10.4378 46.8364 14.06L45.5818 15.884C45.1938 16.397 44.7988 16.9037 44.397 17.404L42.8637 19.076L42.1667 19.608L41.8182 19.836L39.8667 21.052L39.1 21.432L38.2637 21.736C32.2697 24.168 25.5788 25.232 20.4909 29.564C14.2182 35.036 15.3334 43.928 19.097 50.464C22.7556 56.467 27.9043 61.2115 33.9425 64.144C40.3546 67.412 47.1849 68.856 54.1546 70.3L57.9182 71.288L59.5909 72.352C62.8448 74.197 66.4497 75.1855 70.1169 75.2383C73.7841 75.2911 77.4117 74.4067 80.7091 72.656C86.8982 69.4712 92.1926 64.5378 96.0425 58.368C100.085 51.984 101.13 44.004 97.0182 37.316C95.2758 34.504 92.9061 32.072 90.397 29.944Z" fill="#F2C4C4"/>
<path fill-rule="evenodd" clip-rule="evenodd" d="M63.7728 31.16C63.7728 31.008 64.3303 23.104 65.1667 22.268C65.4455 18.924 65.5152 15.58 65.3061 12.236L65.5849 11.476C66.0031 10.488 66.4212 9.19599 66.3515 8.05599C66.3515 6.61199 65.1667 5.92799 63.9121 5.77599C58.9637 5.39599 53.9455 5.31999 48.9273 5.01599C48.0212 5.01599 47.4637 5.85199 47.394 6.68799L46.4182 14.06C45.6531 16.4318 45.2299 18.9187 45.1637 21.432C44.6061 23.18 44.4667 34.124 44.2576 35.264C44.1182 36.024 43.8394 41.116 44.2576 42.484C45.5818 47.044 56.8031 47.272 62.2394 47.044C62.3151 41.979 62.711 36.9256 63.4243 31.92L63.7031 31.312" fill="white"/>
<path fill-rule="evenodd" clip-rule="evenodd" d="M65.5152 69.464C65.3758 68.172 65.8637 66.424 64.9576 65.36C62.1697 62.016 60.3576 60.8 60.0788 60.648C58.3364 58.368 59.2425 57.304 57.1515 55.328C56.7334 55.1 55.2697 53.2 55.0606 52.744C54.6425 51.908 53.9455 50.236 55.2697 50.692C56.4546 51.148 60.1485 51.452 61.3334 51.832C61.6122 51.528 61.8909 51.832 62.3091 51.832L64.0515 50.768C64.6091 49.248 65.0273 46.892 64.9576 45.98C64.6788 44.156 64.4 43.168 64.9576 41.42C65.4455 39.748 65.3758 38.988 66.4212 37.848C66.0031 36.784 66.9788 33.896 66.9788 33.82C67.0485 33.44 66.7 31.768 66.7 31.16V27.36C66.7 26.6 66.3515 25.384 66.3515 24.472C66.3515 24.396 66.6303 21.964 67.397 20.672C67.7455 20.292 68.7909 17.86 70.394 17.86C71.5091 17.86 70.9515 23.408 71.0909 23.712C71.0909 23.712 71.997 27.664 72.9031 29.032C73.7394 30.172 73.5303 32.604 73.6 33.896C73.7394 34.96 74.5061 37.392 74.5758 37.544C75.7879 39.4255 76.6629 41.54 77.1546 43.776C77.1546 43.776 77.5031 48.412 77.4334 48.488L78.2697 52.136C78.2697 52.44 79.3152 55.176 79.2455 55.48L82.0334 60.04C82.5212 60.8 85.3788 67.488 83.9849 70.756C82.7303 73.644 80.0121 74.404 77.1546 75.24C74.9243 75.848 73.2515 75.696 70.7425 75.696C69.4879 75.696 64.9576 76.532 64.2606 74.784C63.9121 73.872 65.3061 70.528 65.4455 69.464H65.5152ZM43.4909 30.172V31.92L43.3515 34.808C43.0728 35.188 42.794 35.416 42.3758 35.568C41.9576 35.644 41.2606 35.568 40.9818 35.34L39.8667 34.428C39.8667 34.428 39.3091 33.972 39.1697 33.668C39.1697 33.516 38.8212 33.288 38.7515 33.136C38.6121 32.68 37.9152 31.844 38.7515 30.324C39.3091 29.488 40.1455 30.476 41.2606 30.476C42.0128 30.476 42.762 30.3739 43.4909 30.172ZM42.2364 20.444C44.5364 20.9 44.1879 23.56 44.1182 24.092C43.8394 25.612 43.9788 24.7 43.9788 26.068C43.9788 26.372 42.9334 25.764 42.7243 25.612C42.3758 25.612 40.8424 24.548 40.6334 23.864L40.0758 23.104C39.6576 22.344 39.6576 21.584 40.0758 20.824C40.494 20.064 42.2364 20.444 42.2364 20.444ZM41.5394 43.624C40.9818 43.016 40.2849 43.092 40.1455 42.18C40.1455 42.18 39.0303 41.42 40.0758 39.14C40.6334 38.684 41.6091 38.532 42.2364 38.988L42.3758 39.064L43.2121 39.596C43.2121 39.596 42.794 41.344 42.8637 41.42V43.016C42.794 43.092 42.5152 44.08 41.4697 43.624H41.5394Z" fill="white"/>
<path fill-rule="evenodd" clip-rule="evenodd" d="M68.7909 1.97605L68.5819 1.82405C68.2334 0.988052 67.3273 0.608052 66.4909 0.456053C63.4243 -0.0759475 60.2182 0.228053 57.1515 1.21605C54.3637 0.988052 51.4364 0.760053 48.5788 0.304052C47.8818 0.152052 45.4425 0.608052 45.3031 1.36805C45.1637 2.35605 44.4667 4.40805 44.2576 5.39605C43.5606 6.99205 43.8394 7.98005 43.7697 9.88005C43.7697 10.1081 43.4212 13.9841 43.5606 14.1361C43.2818 17.0241 43.0728 16.1881 42.8637 19.0001C42.6546 22.4961 42.5152 25.1561 42.0273 28.6521C42.0273 28.8801 42.0273 37.6201 41.8879 38.3801C41.6788 38.9121 41.4697 45.98 41.4697 46.5881C41.4697 49.1721 43.7697 49.9321 44.0485 50.16C44.397 50.3881 53.3182 50.5401 54.294 50.6161L55.4091 50.8441C57.0818 51.3761 58.894 51.8321 60.5667 52.1361C61.8212 52.3641 63.3546 52.3641 64.3303 51.376C64.8879 50.9961 65.2364 50.312 65.2364 49.552C65.2364 48.792 64.7485 48.4881 65.0273 47.8041C65.1667 47.3481 65.0273 46.8921 64.8182 46.5121C64.8182 45.9041 64.9576 45.2201 65.097 44.6121C65.1667 44.1561 64.9576 43.7761 64.6788 43.548C64.6788 42.7881 64.6788 42.104 64.8182 41.4201C64.9576 40.812 65.1667 40.2801 65.2364 39.6721L65.6546 38L66.0031 37.0881L66.2122 36.708V36.2521C66.3515 36.1001 66.4212 35.8721 66.4212 35.6441V35.2641L66.7697 33.1361C67.8849 30.552 66.6303 27.8161 66.8394 25.2321C66.9091 24.6241 66.1425 24.5481 65.9334 25.0801C65.4455 26.3721 65.5849 27.7401 65.5152 29.1081V29.4881L65.4455 29.6401C65.3061 30.3241 65.2364 30.9321 65.2364 31.6161L63.2849 44.0801C63.0758 44.6881 63.0061 45.2961 62.9364 45.9041H62.8667C61.6122 45.9041 60.5667 45.6001 59.3818 45.2961C57.9182 44.916 56.4546 44.764 54.9909 44.536L46.4879 43.7001C46.1646 43.4334 45.7772 43.275 45.3728 43.2441C44.6061 43.0161 44.5364 39.6721 44.8849 39.1401C45.1637 38.5321 45.4425 35.4921 45.0243 34.5801L44.9546 34.5041L45.8606 29.1841C45.9303 28.8801 45.8606 28.5761 45.7212 28.4241C46.181 25.6043 46.5298 22.7644 46.7667 19.9121L47.1152 14.8201C47.2546 13.3001 47.6031 11.9321 48.0212 10.4881C48.1606 10.4121 48.2303 10.1841 48.3 10.0321L49.2758 6.08005C52.0637 5.85205 54.7818 5.54805 57.5 5.54805C57.7091 5.70005 57.9182 5.77605 58.197 5.77605L64.4 6.30805L67.5364 6.61205H68.1637C68.0243 8.28405 67.7455 9.80405 67.5364 11.4001L67.397 15.3521C67.397 16.3401 66.7 19.7601 66.7 20.5201C66.7 21.1281 67.5364 21.2801 67.6758 20.6721C67.8281 20.1697 67.9676 19.6629 68.094 19.1521C68.2334 18.8481 68.2334 18.5441 68.2334 18.1641L68.5122 17.5561C68.6515 17.4041 68.5819 17.1761 68.5122 17.1001L68.7212 15.7321L68.7909 15.5041C69.0697 12.5401 69.1394 9.57605 69.1394 6.61205C69.4002 6.56021 69.6419 6.42839 69.8364 6.23205C70.8818 5.09205 69.697 2.81205 68.7909 1.97605Z" fill="#F2C4C4"/>
<path fill-rule="evenodd" clip-rule="evenodd" d="M58.3364 32.072L58.6152 32.148V32.528L58.0576 33.44L57.8485 33.592L56.9424 33.82C56.5243 33.972 56.1061 33.972 55.6879 33.896C55.4091 33.896 55.1303 33.896 54.8515 33.744C54.7121 33.744 54.5727 33.592 54.4334 33.44C54.294 33.44 54.2243 33.212 54.0849 33.136C53.9455 32.984 53.9455 32.832 54.0849 32.756C54.0849 32.68 54.2243 32.756 54.3637 32.756C54.5727 32.984 54.7121 33.212 54.9909 33.288C55.5485 33.516 56.1758 33.592 56.803 33.364L57.6394 33.212L57.9182 32.984L58.197 32.224L58.3364 32.072C57.9182 32.376 57.5 32.3 57.0818 32.3H56.3849C56.3156 32.2885 56.2451 32.2885 56.1758 32.3L55.6182 32.452L55.1303 32.528C54.7121 32.604 54.4334 32.528 54.0152 32.376L53.597 32.072C53.5169 32.0307 53.4487 31.9664 53.3996 31.8861C53.3505 31.8058 53.3224 31.7124 53.3182 31.616V31.388V31.16L53.5273 31.236C53.7364 31.464 53.8758 31.768 54.2243 31.996C54.4334 31.996 54.7121 32.148 55.0606 32.072C55.2697 32.072 55.5485 32.072 55.7576 31.92L55.897 31.844C55.897 31.768 55.897 31.616 55.7576 31.616C55.4091 31.616 55.2 31.388 54.9909 31.084L54.9212 30.704V30.476C54.7121 30.4 54.7818 30.248 54.7818 30.172L54.6424 29.944C54.6119 29.8862 54.5958 29.8207 54.5958 29.754C54.5958 29.6873 54.6119 29.6217 54.6424 29.564C54.7818 29.336 54.9909 29.184 55.2 29.184L55.5485 29.108H56.9424C57.1515 29.108 57.3606 29.336 57.4303 29.564C57.5 29.868 57.4303 30.096 57.2212 30.324C57.0818 30.324 57.0818 30.4 57.0818 30.552V30.856L56.6637 31.388L56.3849 31.616V31.768C56.9424 31.92 57.4303 31.92 57.9182 31.768C57.9182 31.768 58.0576 31.768 58.1273 31.616L58.7546 30.628C58.7546 30.552 58.894 30.476 58.9637 30.628C59.103 30.628 59.103 30.78 59.0333 30.856L58.6849 31.54L58.3364 32.072ZM56.4546 3.34396C56.1758 3.34396 56.1061 3.19196 55.8273 3.11596H55.4788C55.1303 2.65996 55.897 2.73596 55.897 2.73596H57.6394L59.6606 2.65996C59.7303 2.65996 61.403 2.50796 61.403 3.11596C61.403 3.57196 61.2637 3.57196 60.497 3.57196H58.197H57.7788H57.4303L57.1515 3.41996L56.4546 3.34396ZM56.4546 50.844C56.4546 50.996 59.1031 51.376 60.2182 51.528C60.6364 51.528 61.6818 51.832 61.7515 51.68C62.2394 51.528 63.2849 51.148 63.8424 51.452C63.9818 51.452 64.1909 51.224 64.3303 51.072C64.8182 50.312 64.8879 49.4 64.8182 48.488L64.7485 47.728L64.4 43.928V42.18L64.4697 41.116C64.6091 39.9 65.2364 38.912 65.6546 37.848C66.003 36.86 66.2121 35.872 66.4212 34.808C66.8394 33.136 66.7 31.388 66.5606 29.716C66.4909 28.956 66.5606 28.12 66.4212 27.284C66.2121 26.372 66.2818 25.46 66.3515 24.472L65.7243 27.208V28.88C65.7243 29.792 65.7243 30.78 65.5849 31.692L65.1667 33.44V33.668C65.2364 33.972 65.2364 34.276 65.0273 34.58C64.8182 34.96 64.8879 35.492 64.8182 35.948L64.1212 42.408L63.494 46.208H61.8212L56.8727 45.448L50.6697 44.536L49.4152 44.308L47.5334 43.928C47.071 43.8546 46.6059 43.8039 46.1394 43.776C45.8516 43.7445 45.5749 43.6384 45.3324 43.4666C45.0899 43.2947 44.8886 43.062 44.7455 42.788C44.5364 42.56 44.5364 42.18 44.5364 41.876C44.8152 39.216 44.8849 36.556 44.7455 33.896C44.7455 32.756 44.9546 31.616 45.0243 30.476C45.0243 29.716 46.9061 16.872 46.9758 15.884L47.2546 12.844C47.3243 12.236 47.9515 10.108 48.0909 9.34796C48.2303 8.43596 48.2303 7.52396 48.4394 6.68796C48.5788 6.38396 48.7879 6.07996 48.7879 5.69996C48.7879 5.69996 48.997 5.47196 49.0667 5.54796C49.7637 5.85196 50.3212 5.47196 50.8788 5.47196L55.0606 5.54796L59.2424 5.85196L60.9152 6.07996C60.7061 6.07996 68.4424 6.23196 68.4424 6.68796L68.094 10.412L68.1637 10.64C68.1637 10.716 68.1637 11.78 68.0243 12.16C67.8152 12.768 67.7455 13.452 67.6758 14.136L67.6061 15.656L67.397 17.024C67.3273 18.088 66.9788 20.824 67.0485 20.976C67.2576 20.748 67.7455 19.76 67.7455 19.456L67.8152 19.228C68.6515 18.012 68.7212 16.644 68.7212 15.2C68.7212 13.148 68.9303 11.172 69.0697 9.19596V7.44796C69.2377 6.36846 69.4705 5.30217 69.7667 4.25596C69.5576 3.95196 69.2788 2.73596 69.0697 2.12796C68.7212 1.21596 67.8849 1.36796 67.2576 1.29196C66.2615 1.15927 65.2621 1.0579 64.2606 0.987956C62.3091 0.911956 60.2182 1.29196 58.197 1.21596H54.7121C53.8061 1.21596 52.9697 1.21596 52.1334 1.06396H50.5303C49.8004 1.09339 49.0859 1.30117 48.4394 1.67196C47.4637 2.12796 47.2546 4.78796 46.8364 7.44796L45.9303 13.832L45.5121 17.632L44.8849 22.952L44.397 26.752L44.0485 30.248C43.7859 33.0295 43.5768 35.8168 43.4212 38.608C43.4212 40.28 43.2818 41.952 43.2121 43.548C43.2121 43.7 42.9334 44.612 42.9334 45.068C43.1424 47.5 49.6243 49.4 50.6697 49.628L51.8546 49.856L53.9455 50.312C54.0849 50.312 55.6182 50.92 56.1758 50.768H56.4546V50.844ZM42.5849 43.016C42.794 41.42 42.5849 40.736 42.5849 39.976L41.2606 39.748C41.1212 39.748 40.9121 40.204 40.9818 40.356C40.9818 40.812 41.1909 41.268 41.3303 41.724L41.7485 42.484C41.9576 42.712 42.3061 42.94 42.5849 43.016ZM41.4697 23.104C42.097 23.94 42.794 24.624 43.7697 25.004C43.7697 24.396 43.7697 23.788 43.9091 23.18C44.0485 22.572 43.8394 22.04 43.4909 21.508C43.4909 21.356 43.4212 21.128 43.2818 21.052C42.6546 20.748 42.097 20.444 41.3303 20.748C40.9121 20.9 40.8424 22.268 41.4697 23.104ZM45.4424 36.48V37.164C45.2334 38.912 45.1637 40.66 45.094 42.408C45.094 43.32 47.1849 43.244 48.1606 43.472C48.8576 43.7 49.5546 43.776 50.3212 43.852L58.9637 44.84H59.5909L60.0788 45.144C60.0788 45.144 60.7758 45.752 61.6818 45.524L61.9606 45.372L62.6576 45.6L63.3546 41.192C63.3546 41.268 63.9818 36.48 64.0515 36.708C64.0515 36.708 64.7485 33.668 64.8879 32.376L65.1667 28.652L65.3061 27.132V26.828C65.7243 24.776 66.0031 23.94 66.4212 22.648C66.4909 20.368 67.1182 16.036 67.2576 13.452L67.5364 11.02C67.5364 11.02 67.6758 8.81596 67.8849 7.97996C68.0243 7.44796 67.8849 7.29596 67.4667 7.21996L66.0727 6.99196H64.7485C63.4243 7.14396 62.1697 6.83996 60.9152 6.68796C59.8 6.45996 58.6849 6.45996 57.6394 6.38396L54.5727 6.00396H49.4849C48.997 5.92796 48.7879 6.15596 48.7879 6.61196C48.6485 7.37196 48.4394 8.20796 48.4394 9.04396C48.6485 11.324 47.9515 13.604 47.7424 15.884C47.4637 17.708 46.3485 26.752 46 28.5L45.4424 36.404V36.48ZM42.6546 34.96L42.9334 31.388C41.8879 31.616 40.8424 31.54 40.8424 31.54H40.2152C39.797 31.54 39.7273 31.768 39.7273 32.148C39.7273 32.756 40.0061 33.136 40.2849 33.668C40.8424 34.732 41.5394 35.188 42.7243 34.96H42.6546ZM66.9788 32.68V36.48L67.7455 35.72L67.8849 35.416C67.8373 34.4264 67.522 33.4743 66.9788 32.68ZM61.4727 59.888C60.4273 58.672 59.7303 56.468 59.0333 55.1C58.6875 54.4373 58.2115 53.8664 57.6394 53.428C55.2 51.604 54.1546 50.996 54.0849 51.072C53.1091 50.388 50.6 50.084 50.6 50.084C50.3909 49.856 45.7909 50.16 43.6303 47.804C43.1424 47.348 42.8637 46.816 42.5152 46.284L42.3758 45.372C42.3758 44.916 42.6546 43.776 42.6546 43.852C41.4697 43.472 41.1212 42.332 40.8424 41.42L40.5637 39.9C40.494 39.52 40.6334 39.292 40.9818 39.292H42.7243C43.6303 34.504 42.3758 35.492 42.1667 35.492C41.7705 35.4239 41.3755 35.3479 40.9818 35.264C40.0758 34.276 39.2394 33.212 39.3788 31.692C39.4485 31.084 39.9364 30.552 40.4243 30.78C41.3303 31.16 42.097 30.856 42.8637 30.628H43.1424L43.7697 25.84L43.7 25.612L42.3061 24.472C41.8445 24.1444 41.4468 23.7207 41.1359 23.225C40.8249 22.7294 40.6067 22.1717 40.494 21.584C40.4243 21.204 40.8424 20.596 41.3303 20.444C42.3061 20.064 44.397 21.128 44.397 21.052C44.4667 20.292 44.4667 19.608 44.6758 19C45.3727 16.948 45.2334 14.744 45.5818 12.692L46 9.49996V8.35996L46.3485 6.07996L46.697 3.95196L47.1849 1.29196C47.2546 0.759956 48.2303 0.227956 48.8576 0.303956C49.7637 0.303956 50.6 0.455956 51.4364 0.531956H51.9243C51.7849 0.303956 54.2243 0.227956 55.0606 0.227956H58.2667C58.9637 0.227956 59.5909 0.0759559 60.2182 0.227956C61.7515 0.227956 63.2849 0.455956 64.8182 0.607956L67.9546 1.06396C68.3727 1.06396 68.7909 1.13996 69.1394 1.29196C69.6273 1.29196 69.8364 1.74796 69.9061 2.20396C70.1152 3.11596 70.2546 4.10396 70.3243 5.01596C70.3243 5.85196 69.9061 7.29596 69.6273 8.43596L69.4182 12.008C69.4182 12.008 69.4182 14.136 69.2091 15.428C69.1394 16.188 68.8606 16.948 68.8606 17.784C68.8606 18.544 68.6515 19.152 68.1637 19.76C67.8849 20.14 67.8152 20.672 67.6061 21.28C67.397 21.736 67.1182 22.268 67.0485 22.8C66.7 24.928 66.5606 26.98 66.9091 29.184C67.1879 31.16 67.6758 32.984 68.3727 34.808L68.5121 35.416C68.3549 35.3592 68.1897 35.3335 68.0243 35.34C68.0243 35.644 67.9546 35.796 67.6758 36.024C67.2576 36.48 66.8394 37.392 66.7697 37.088L65.7243 38.988C65.097 40.052 65.097 41.268 65.0273 42.332C64.8879 43.472 64.8879 44.688 64.9576 45.904C64.9576 46.816 65.2364 47.804 65.2364 48.716C65.2364 49.476 65.0273 50.16 64.9576 50.844C64.8879 52.288 64.7485 53.656 64.7485 55.1C64.7485 55.784 64.8879 56.392 64.9576 57.076V57.532C64.5394 56.62 64.5394 55.632 64.2606 54.492V52.44C64.1212 51.984 62.6576 52.136 61.9606 52.288L60.4273 52.06C59.5909 52.06 59.3121 51.832 58.5455 51.756L56.4546 51.376C56.3849 52.06 56.8727 52.06 57.1515 52.364C57.8485 52.82 58.1273 53.352 58.7546 53.884C59.2424 54.264 59.8697 54.492 60.1485 55.252C60.2879 55.86 60.6364 56.316 60.9849 56.772C61.0546 57 61.3334 57.076 61.4727 57.228L61.6818 57.988L61.8212 58.368V58.52H61.8909C61.9828 58.738 62.0999 58.9423 62.2394 59.128L64.1909 61.94C64.3641 62.1054 64.5271 62.2831 64.6788 62.472L65.097 63.08L65.3061 63.384L66.003 64.144C66.2917 64.5364 66.5939 64.9167 66.9091 65.284L67.1879 65.436L67.397 65.512L67.1879 65.816L67.0485 65.968L66.9788 66.12C66.4212 68.4 65.9334 70.68 65.794 72.96C65.794 73.264 65.3061 73.188 65.3758 72.884C65.469 71.6833 65.6319 70.4902 65.8637 69.312L66.4212 66.272L66.4909 66.044V65.816V65.664C66.4212 65.36 66.2121 65.132 65.9334 64.828C65.2364 64.22 64.6788 63.46 64.1212 62.776C63.9818 62.624 62.4485 61.484 61.4727 59.888ZM70.6727 22.724L70.3243 22.572C68.5121 20.444 69.3485 19.228 69.3485 18.772C69.3485 18.468 69.7667 18.164 70.0455 18.012H70.3243L70.394 17.936C70.5332 17.9451 70.6729 17.9451 70.8121 17.936L70.9515 17.86C71.4394 17.708 71.6485 18.088 71.7182 18.316L71.9273 19C72.2758 21.28 72.2061 22.344 72.7637 24.32L74.0182 28.652V29.032L75.1334 33.82L75.2727 34.58C75.2727 34.58 75.6909 35.796 76.6667 37.696C77.3829 39.4093 78.0799 41.1321 78.7576 42.864V44.232L78.8273 46.436V46.512L79.1061 47.424L79.8031 50.084C80.0426 51.2476 80.275 52.4129 80.5 53.58V53.808C81.1726 55.404 81.8932 56.9756 82.6606 58.52L83.0091 58.976C83.1429 59.2192 83.2594 59.4733 83.3576 59.736C83.6364 60.192 84.8212 63.84 84.8909 64.296L85.4485 66.272C85.6576 66.88 86.1455 69.008 85.8667 69.616C85.0303 71.136 84.9606 67.868 84.8909 67.868C84.9384 66.2654 84.6274 64.6742 83.9849 63.232V63.004L83.7758 62.092L83.7061 61.788L83.2182 60.8L81.3364 57C80.5246 55.4081 79.8705 53.7267 79.3849 51.984L79.1061 50.768C78.9371 50.0032 78.7512 49.2429 78.5485 48.488C78.4082 47.5845 78.3615 46.6668 78.4091 45.752V44.612C78.3841 43.977 78.3376 43.3432 78.2697 42.712C78.1188 41.9975 77.834 41.3247 77.4334 40.736C77.4334 40.584 77.294 40.508 77.2243 40.356L75.8303 37.696C75.5205 37.0998 75.2861 36.4607 75.1334 35.796C74.9218 35.1269 74.7586 34.4408 74.6455 33.744L74.5061 32.528C74.4204 32.1207 74.3275 31.7153 74.2273 31.312L74.0879 30.704L73.7394 28.88C73.7394 28.804 73.7394 28.652 73.6 28.652C73.4606 28.5 72.903 26.6 72.903 26.524C72.5944 26.0083 72.3594 25.4446 72.2061 24.852C72.1346 24.5899 72.0413 24.3355 71.9273 24.092C71.7879 23.864 71.7182 23.636 71.7182 23.332V22.04C71.5788 21.432 71.7182 20.596 71.5788 19.988L71.0212 18.24L70.0455 18.392C69.7667 18.544 69.6273 18.772 69.6273 19.152V19.38C69.6224 19.6857 69.6458 19.9913 69.697 20.292L70.0455 21.356L70.4637 22.116C70.603 22.192 70.6727 22.42 70.7424 22.572L70.6727 22.648V22.724ZM49.9727 14.592C54.7121 14.136 59.2424 15.428 63.9121 16.036L64.0515 16.492C59.3121 15.884 54.7121 14.82 50.1121 14.896L49.9727 14.592ZM64.8182 13.452L64.1212 13.376C59.5909 11.78 54.8515 11.932 50.1818 11.552V11.172H50.6L51.7849 11.248C55.9667 11.4 60.0788 11.628 64.1212 12.844L64.8182 13.224V13.452ZM54.3637 2.73596L54.503 2.88796L54.6424 3.26796L54.503 3.57196H54.3637V3.79996L53.6667 4.02796H53.3182V3.64796C53.309 3.42007 53.309 3.19185 53.3182 2.96396V2.81196C53.3182 2.65996 53.4576 2.58396 53.597 2.58396H53.9455C54.0947 2.6362 54.2358 2.71309 54.3637 2.81196V2.73596ZM54.294 47.576C54.4334 46.968 54.294 46.588 53.8061 46.208C53.8061 46.208 52.6212 45.676 52.1334 46.208C51.8546 46.968 51.5758 48.108 53.1788 48.716L53.597 48.64L53.7364 48.488L54.0152 48.184L54.294 47.5V47.576ZM54.8515 46.892C54.9909 47.424 54.8515 47.804 54.5727 48.26C54.1546 48.792 53.8758 49.248 53.1788 49.172C52.4818 49.172 51.994 48.564 51.7849 47.88C51.647 47.4658 51.5763 47.0286 51.5758 46.588C51.5061 45.828 51.994 45.448 52.8303 45.448C53.2712 45.4365 53.7041 45.5774 54.0671 45.8504C54.4301 46.1234 54.7047 46.5146 54.8515 46.968V46.892ZM60.8455 24.092C61.1243 24.548 61.194 25.08 61.0546 25.612L60.9152 26.6V27.816C60.9152 28.044 61.0546 28.272 61.3334 28.272L61.5424 27.74C61.6121 27.36 61.8909 26.98 61.8212 26.676C61.4727 25.688 62.2394 25.688 62.7273 25.384L63.7727 24.7C63.9818 24.624 64.1909 24.472 64.3303 24.244L64.4697 24.016C64.6091 23.94 64.6091 23.712 64.5394 23.56L64.1909 23.104L63.1455 22.192L61.3334 20.9L60.497 20.292C60.3576 20.216 60.3576 20.216 60.2879 20.368L60.1485 20.596H60.497C60.7061 20.976 60.7758 21.356 60.7758 21.812L60.6364 22.42L60.5667 22.876C60.4273 23.256 60.497 23.484 60.6364 23.788L60.8455 24.092ZM61.7515 37.848C61.5043 37.418 61.2245 37.0112 60.9152 36.632L60.1485 35.568L59.7303 34.884C59.3818 34.352 59.3818 33.744 59.3818 33.136V32.68C59.2424 32.832 59.1727 33.06 58.9637 33.06L59.2424 32.528L59.4515 31.996L59.7303 31.464L59.8697 30.856L60.2182 29.716L60.7061 28.652V28.424C60.5667 28.272 60.497 28.12 60.497 27.892V26.524V26.448L60.7061 25.46V25.308C60.7219 24.9532 60.6232 24.6037 60.4273 24.32L60.0788 23.408V23.18L60.2879 22.496V21.584H59.9394L59.7303 21.356L59.5212 21.204L59.1031 21.128L57.4303 20.596C57.1515 20.596 56.7334 20.596 56.4546 20.444C55.9667 20.216 55.4788 20.292 54.9909 20.444C54.7818 20.444 54.5727 20.52 54.4334 20.672L53.5273 21.204H53.3182C53.1091 21.204 52.9697 21.052 52.9 20.9C52.8303 20.672 52.6212 20.596 52.4121 20.596L52.0637 20.748L51.2273 21.128L50.8788 21.356L50.5303 21.432C50.3909 21.432 50.2515 21.584 50.1818 21.66C49.8334 21.812 49.4849 21.964 49.2758 22.192L48.997 22.344C48.9273 22.344 48.7879 22.344 48.6485 22.496L48.4394 22.724C48.3 22.8 48.1606 22.876 48.1606 23.028L47.8818 23.636V24.928C47.8818 25.156 48.0909 25.308 48.2303 25.536L49.4152 26.752L50.2515 27.74L50.5303 28.044C50.6697 28.196 50.7394 28.12 50.8091 28.044L50.9485 27.512C51.0182 27.36 51.1576 27.208 51.1576 26.98C51.2159 26.4753 51.2159 25.9646 51.1576 25.46V24.548V24.168C51.1576 23.636 51.297 23.18 51.3667 22.648V22.496C51.3667 21.964 51.6455 21.508 52.0637 21.356H52.5515L52.7606 21.508C52.9 21.584 52.9 21.66 52.7606 21.812C52.7606 21.964 52.5515 22.116 52.4818 22.268L52.0637 22.876L51.7152 23.636V23.788L51.5758 24.092C51.4364 24.776 51.5758 25.384 51.5758 25.992C51.5758 26.448 51.5758 26.904 51.4364 27.36V27.512L51.5061 28.272C51.6455 28.804 51.7849 29.336 52.0637 29.792L52.6212 30.78L52.9 31.464C52.9697 31.92 53.0394 32.376 53.3879 32.68L53.6667 33.06C53.9455 33.516 54.294 33.82 54.7121 34.124L54.9212 34.2C54.9212 34.352 54.7121 34.352 54.6424 34.276L53.5273 33.516L53.1091 33.06C53.1091 33.288 52.9697 33.44 52.9 33.668C52.9 33.896 52.7606 34.124 52.6909 34.276V34.428C52.6909 34.732 52.4818 34.884 52.3424 35.112L51.4364 35.948C51.4364 36.024 51.0879 36.328 50.8788 36.404L50.6 36.024L51.0879 35.568L51.2273 35.644L51.9243 34.884C52.1334 34.732 52.2727 34.504 52.3424 34.276C52.5515 33.744 52.6909 33.136 52.7606 32.604V32.452C52.6212 32.072 52.5515 31.616 52.3424 31.236C52.2727 30.932 52.0637 30.704 51.9243 30.476H51.7849L51.5061 29.64L51.0879 28.196C51.0879 28.272 51.0879 28.348 50.9485 28.424C50.9485 28.576 50.7394 28.652 50.5303 28.576L50.1121 28.196L49.3455 27.284L48.2303 26.068L47.6727 25.308L47.5334 25.156V25.004V24.472C47.4637 24.092 47.394 23.712 47.5334 23.332C47.6727 22.952 47.8121 22.572 48.2303 22.344L48.8576 21.888L49.5546 21.508L50.1121 21.128L50.8091 20.9L51.7152 20.444L52.4818 20.14L53.1091 20.368L53.2485 20.52C53.4576 20.596 53.5273 20.672 53.7364 20.52C54.2243 20.216 54.8515 19.988 55.4091 19.912C55.8273 19.836 56.2455 19.912 56.6637 20.064L57.0818 20.14C57.8485 20.216 58.6152 20.368 59.3121 20.748C59.5212 20.748 59.8 20.672 59.8697 20.368C59.9394 20.14 60.0788 19.988 60.2879 19.836H60.497L61.403 20.444L62.4485 21.204L62.6576 21.28L63.9121 22.268C64.3303 22.648 64.6788 23.028 64.9576 23.56C65.097 23.788 64.9576 24.32 64.7485 24.472L64.5394 24.624C64.3303 24.928 64.0515 25.08 63.7727 25.232C63.3546 25.46 62.9364 25.688 62.6576 25.992C62.3091 26.448 62.1 26.904 61.9606 27.36C61.9606 27.74 61.8909 28.12 61.7515 28.424C61.6818 28.804 61.4727 28.88 61.194 28.804H61.0546L60.8455 29.26L60.3576 30.476L60.1485 31.464L60.0788 31.768C60.0788 31.768 59.9394 32.3 59.8697 32.224C59.8697 32.224 59.7303 33.44 59.8697 34.048C59.8697 34.352 60.0091 34.656 60.1485 34.96L60.497 35.34L61.0546 36.1C61.2637 36.48 61.4727 36.86 61.7515 37.088L62.0303 37.696C62.1 37.696 62.1697 38.228 62.0303 38.456L61.7515 37.924V37.848ZM58.9637 29.488H59.0333C59.3121 29.716 59.5909 29.868 59.7303 30.248V31.008L59.6606 31.16H59.5212L59.3121 30.856C59.3818 30.628 59.3121 30.248 59.1031 30.096C58.9637 29.944 58.894 29.868 58.6849 29.868L58.5455 29.64C58.5455 29.412 58.4758 29.184 58.2667 28.88C58.0576 28.88 57.9879 28.728 57.9879 28.576V28.12L57.8485 27.968C57.7091 27.816 57.7091 27.74 57.7091 27.588V27.512C57.5697 27.512 57.5 27.36 57.5 27.208V27.056L57.0818 26.752L56.9424 26.524H56.6637C56.5243 26.22 56.3152 26.068 56.3152 25.764C56.0364 25.384 56.1758 24.928 56.1061 24.472V23.864L56.0364 23.56C55.9667 23.332 55.897 23.18 56.0364 22.952C56.1758 22.724 56.2455 22.42 56.1758 22.116C56.0364 22.116 55.9667 22.116 55.897 22.268C55.5485 22.572 55.6879 23.028 55.6182 23.332C55.5485 23.864 55.6182 24.472 55.7576 25.004L55.8273 25.384C55.8273 25.84 55.9667 26.22 55.6879 26.6L55.3394 26.98L54.9212 27.588C54.6424 27.816 54.503 28.12 54.4334 28.424L53.8758 29.716C53.8758 29.868 53.7364 29.944 53.597 29.944L53.5273 30.704L53.4576 30.856L53.3879 30.932H53.3182L53.2485 30.552V29.792C53.2485 29.716 53.3879 29.564 53.5273 29.64L53.6667 29.488L54.0152 28.728L54.1546 28.12C54.1546 27.892 54.3637 27.664 54.503 27.512L55.2 26.752C55.4091 26.448 55.4788 26.144 55.4788 25.84L55.4091 25.08C55.3262 24.3215 55.2565 23.5613 55.2 22.8L55.2697 22.572L55.6182 22.04C55.6879 21.888 55.897 21.812 56.0364 21.812L56.4546 21.66L56.594 21.736V22.04L56.4546 22.572L56.3849 22.876C56.3152 23.104 56.2455 23.332 56.3849 23.56V24.548L56.4546 25.08C56.4546 25.232 56.4546 25.384 56.594 25.536C56.594 25.764 56.803 25.916 56.8727 26.068C57.1515 26.068 57.2212 26.372 57.4303 26.524L57.7788 26.98V27.056C57.9879 27.132 57.9879 27.284 57.9879 27.436L58.0576 27.664C58.197 27.816 58.197 27.968 58.197 28.196C58.197 28.348 58.197 28.348 58.3364 28.424L58.6849 28.88C58.8243 29.032 58.8243 29.26 58.894 29.412L58.9637 29.488ZM55.4788 30.856C55.6182 31.008 55.7576 31.16 55.9667 31.16V30.552V30.4C55.9667 30.248 55.9667 30.172 56.1061 30.172C56.2455 30.172 56.2455 30.324 56.2455 30.4L56.4546 31.16L56.6637 30.856L56.594 30.628V30.4C56.4546 30.096 56.594 29.868 56.8727 29.868C57.0121 29.868 57.0818 29.868 57.0818 29.716C57.0818 29.564 57.0818 29.564 56.9424 29.488C56.4853 29.3592 56.0057 29.3592 55.5485 29.488L55.1303 29.564C55.1303 29.868 55.1303 29.868 55.4091 29.868C55.5485 29.868 55.6879 30.02 55.7576 30.096V30.476L55.4091 30.78L55.4788 30.856ZM54.0849 26.296C54.2243 26.296 54.2243 26.22 54.294 26.144C54.294 26.144 54.294 25.992 54.1546 25.916V26.22L54.0849 26.296ZM53.3879 26.448L53.1788 25.916L52.9 26.296L53.3879 26.448ZM53.3879 26.828C53.1412 26.8206 52.9006 26.7419 52.6909 26.6C52.4818 26.448 52.4818 26.296 52.5515 26.068C52.7606 25.764 52.9 25.46 53.2485 25.308C53.3879 25.232 53.597 25.156 53.7364 25.308C54.0152 25.384 54.294 25.536 54.4334 25.764C54.7121 26.144 54.5727 26.524 54.1546 26.676C53.9455 26.828 53.6667 26.828 53.3182 26.828H53.3879ZM58.5455 26.22L58.4061 25.916L58.2667 26.068L58.5455 26.22ZM59.3818 26.22L59.5909 25.992L59.4515 25.764V26.144L59.3818 26.22ZM58.6849 26.676C58.4758 26.676 58.1273 26.524 57.9879 26.22C57.9182 26.068 57.9182 25.992 57.9879 25.916L58.3364 25.384C58.4352 25.231 58.5823 25.1232 58.7494 25.0811C58.9166 25.039 59.0922 25.0657 59.2424 25.156C59.5212 25.308 59.8 25.612 59.9394 25.916C59.9394 26.144 59.9394 26.22 59.7303 26.296L59.5909 26.372C59.3818 26.676 59.0334 26.676 58.7546 26.676H58.6849ZM54.0152 24.092C54.0849 24.092 54.2243 24.092 54.3637 24.244C54.4334 24.244 54.503 24.32 54.4334 24.396C54.4334 24.548 54.4334 24.624 54.294 24.548H54.0849C53.8758 24.396 53.6667 24.548 53.4576 24.624L52.8303 25.232C52.7606 25.308 52.6212 25.384 52.5515 25.232C52.4818 25.232 52.5515 25.004 52.5515 24.928L53.3879 24.168C53.597 24.092 53.7364 24.016 54.0849 24.092H54.0152ZM58.7546 23.712L59.0333 23.864C59.3121 24.016 59.5909 24.32 59.8 24.624C59.8697 24.7 59.8697 24.852 59.8 24.928C59.6606 25.004 59.5909 24.928 59.5212 24.852L59.1031 24.396L58.8243 24.244C58.7546 24.168 58.6152 24.244 58.5455 24.244C58.4758 24.32 58.3364 24.396 58.2667 24.244V24.016C58.3364 23.788 58.5455 23.712 58.7546 23.712Z" fill="#1D6C97"/>
<path d="M10.1061 47.7281C8.64556 46.6929 7.39016 45.349 6.41407 43.7758C5.43797 42.2026 4.76099 40.432 4.42312 38.5686C4.08525 36.7053 4.09336 34.7869 4.44696 32.927C4.80056 31.0672 5.49247 29.3034 6.48182 27.7401C10.6636 21.1281 17.4939 21.6601 23.6273 26.2201C29.7606 30.6281 32.897 37.2401 28.7152 43.8521C24.5333 50.3881 16.2394 52.2121 10.1061 47.6521V47.7281Z" fill="#1D6C93"/>
<path d="M21.1879 42.56H14.2182V40.432H16.5879V33.668L14.8454 34.96L13.7303 33.212L17.1454 30.704H18.8182V40.432H21.1879V42.56Z" fill="white"/>
</g>
<defs>
<clipPath id="clip0">
<rect width="115" height="76" fill="white"/>
</clipPath>
</defs>
</svg>
